<svg width="320" height="568" fill="none" xmlns="http://www.w3.org/2000/svg"><path fill="#fff" d="M0 0h320v568H0z"/><path fill="#C4C4C4" d="M0 0h320v50H0z"/><path fill="#FFBCCC" d="M160 0h160v568H160z"/><path fill="#fff" d="M0 0h160v568H0z"/><path fill="#FFBCCC" d="M160 0h160v568H160z"/><path fill="#fff" d="M0 0h160v568H0z"/><path fill="#FFBCCC" d="M160 0h160v568H160z"/><path fill="#fff" d="M0 0h160v568H0z"/><path d="M127.303 338.285h-1.566c-.312 0-.468.162-.468.486v4.167c0 .324.156.486.468.486h1.566c.312 0 .468-.162.468-.486v-4.167c0-.324-.156-.486-.468-.486zm.018 5.715h-1.602c-.354 0-.624-.093-.81-.279-.18-.186-.27-.453-.27-.801v-4.14c0-.342.09-.606.27-.792.186-.192.456-.288.81-.288h1.602c.348 0 .615.096.801.288.186.186.279.45.279.792v4.14c0 .342-.093.609-.279.801-.186.186-.453.279-.801.279zm2.309-3.762l-.09-.738.612-.081.108.819v1.089h.531l.756-1.206.342-.693.675.09-.387.711-.909 1.386 1.62 2.385h-.711l-1.413-2.097h-.504V344h-.63v-3.762zm4.937-.738h.99l.891.252-.153.549-.738-.216h-.972c-.312 0-.468.162-.468.486v2.367c0 .324.156.486.468.486h1.017l.738-.216.153.549-.891.243h-1.035c-.354 0-.624-.093-.81-.279-.18-.186-.27-.453-.27-.801v-2.34c0-.342.09-.606.27-.792.186-.192.456-.288.81-.288zm2.692.252l.9-.252h1.026c.354 0 .621.096.801.288.186.186.279.45.279.792v2.709l.099.711-.621.072-.099-.801-1.008.729h-.441c-.348 0-.615-.093-.801-.279-.186-.192-.279-.459-.279-.801v-.549c0-.342.093-.606.279-.792.186-.192.453-.288.801-.288h1.44v-.72c0-.324-.156-.486-.468-.486h-1.008l-.738.216-.162-.549zm.954 3.672h.261l1.161-.846v-.729h-1.422c-.312 0-.468.162-.468.486v.603c0 .324.156.486.468.486zm3.957-2.043h1.89V339.5h.63v3.753l.09.738-.612.081-.108-.819v-1.296h-1.89V344h-.63v-3.762l-.09-.738.612-.081.108.819v1.143zm3.746-1.629l.9-.252h1.026c.354 0 .621.096.801.288.186.186.279.45.279.792v2.709l.099.711-.621.072-.099-.801-1.008.729h-.441c-.348 0-.615-.093-.801-.279-.186-.192-.279-.459-.279-.801v-.549c0-.342.093-.606.279-.792.186-.192.453-.288.801-.288h1.44v-.72c0-.324-.156-.486-.468-.486h-1.008l-.738.216-.162-.549zm.954 3.672h.261l1.161-.846v-.729h-1.422c-.312 0-.468.162-.468.486v.603c0 .324.156.486.468.486zm7.976-5.103l.297-.693.693.09-.342.711-1.512 2.25L156.16 344h-.729l-1.989-3.024h-.522V344h-.63v-6.3h.63v2.682h.558l1.368-2.061zm2.004 1.431l.9-.252h1.026c.354 0 .621.096.801.288.186.186.279.45.279.792v2.709l.099.711-.621.072-.099-.801-1.008.729h-.441c-.348 0-.615-.093-.801-.279-.186-.192-.279-.459-.279-.801v-.549c0-.342.093-.606.279-.792.186-.192.453-.288.801-.288h1.44v-.72c0-.324-.156-.486-.468-.486h-1.008l-.738.216-.162-.549zm.954 3.672h.261l1.161-.846v-.729h-1.422c-.312 0-.468.162-.468.486v.603c0 .324.156.486.468.486z" fill="#FFBCCC"/><path d="M161.131 340.238l-.09-.72.612-.081.081.639 1.017-.576h.45c.348 0 .615.096.801.288.186.186.279.45.279.792v2.34c0 .342-.093.609-.279.801-.186.186-.453.279-.801.279h-.432l-1.008-.198v2.268h-.63v-5.832zm1.764-.153l-1.134.63v2.511l1.026.198h.396c.312 0 .468-.162.468-.486v-2.367c0-.324-.156-.486-.468-.486h-.288zm2.524-.333l.9-.252h1.026c.354 0 .621.096.801.288.186.186.279.45.279.792v2.709l.099.711-.621.072-.099-.801-1.008.729h-.441c-.348 0-.615-.093-.801-.279-.186-.192-.279-.459-.279-.801v-.549c0-.342.093-.606.279-.792.186-.192.453-.288.801-.288h1.44v-.72c0-.324-.156-.486-.468-.486h-1.008l-.738.216-.162-.549zm.954 3.672h.261l1.161-.846v-.729h-1.422c-.312 0-.468.162-.468.486v.603c0 .324.156.486.468.486zm5.848 1.431v-1.485l-.999.63h-.441c-.354 0-.624-.093-.81-.279-.18-.186-.27-.453-.27-.801v-2.691l-.09-.711.612-.081.108.828v2.673c0 .324.156.486.468.486h.261l1.161-.756V339.5h.63v5.355c0 .81-.414 1.215-1.242 1.215h-.882l-.9-.243.162-.549.738.216h.945c.198 0 .339-.051.423-.153.084-.102.126-.264.126-.486zm5.032-1.593l.09.738-.612.081-.108-.819v-3.177h-1.458l-.189 2.889c-.036.384-.135.66-.297.828-.162.168-.432.252-.81.252h-.144v-.576h.144c.186 0 .312-.036.378-.108.072-.072.117-.21.135-.414l.234-3.456h2.637v3.762zm3.243-3.177h-.954c-.312 0-.468.162-.468.486v2.367c0 .324.156.486.468.486h.954c.312 0 .468-.162.468-.486v-2.367c0-.324-.156-.486-.468-.486zm.018 3.915h-.99c-.354 0-.624-.093-.81-.279-.18-.186-.27-.453-.27-.801v-2.34c0-.342.09-.606.27-.792.186-.192.456-.288.81-.288h.99c.354 0 .621.096.801.288.186.186.279.45.279.792v2.34c0 .348-.093.615-.279.801-.18.186-.447.279-.801.279zm2.895-.576h1.413c.312 0 .468-.162.468-.486v-.459c0-.324-.171-.486-.513-.486h-1.368v1.431zm1.224-3.339h-1.224v1.323h1.179c.342 0 .513-.162.513-.486v-.351c0-.324-.156-.486-.468-.486zm.207 3.915h-2.061v-4.5h1.872c.348 0 .615.096.801.288.186.186.279.45.279.792v.234c0 .444-.15.717-.45.819h-.081v.036h.09c.42.12.63.417.63.891v.36c0 .348-.093.615-.279.801-.18.186-.447.279-.801.279zm2.077-4.248l.9-.252h1.026c.354 0 .621.096.801.288.186.186.279.45.279.792v2.709l.099.711-.621.072-.099-.801-1.008.729h-.441c-.348 0-.615-.093-.801-.279-.186-.192-.279-.459-.279-.801v-.549c0-.342.093-.606.279-.792.186-.192.453-.288.801-.288h1.44v-.72c0-.324-.156-.486-.468-.486h-1.008l-.738.216-.162-.549zm.954 3.672h.261l1.161-.846v-.729h-1.422c-.312 0-.468.162-.468.486v.603c0 .324.156.486.468.486z" fill="#fff"/><path d="M158.908 220.402H19.401v120.265m-.401 0h104.23" stroke="#FFBCCC" stroke-width=".802"/><path d="M195.789 341.068h104.229m-.385-.4V220m-140.725.402h140.709" stroke="#fff" stroke-width=".802"/><path d="M68.98 288.9a6.94 6.94 0 01-3.629-.988 7.144 7.144 0 01-2.622-2.66c-.646-1.14-.969-2.394-.969-3.762 0-1.368.323-2.616.969-3.743a7.102 7.102 0 012.622-2.679 6.94 6.94 0 013.629-.988 6.94 6.94 0 013.629.988 7.102 7.102 0 012.622 2.679c.646 1.127.969 2.375.969 3.743 0 .823-.146 1.545-.437 2.166-.291.621-.678 1.096-1.159 1.425a2.68 2.68 0 01-1.539.494c-1.19 0-2.052-.253-2.584-.76a1.7 1.7 0 01-.456-.76 2.423 2.423 0 01-.399.76c-.405.507-.969.76-1.691.76-.925 0-1.678-.317-2.261-.95-.583-.633-.874-1.488-.874-2.565 0-1.444.412-2.565 1.235-3.363.836-.798 2.04-1.197 3.61-1.197H72.4v6.175c0 .469.095.823.285 1.064a.952.952 0 00.76.361c.304 0 .614-.139.931-.418.33-.291.602-.709.817-1.254.228-.545.342-1.191.342-1.938 0-1.267-.298-2.419-.893-3.458a6.455 6.455 0 00-2.375-2.47 6.211 6.211 0 00-3.287-.912c-1.19 0-2.286.304-3.287.912a6.595 6.595 0 00-2.394 2.47c-.583 1.039-.874 2.191-.874 3.458 0 1.267.291 2.426.874 3.477a6.63 6.63 0 002.394 2.451c1 .608 2.096.912 3.287.912.836 0 1.697-.19 2.584-.57.38-.177.722-.367 1.026-.57l.285.475c-.304.241-.671.45-1.102.627a6.82 6.82 0 01-2.793.608zm-.285-3.99c.279 0 .52-.19.722-.57a2.25 2.25 0 00.228-.57v-5.795c-1.393 0-2.09 1.362-2.09 4.085 0 1.013.108 1.742.323 2.185.215.443.488.665.817.665zm14.057 2.375c-1.57 0-2.806-.443-3.705-1.33-.887-.899-1.33-2.134-1.33-3.705 0-1.571.443-2.799 1.33-3.686.9-.899 2.134-1.349 3.705-1.349 1.57 0 2.8.45 3.686 1.349.9.887 1.349 2.115 1.349 3.686 0 1.571-.45 2.806-1.349 3.705-.887.887-2.115 1.33-3.686 1.33zm0-.38c.507 0 .931-.355 1.273-1.064.355-.709.532-1.906.532-3.591 0-1.685-.177-2.882-.532-3.591-.342-.709-.766-1.064-1.273-1.064-.507 0-.937.355-1.292 1.064-.342.709-.513 1.906-.513 3.591 0 1.685.171 2.882.513 3.591.355.709.785 1.064 1.292 1.064zm6.562-.19l1.14-.285v-12.16l-1.14-.285v-.285h2.47c1.14 0 1.71.57 1.71 1.71v6.65l3.515-3.705-1.425-.57v-.285h3.61v.285l-1.52.57-2.185 2.28 3.705 5.795.95.285V287h-2.47c-.608 0-1.102-.133-1.482-.399-.38-.266-.741-.671-1.083-1.216l-1.615-2.565v3.61l1.14.285V287h-5.32v-.285zm15.857.57c-.785 0-1.488-.171-2.109-.513a3.199 3.199 0 01-.741-.532 2.439 2.439 0 01-.665.646c-.114.076-.24.146-.38.209h-.475v-3.23h.76a5.39 5.39 0 00.722 1.482c.672.975 1.508 1.463 2.508 1.463.532 0 .931-.127 1.197-.38.279-.266.418-.646.418-1.14 0-.418-.19-.766-.57-1.045-.367-.291-.95-.646-1.748-1.064a21.994 21.994 0 01-1.672-.912 4.399 4.399 0 01-1.083-1.026c-.291-.418-.437-.906-.437-1.463 0-.76.323-1.374.969-1.843.659-.481 1.666-.722 3.021-.722.672 0 1.292.177 1.862.532.279.165.52.336.722.513.165-.228.387-.443.665-.646.216-.127.342-.196.38-.209h.475v3.23h-.76a6.795 6.795 0 00-.703-1.463c-.633-.988-1.387-1.482-2.261-1.482-.342 0-.633.127-.874.38-.24.253-.361.57-.361.95 0 .481.203.887.608 1.216.406.317 1.02.684 1.843 1.102.672.342 1.204.646 1.596.912.406.253.748.57 1.026.95.292.38.437.823.437 1.33 0 1.837-1.456 2.755-4.37 2.755zm9.501 0c-1.127 0-1.995-.241-2.603-.722-.608-.481-.912-1.096-.912-1.843 0-.494.108-.982.323-1.463a2.75 2.75 0 01.342-.627 22.984 22.984 0 011.691-.342c1.368-.228 2.578-.367 3.629-.418v-.57c0-1.406-.171-2.375-.513-2.907-.342-.532-.868-.798-1.577-.798-.266 0-.494.032-.684.095l-.266.095v2.85l-.247.057a4.33 4.33 0 01-.513.038c-.431 0-.779-.127-1.045-.38-.253-.266-.38-.614-.38-1.045 0-.583.291-1.077.874-1.482.595-.405 1.476-.608 2.641-.608.988 0 1.837.177 2.546.532.722.342 1.267.823 1.634 1.444.38.608.57 1.311.57 2.109v5.13l1.14.285V287h-1.71c-.76 0-1.349-.234-1.767-.703a2.012 2.012 0 01-.418-.722 4.205 4.205 0 01-.627.855c-.57.57-1.279.855-2.128.855zm.76-.665c.469 0 .893-.253 1.273-.76.139-.19.285-.443.437-.76v-2.755c-.583 0-1.14.032-1.672.095a26.33 26.33 0 01-.798.095 3.682 3.682 0 00-.19.57c-.127.481-.19.956-.19 1.425 0 .709.108 1.235.323 1.577.215.342.488.513.817.513zm7.039.095l1.14-.285v-8.36l-1.14-.285v-.285h1.71c.747 0 1.336.241 1.767.722.165.19.304.424.418.703.177-.329.386-.614.627-.855.57-.57 1.279-.855 2.128-.855.709 0 1.343.152 1.9.456.57.291 1.013.678 1.33 1.159.317.481.475.988.475 1.52v6.08l1.14.285V287h-2.47c-1.14 0-1.71-.57-1.71-1.71v-4.94c0-.798-.146-1.406-.437-1.824-.279-.431-.608-.646-.988-.646-.481 0-.912.253-1.292.76a3.095 3.095 0 00-.418.76v7.03l1.14.285V287h-5.32v-.285zm16.341.57c-1.128 0-1.995-.241-2.603-.722-.608-.481-.912-1.096-.912-1.843 0-.494.107-.982.323-1.463.088-.228.202-.437.342-.627a22.984 22.984 0 011.691-.342c1.368-.228 2.577-.367 3.629-.418v-.57c0-1.406-.171-2.375-.513-2.907-.342-.532-.868-.798-1.577-.798-.266 0-.494.032-.684.095l-.266.095v2.85l-.247.057a4.33 4.33 0 01-.513.038c-.431 0-.779-.127-1.045-.38-.254-.266-.38-.614-.38-1.045 0-.583.291-1.077.874-1.482.595-.405 1.475-.608 2.641-.608.988 0 1.836.177 2.546.532.722.342 1.266.823 1.634 1.444.38.608.57 1.311.57 2.109v5.13l1.14.285V287h-1.71c-.76 0-1.349-.234-1.767-.703a1.997 1.997 0 01-.418-.722 4.282 4.282 0 01-.627.855c-.57.57-1.28.855-2.128.855zm.76-.665c.468 0 .893-.253 1.273-.76.139-.19.285-.443.437-.76v-2.755c-.583 0-1.14.032-1.672.095a26.33 26.33 0 01-.798.095 3.578 3.578 0 00-.19.57c-.127.481-.19.956-.19 1.425 0 .709.107 1.235.323 1.577.215.342.487.513.817.513zm7.039.095l1.14-.285v-12.16l-1.14-.285v-.285h2.47c1.14 0 1.71.57 1.71 1.71v6.65l3.515-3.705-1.425-.57v-.285h3.61v.285l-1.52.57-2.185 2.28 3.705 5.795.95.285V287h-2.47c-.608 0-1.102-.133-1.482-.399-.38-.266-.741-.671-1.083-1.216l-1.615-2.565v3.61l1.14.285V287h-5.32v-.285z" fill="#FFBCCC"/><path d="M157.243 288.9v-.855h7.41v.855h-7.41zm8.163-2.185l1.14-.285v-8.36l-1.14-.285v-.285h1.71c.748 0 1.337.241 1.767.722.165.19.304.424.418.703.19-.355.393-.64.608-.855.57-.57 1.223-.855 1.957-.855.735 0 1.381.165 1.938.494.558.317.988.754 1.292 1.311.19-.367.393-.665.608-.893.583-.608 1.235-.912 1.957-.912.672 0 1.273.139 1.805.418.545.279.963.659 1.254 1.14.304.481.456 1.007.456 1.577v6.08l1.14.285V287h-2.47c-1.14 0-1.71-.57-1.71-1.71v-4.94c0-.823-.126-1.438-.38-1.843-.253-.418-.538-.627-.855-.627-.367 0-.741.253-1.121.76a5.434 5.434 0 00-.399.76v7.03l1.14.285V287h-5.32v-.285l1.14-.285v-6.08c0-.823-.126-1.438-.38-1.843-.253-.418-.538-.627-.855-.627-.367 0-.741.253-1.121.76a5.434 5.434 0 00-.399.76v7.03l1.14.285V287h-5.32v-.285zm21.759.57c-1.127 0-1.995-.241-2.603-.722-.608-.481-.912-1.096-.912-1.843 0-.494.108-.982.323-1.463a2.75 2.75 0 01.342-.627 23.09 23.09 0 011.691-.342c1.368-.228 2.578-.367 3.629-.418v-.57c0-1.406-.171-2.375-.513-2.907-.342-.532-.867-.798-1.577-.798-.266 0-.494.032-.684.095l-.266.095v2.85l-.247.057a4.3 4.3 0 01-.513.038c-.43 0-.779-.127-1.045-.38-.253-.266-.38-.614-.38-1.045 0-.583.292-1.077.874-1.482.596-.405 1.476-.608 2.641-.608.988 0 1.837.177 2.546.532.722.342 1.267.823 1.634 1.444.38.608.57 1.311.57 2.109v5.13l1.14.285V287h-1.71c-.76 0-1.349-.234-1.767-.703a2.026 2.026 0 01-.418-.722 4.205 4.205 0 01-.627.855c-.57.57-1.279.855-2.128.855zm.76-.665c.469 0 .893-.253 1.273-.76.14-.19.285-.443.437-.76v-2.755c-.582 0-1.14.032-1.672.095a25.57 25.57 0 01-.798.095 3.793 3.793 0 00-.19.57c-.126.481-.19.956-.19 1.425 0 .709.108 1.235.323 1.577.216.342.488.513.817.513zm11.504.665c-.785 0-1.488-.171-2.109-.513a3.199 3.199 0 01-.741-.532 2.453 2.453 0 01-.665.646 2.677 2.677 0 01-.38.209h-.475v-3.23h.76c.165.532.405 1.026.722 1.482.671.975 1.507 1.463 2.508 1.463.532 0 .931-.127 1.197-.38.279-.266.418-.646.418-1.14 0-.418-.19-.766-.57-1.045-.367-.291-.95-.646-1.748-1.064a21.994 21.994 0 01-1.672-.912 4.399 4.399 0 01-1.083-1.026c-.291-.418-.437-.906-.437-1.463 0-.76.323-1.374.969-1.843.659-.481 1.666-.722 3.021-.722.671 0 1.292.177 1.862.532.279.165.519.336.722.513.165-.228.386-.443.665-.646.215-.127.342-.196.38-.209h.475v3.23h-.76a6.795 6.795 0 00-.703-1.463c-.633-.988-1.387-1.482-2.261-1.482-.342 0-.633.127-.874.38s-.361.57-.361.95c0 .481.203.887.608 1.216.405.317 1.02.684 1.843 1.102.671.342 1.203.646 1.596.912.405.253.747.57 1.026.95.291.38.437.823.437 1.33 0 1.837-1.457 2.755-4.37 2.755zm10.736 0c-.836 0-1.564-.152-2.185-.456-.608-.304-1.077-.722-1.406-1.254a3.363 3.363 0 01-.494-1.805v-5.795h-1.33v-.475h1.33v-.95c0-1.14.57-1.71 1.71-1.71h1.33v2.66h2.66v.475h-2.66v5.795c0 1.165.12 1.963.361 2.394.241.431.595.646 1.064.646.456 0 .855-.222 1.197-.665.342-.443.513-1.045.513-1.805h.475c0 .937-.234 1.666-.703 2.185-.469.507-1.089.76-1.862.76zm8.744 0c-1.622 0-2.882-.443-3.781-1.33-.9-.899-1.349-2.134-1.349-3.705 0-1.026.196-1.919.589-2.679.392-.76.937-1.343 1.634-1.748.709-.405 1.52-.608 2.432-.608.912 0 1.71.171 2.394.513.696.342 1.228.804 1.596 1.387.38.57.57 1.203.57 1.9 0 .317-.032.589-.095.817l-.095.323a20.71 20.71 0 01-1.767.285 28.45 28.45 0 01-4.028.285c0 1.469.202 2.521.608 3.154.405.621.962.931 1.672.931a2.81 2.81 0 002.375-1.273c.253-.393.38-.792.38-1.197h.475c0 .507-.152.988-.456 1.444-.304.456-.729.823-1.273 1.102-.545.266-1.172.399-1.881.399zm-1.9-5.035c.81 0 1.469-.032 1.976-.095.215-.013.443-.044.684-.095.012-.063.044-.203.095-.418.063-.317.095-.652.095-1.007 0-1.051-.14-1.818-.418-2.299-.279-.494-.615-.741-1.007-.741-.95 0-1.425 1.552-1.425 4.655zm7.401 4.465l1.14-.285v-8.36l-1.14-.285v-.285h1.71c.748 0 1.337.241 1.767.722.165.19.304.424.418.703.19-.279.425-.532.703-.76a3.32 3.32 0 012.128-.76c.672 0 1.172.158 1.501.475.342.304.513.747.513 1.33 0 .431-.133.779-.399 1.045-.253.253-.595.38-1.026.38-.177 0-.354-.013-.532-.038l-.228-.057v-2.66c-.646 0-1.235.253-1.767.76a4.009 4.009 0 00-.608.76v7.03l1.14.285V287h-5.32v-.285z" fill="#fff"/><path d="M65.351 287.912l.005-.009-.005.009zm-2.622-2.66l-.009.005.009-.005zm0-7.505l.009.005-.009-.005zm2.622-2.679l.005.009-.005-.009zm7.258 0l-.005.009.005-.009zm2.622 2.679l-.009.005.009-.005zm.532 5.909l-.01-.004.01.004zm-1.159 1.425l-.006-.008.006.008zm-4.123-.266l-.007.007.007-.007zm-.456-.76l.01-.003-.01-.032-.01.032.01.003zm-.399.76l.008.006-.008-.006zm-3.952-.19l-.007.007.007-.007zm.361-5.928l-.007-.007.007.007zm6.65 6.042l-.008.006.008-.006zm1.691-.057l.007.008v-.001l-.007-.007zm.817-1.254l-.01-.004.01.004zm-.551-5.396l-.009.005.009-.005zm-2.375-2.47l-.005.009.005-.009zm-6.574 0l.005.009-.005-.009zm-2.394 2.47l-.009-.005.009.005zm0 6.935l-.009.005.009-.005zm2.394 2.451l.005-.009-.005.009zm5.871.342l.004.009-.004-.009zm1.026-.57l.009-.005-.006-.009-.008.006.005.008zm.285.475l.048.061-.04-.066-.008.005zm-1.102.627l-.004-.009.004.009zm-2.356-3.952l-.009-.005.009.005zm.228-.57l.01.003v-.003h-.01zm-1.767.475l.009-.004-.009.004zm1.102 4.645a6.93 6.93 0 01-3.624-.987l-.01.018a6.958 6.958 0 003.634.989v-.02zm-3.624-.987a7.128 7.128 0 01-2.618-2.656l-.018.01a7.153 7.153 0 002.626 2.664l.01-.018zm-2.618-2.656c-.645-1.138-.968-2.391-.968-3.757h-.02c0 1.37.323 2.625.97 3.767l.018-.01zm-.968-3.757c0-1.366.323-2.612.968-3.738l-.018-.01c-.647 1.129-.97 2.378-.97 3.748h.02zm.968-3.738a7.087 7.087 0 012.618-2.675l-.01-.018a7.117 7.117 0 00-2.626 2.683l.018.01zm2.618-2.675a6.93 6.93 0 013.624-.987v-.02c-1.32 0-2.53.33-3.634.989l.01.018zm3.624-.987a6.93 6.93 0 013.624.987l.01-.018a6.958 6.958 0 00-3.634-.989v.02zm3.624.987a7.087 7.087 0 012.618 2.675l.018-.01a7.117 7.117 0 00-2.626-2.683l-.01.018zm2.618 2.675c.645 1.126.968 2.372.968 3.738h.02c0-1.37-.323-2.619-.97-3.748l-.018.01zm.968 3.738c0 .822-.145 1.543-.436 2.162l.018.008c.292-.622.438-1.345.438-2.17h-.02zm-.436 2.162c-.29.619-.676 1.093-1.156 1.421l.012.016c.483-.33.87-.807 1.162-1.429l-.018-.008zm-1.156 1.421a2.67 2.67 0 01-1.533.492v.02c.547 0 1.062-.165 1.545-.496l-.012-.016zm-1.533.492c-1.19 0-2.048-.253-2.577-.757l-.014.014c.535.51 1.4.763 2.591.763v-.02zm-2.577-.757a1.693 1.693 0 01-.453-.756l-.02.006c.077.28.23.535.459.764l.014-.014zm-.472-.756a2.41 2.41 0 01-.398.757l.016.012c.178-.229.311-.483.4-.763l-.019-.006zm-.398.757c-.403.504-.964.756-1.683.756v.02c.725 0 1.291-.254 1.699-.764l-.016-.012zm-1.683.756c-.922 0-1.673-.316-2.254-.947l-.014.014c.584.635 1.34.953 2.268.953v-.02zm-2.254-.947c-.58-.631-.871-1.483-.871-2.558h-.02c0 1.079.292 1.936.877 2.572l.014-.014zm-.871-2.558c0-1.442.411-2.56 1.232-3.356l-.014-.014c-.826.8-1.238 1.924-1.238 3.37h.02zm1.232-3.356c.834-.795 2.034-1.194 3.603-1.194v-.02c-1.572 0-2.778.399-3.617 1.2l.014.014zm3.603-1.194H72.4v-.02h-2.755v.02zm2.745-.01v6.175h.02V277.5h-.02zm0 6.175c0 .47.095.827.287 1.07l.016-.012c-.188-.238-.283-.59-.283-1.058h-.02zm.287 1.07c.205.243.46.365.768.365v-.02a.945.945 0 01-.752-.357l-.016.012zm.768.365c.307 0 .62-.141.938-.42l-.014-.016c-.315.278-.623.416-.924.416v.02zm.938-.421c.33-.292.604-.712.82-1.257l-.02-.008c-.214.544-.486.961-.814 1.251l.014.014zm.82-1.257c.228-.546.342-1.194.342-1.942h-.02c0 .746-.114 1.391-.341 1.934l.018.008zm.342-1.942c0-1.268-.298-2.423-.894-3.463l-.018.01c.595 1.037.892 2.188.892 3.453h.02zm-.894-3.463a6.468 6.468 0 00-2.379-2.474l-.01.018a6.44 6.44 0 012.371 2.466l.018-.01zm-2.379-2.474a6.22 6.22 0 00-3.292-.913v.02c1.189 0 2.283.304 3.282.911l.01-.018zm-3.292-.913a6.22 6.22 0 00-3.292.913l.01.018c1-.607 2.093-.911 3.282-.911v-.02zm-3.292.913a6.611 6.611 0 00-2.398 2.474l.018.01a6.581 6.581 0 012.39-2.466l-.01-.018zm-2.398 2.474c-.583 1.04-.875 2.195-.875 3.463h.02c0-1.265.29-2.416.873-3.453l-.018-.01zm-.875 3.463c0 1.268.292 2.429.875 3.482l.018-.01c-.582-1.05-.873-2.207-.873-3.472h-.02zm.875 3.482a6.654 6.654 0 002.398 2.455l.01-.018a6.624 6.624 0 01-2.39-2.447l-.018.01zm2.398 2.455a6.22 6.22 0 003.292.913v-.02a6.202 6.202 0 01-3.282-.911l-.01.018zm3.292.913c.837 0 1.7-.19 2.588-.571l-.008-.018c-.886.379-1.746.569-2.58.569v.02zm2.588-.571c.38-.177.723-.368 1.028-.571l-.011-.016a7.796 7.796 0 01-1.025.569l.008.018zm1.013-.574l.285.475.018-.01-.285-.475-.018.01zm.288.462c-.303.24-.67.449-1.1.626l.008.018c.431-.177.8-.387 1.104-.628l-.012-.016zm-1.1.626a6.8 6.8 0 01-2.789.607v.02c.951 0 1.884-.203 2.797-.609l-.008-.018zm-3.074-3.363c.284 0 .528-.194.73-.575l-.017-.01c-.202.379-.44.565-.713.565v.02zm.73-.575a2.24 2.24 0 00.23-.573l-.02-.004c-.05.201-.126.391-.227.567l.018.01zm.23-.575v-5.795h-.02v5.795h.02zm-.01-5.805c-.35 0-.657.086-.92.257s-.482.428-.656.77c-.35.683-.524 1.706-.524 3.068h.02c0-1.361.174-2.38.521-3.059.174-.339.39-.593.65-.762.26-.169.562-.254.909-.254v-.02zm-2.1 4.095c0 1.014.108 1.744.324 2.189l.018-.008c-.214-.442-.322-1.168-.322-2.181h-.02zm.324 2.189c.216.445.491.671.826.671v-.02c-.324 0-.593-.218-.808-.659l-.018.008zm11.178 1.706l-.007.007.007-.007zm0-7.391l-.007-.007.007.007zm7.391 0l-.007.007.007-.007zm0 7.391l-.007-.007.007.007zm-2.413-.114l-.009-.004.009.004zm0-7.182l-.009.004.009-.004zm-2.565 0l-.009-.004.009.004zm0 7.182l-.009.004.009-.004zm1.292 1.434c-1.569 0-2.8-.443-3.698-1.327l-.014.014c.902.889 2.14 1.333 3.712 1.333v-.02zm-3.698-1.327c-.884-.897-1.327-2.129-1.327-3.698h-.02c0 1.573.444 2.81 1.333 3.712l.014-.014zm-1.327-3.698c0-1.569.443-2.795 1.327-3.679l-.014-.014c-.889.889-1.333 2.12-1.333 3.693h.02zm1.327-3.679c.897-.897 2.13-1.346 3.698-1.346v-.02c-1.573 0-2.81.45-3.712 1.352l.014.014zm3.698-1.346c1.569 0 2.795.449 3.679 1.346l.014-.014c-.889-.902-2.12-1.352-3.693-1.352v.02zm3.679 1.346c.897.884 1.346 2.11 1.346 3.679h.02c0-1.573-.45-2.804-1.352-3.693l-.014.014zm1.346 3.679c0 1.569-.449 2.801-1.346 3.698l.014.014c.902-.902 1.352-2.139 1.352-3.712h-.02zm-1.346 3.698c-.884.884-2.11 1.327-3.679 1.327v.02c1.573 0 2.804-.444 3.693-1.333l-.014-.014zm-3.679.967c.512 0 .94-.359 1.282-1.07l-.018-.008c-.341.708-.763 1.058-1.264 1.058v.02zm1.282-1.07c.356-.711.533-1.91.533-3.595h-.02c0 1.684-.177 2.879-.53 3.587l.017.008zm.533-3.595c0-1.685-.177-2.884-.533-3.595l-.018.008c.354.708.531 1.903.531 3.587h.02zm-.533-3.595c-.343-.711-.77-1.07-1.282-1.07v.02c.501 0 .923.35 1.264 1.058l.018-.008zm-1.282-1.07c-.512 0-.946.359-1.3 1.07l.017.008c.354-.708.782-1.058 1.283-1.058v-.02zm-1.301 1.07c-.343.711-.514 1.91-.514 3.595h.02c0-1.684.171-2.88.512-3.587l-.018-.008zm-.514 3.595c0 1.685.171 2.884.514 3.595l.018-.008c-.34-.707-.512-1.903-.512-3.587h-.02zm.514 3.595c.355.711.789 1.07 1.301 1.07v-.02c-.501 0-.929-.35-1.283-1.058l-.018.008zm7.863.87l-.01-.04v.04h.01zm1.14-.285l.01.04v-.04h-.01zm0-12.16h.04l-.038-.01-.002.01zm-1.14-.285h-.041l.038.01.003-.01zm4.18 8.075h-.01v.025l.017-.018-.007-.007zm3.515-3.705l.007.007.01-.011-.014-.005-.003.009zm-1.425-.57h-.027l.023.009.004-.009zm3.61 0l.01.027v-.027h-.01zm-1.52.57l-.004-.01-.004.003.008.007zm-2.185 2.28l-.03-.029.021.034.009-.005zm3.705 5.795l-.011.007.008.003.003-.01zm.95.285h.035l-.032-.01-.003.01zm-3.952-.114l.005-.008-.005.008zm-1.083-1.216l.008-.005-.008.005zm-1.615-2.565l.008-.005-.018-.03v.035h.01zm0 3.61h-.041l.038.01.003-.01zm1.14.285h.04l-.038-.01-.002.01zm-5.318.01l1.14-.285-.005-.02-1.14.285.005.02zm1.148-.295v-12.16h-.02v12.16h.02zm-.008-12.17l-1.14-.285-.005.02 1.14.285.005-.02zm-1.132-.275v-.285h-.02v.285h.02zm-.01-.275h2.47v-.02h-2.47v.02zm2.47 0c.568 0 .993.142 1.275.425.283.282.425.707.425 1.275h.02c0-.572-.143-1.002-.43-1.29-.288-.287-.719-.43-1.29-.43v.02zm1.7 1.7v6.65h.02v-6.65h-.02zm.017 6.657l3.515-3.705-.015-.014-3.514 3.705.014.014zm3.511-3.721l-1.425-.57-.007.018 1.425.57.007-.018zm-1.418-.561v-.285h-.02v.285h.02zm-.01-.275h3.61v-.02h-3.61v.02zm3.6-.01v.285h.02v-.285h-.02zm.006.276l-1.52.57.007.018 1.52-.57-.007-.018zm-1.523.572l-2.186 2.28.015.014 2.185-2.28-.014-.014zm-2.187 2.292l3.705 5.795.017-.01-3.705-5.795-.017.01zm3.71 5.8l.951.285.006-.02-.95-.285-.006.02zm.944.275V287h.02v-.285h-.02zm.01.275h-2.47v.02h2.47v-.02zm-2.47 0c-.607 0-1.099-.133-1.477-.397l-.011.016c.382.268.878.401 1.488.401v-.02zm-1.477-.397c-.378-.265-.738-.669-1.08-1.213l-.017.01c.343.546.705.952 1.086 1.219l.011-.016zm-1.08-1.213l-1.615-2.565-.017.01 1.615 2.565.017-.01zm-1.633-2.56v3.61h.02v-3.61h-.02zm.007 3.62l1.14.285.005-.02-1.14-.285-.005.02zm1.133.275V287h.02v-.285h-.02zm.01.275h-5.32v.02h5.32v-.02zm-5.31.01v-.285h-.02V287h.02zm13.738-.228l.005-.009-.005.009zm-.741-.532l.007-.007-.008-.008-.007.009.008.006zm-.665.646l-.005-.008.005.008zm-.38.209v.011l.004-.002-.004-.009zm.285-3.23l.033-.01h-.033v.01zm.722 1.482l.009-.006-.009.006zm3.705 1.083l.007.007-.007-.007zm-.152-2.185l-.006.008.006-.008zm-1.748-1.064l.005-.009-.005.009zm-1.672-.912l-.005.008v.001l.005-.009zm-1.083-1.026l-.008.006.008-.006zm.532-3.306l.006.008-.006-.008zm4.883-.19l-.005.008v.001l.005-.009zm.722.513l-.006.008.008.007.006-.009-.008-.006zm.665-.646l-.005-.009-.001.001.006.008zm.38-.209v-.011l-.003.002.003.009zm-.285 3.23l-.028.01h.028v-.01zm-.703-1.463l-.008.005.008-.005zm-3.135-1.102l-.007-.007.007.007zm.247 2.166l-.006.008.006-.008zm1.843 1.102l.005-.009-.005.009zm1.596.912l-.005.008.005-.008zm1.026.95l-.008.006.008-.006zm-3.933 4.075c-.784 0-1.485-.171-2.104-.512l-.01.018c.623.343 1.327.514 2.114.514v-.02zm-2.104-.512a3.202 3.202 0 01-.739-.53l-.014.014c.191.191.439.369.744.534l.009-.018zm-.754-.529a2.464 2.464 0 01-.662.644l.011.016c.242-.152.464-.369.667-.648l-.016-.012zm-.662.644c-.114.075-.24.145-.379.208l.008.018c.14-.063.267-.133.382-.21l-.011-.016zm-.375.207h-.475v.02h.475v-.02zm-.465.01v-3.23h-.02v3.23h.02zm-.01-3.22h.76v-.02h-.76v.02zm.751-.007c.165.533.406 1.028.723 1.485l.017-.012a5.315 5.315 0 01-.721-1.479l-.019.006zm.723 1.485c.673.977 1.512 1.467 2.516 1.467v-.02c-.996 0-1.83-.485-2.499-1.459l-.017.012zm2.516 1.467c.534 0 .936-.127 1.204-.383l-.014-.014c-.263.251-.659.377-1.19.377v.02zm1.204-.383c.281-.268.421-.651.421-1.147h-.02c0 .492-.138.869-.415 1.133l.014.014zm.421-1.147c0-.422-.192-.773-.574-1.053l-.012.016c.378.277.566.623.566 1.037h.02zm-.573-1.053c-.369-.292-.952-.647-1.75-1.065l-.009.018c.798.418 1.379.772 1.746 1.063l.013-.016zm-1.75-1.065a21.755 21.755 0 01-1.671-.912l-.011.018c.431.266.989.57 1.673.912l.009-.018zm-1.671-.911a4.4 4.4 0 01-1.081-1.024l-.016.012c.305.406.667.749 1.086 1.028l.011-.016zm-1.081-1.024c-.29-.416-.435-.902-.435-1.457h-.02c0 .559.146 1.049.439 1.469l.016-.012zm-.435-1.457c0-.757.322-1.368.965-1.835l-.012-.016c-.648.47-.973 1.088-.973 1.851h.02zm.965-1.835c.656-.479 1.661-.72 3.015-.72v-.02c-1.356 0-2.365.241-3.027.724l.012.016zm3.015-.72c.67 0 1.289.177 1.857.53l.011-.016a3.47 3.47 0 00-1.868-.534v.02zm1.857.531c.278.164.519.335.721.512l.013-.016a4.886 4.886 0 00-.724-.514l-.01.018zm.735.51c.164-.227.385-.442.663-.644l-.012-.016a2.97 2.97 0 00-.667.648l.016.012zm.662-.643a6.84 6.84 0 01.378-.209l-.006-.018a.874.874 0 00-.125.062c-.063.035-.149.084-.257.147l.01.018zm.375-.208h.475v-.02h-.475v.02zm.465-.01v3.23h.02v-3.23h-.02zm.01 3.22h-.76v.02h.76v-.02zm-.75.007a6.838 6.838 0 00-.704-1.465l-.017.01c.278.43.512.917.702 1.461l.019-.006zm-.704-1.465c-.635-.99-1.391-1.487-2.27-1.487v.02c.87 0 1.621.491 2.253 1.477l.017-.01zm-2.27-1.487c-.345 0-.638.128-.881.383l.015.014c.238-.252.527-.377.866-.377v-.02zm-.881.383c-.243.255-.364.575-.364.957h.02c0-.378.12-.692.359-.943l-.015-.014zm-.364.957c0 .485.205.893.612 1.224l.013-.016c-.404-.327-.605-.73-.605-1.208h-.02zm.612 1.224c.406.317 1.021.685 1.845 1.103l.009-.018c-.823-.418-1.437-.785-1.842-1.101l-.012.016zm1.845 1.103c.671.342 1.202.646 1.595.911l.011-.016c-.393-.267-.926-.571-1.597-.913l-.009.018zm1.595.911c.404.253.745.569 1.023.948l.016-.012a3.68 3.68 0 00-1.028-.952l-.011.016zm1.023.948c.29.378.435.819.435 1.324h.02c0-.509-.146-.954-.439-1.336l-.016.012zm.435 1.324c0 .915-.362 1.601-1.088 2.058-.726.457-1.816.687-3.272.687v.02c1.458 0 2.552-.23 3.283-.69.732-.461 1.097-1.154 1.097-2.075h-.02zm2.538 2.033l-.006.008.006-.008zm-.589-3.306l.009.004-.009-.004zm.342-.627l-.003-.013-.005.007.008.006zm1.691-.342l-.002-.01.002.01zm3.629-.418l.01.207v-.207h-.01zm-.513-3.477l.008-.005-.008.005zm-2.261-.703l-.003-.009.003.009zm-.266.095l-.01-.028v.028h.01zm0 2.85l.01.043v-.043h-.01zm-.247.057l.001.01h.001l-.002-.01zm-1.558-.342l-.007.007.007-.007zm.494-2.527l-.006-.008.006.008zm5.187-.076l-.004.009.004-.009zm1.634 1.444l-.009.005h.001l.008-.005zm.57 7.239h-.041l.039.01.002-.01zm1.14.285h.041l-.039-.01-.002.01zm-3.477-.418l.007-.007-.007.007zm-.418-.722l.009-.003-.007-.021-.011.019.009.005zm-.627.855l.007.007-.007-.007zm-.095-.57l.008.006-.008-.006zm.437-.76l.01.005v-.005h-.01zm-1.672-2.66l-.001-.01.001.01zm-.798.095l-.002-.02-.007.016.009.004zm-.19.57l.01.003-.01-.003zm.133 3.002l.008-.005-.008.005zm.057 1.168c-1.126 0-1.991-.24-2.597-.72l-.012.016c.61.483 1.48.724 2.609.724v-.02zm-2.597-.72c-.605-.479-.908-1.091-.908-1.835h-.02c0 .751.306 1.368.916 1.851l.012-.016zm-.908-1.835c0-.492.107-.979.322-1.459l-.018-.008a3.556 3.556 0 00-.324 1.467h.02zm.322-1.459c.089-.228.202-.436.341-.625l-.016-.012a2.75 2.75 0 00-.343.629l.018.008zm.335-.621a22.984 22.984 0 011.691-.342l-.004-.02c-.608.102-1.172.216-1.691.342l.004.02zm1.691-.342c1.367-.228 2.577-.367 3.628-.418l-.001-.02c-1.052.051-2.262.19-3.631.418l.004.02zm3.637-.428v-.57h-.02v.57h.02zm0-.57c0-.703-.043-1.298-.128-1.783-.086-.485-.215-.862-.387-1.129l-.016.01c.17.265.298.639.383 1.122.085.484.128 1.077.128 1.78h.02zm-.515-2.912c-.344-.536-.873-.803-1.585-.803v.02c.706 0 1.229.265 1.569.793l.016-.01zm-1.585-.803c-.267 0-.496.032-.687.096l.006.018c.189-.062.416-.094.681-.094v-.02zm-.687.096l-.266.095.006.018.266-.095-.006-.018zm-.273.104v2.85h.02v-2.85h-.02zm.008 2.84l-.247.057.004.02.247-.057-.004-.02zm-.246.057a4.315 4.315 0 01-.512.038v.02c.14 0 .311-.013.514-.038l-.002-.02zm-.512.038c-.429 0-.774-.126-1.038-.377l-.014.014c.268.256.619.383 1.052.383v-.02zm-1.038-.377c-.251-.264-.377-.609-.377-1.038h-.02c0 .433.127.784.383 1.052l.014-.014zm-.377-1.038c0-.579.289-1.07.87-1.474l-.012-.016c-.584.407-.878.903-.878 1.49h.02zm.87-1.474c.593-.403 1.471-.606 2.635-.606v-.02c-1.166 0-2.049.203-2.647.61l.012.016zm2.635-.606c.987 0 1.834.177 2.542.531l.009-.018c-.712-.355-1.562-.533-2.551-.533v.02zm2.542.531c.72.341 1.263.821 1.629 1.44l.018-.01c-.369-.623-.915-1.105-1.639-1.448l-.008.018zm1.63 1.44c.378.607.568 1.308.568 2.104h.02c0-.8-.19-1.505-.571-2.114l-.017.01zm.568 2.104v5.13h.02v-5.13h-.02zm.008 5.14l1.14.285.004-.02-1.14-.285-.004.02zm1.132.275V287h.02v-.285h-.02zm.01.275h-1.71v.02h1.71v-.02zm-1.71 0c-.758 0-1.344-.234-1.76-.7l-.014.014c.42.471 1.012.706 1.774.706v-.02zm-1.76-.7a2.004 2.004 0 01-.416-.718l-.018.006c.101.293.241.535.42.726l.014-.014zm-.434-.72a4.25 4.25 0 01-.625.853l.014.014c.242-.254.451-.54.629-.857l-.018-.01zm-.625.853c-.568.568-1.275.852-2.121.852v.02c.851 0 1.563-.286 2.135-.858l-.014-.014zm-1.361.207c.473 0 .9-.256 1.281-.764l-.016-.012c-.379.505-.8.756-1.265.756v.02zm1.281-.764c.14-.191.286-.445.438-.762l-.018-.008a4.858 4.858 0 01-.436.758l.016.012zm.439-.766v-2.755h-.02v2.755h.02zm-.01-2.765c-.583 0-1.141.032-1.673.095l.002.02a14.21 14.21 0 011.671-.095v-.02zm-1.673.095a26.33 26.33 0 01-.798.095l.002.02c.139-.013.406-.044.798-.095l-.002-.02zm-.806.101c-.064.14-.127.331-.191.571l.02.006c.063-.241.126-.43.189-.569l-.018-.008zm-.191.571c-.127.483-.19.958-.19 1.428h.02c0-.468.063-.942.19-1.422l-.02-.006zm-.19 1.428c0 .71.108 1.238.325 1.582l.016-.01c-.213-.34-.321-.863-.321-1.572h-.02zm.325 1.582c.216.344.491.518.825.518v-.02c-.325 0-.595-.168-.809-.508l-.016.01zm7.864.603l-.01-.04v.04h.01zm1.14-.285l.01.04v-.04h-.01zm0-8.36h.041l-.039-.01-.002.01zm-1.14-.285h-.041l.039.01.002-.01zm3.477.437l.007-.007-.007.007zm.418.703l-.009.004.008.019.01-.018-.009-.005zm.627-.855l.007.007-.007-.007zm4.028-.399l-.005.009.005-.009zm1.33 1.159l-.008.005.008-.005zm.475 7.6h-.041l.039.01.002-.01zm1.14.285h.041l-.039-.01-.002.01zm-4.617-8.189l-.008.005v.001l.008-.006zm-2.28.114l.008.006-.008-.006zm-.418.76l-.01-.004v.004h.01zm0 7.03h-.041l.039.01.002-.01zm1.14.285h.041l-.039-.01-.002.01zm-5.318.01l1.14-.285-.004-.02-1.14.285.004.02zm1.148-.295v-8.36h-.02v8.36h.02zm-.008-8.37l-1.14-.285-.004.02 1.14.285.004-.02zm-1.132-.275v-.285h-.02v.285h.02zm-.01-.275h1.71v-.02h-1.71v.02zm1.71 0c.745 0 1.331.24 1.759.719l.015-.014c-.432-.483-1.024-.725-1.774-.725v.02zm1.759.719c.164.189.303.422.417.7l.018-.008a2.52 2.52 0 00-.42-.706l-.015.014zm.435.701c.177-.329.385-.613.625-.853l-.014-.014a3.63 3.63 0 00-.629.857l.018.01zm.625-.853c.568-.568 1.275-.852 2.121-.852v-.02c-.851 0-1.563.286-2.135.858l.014.014zm2.121-.852c.708 0 1.339.152 1.895.455l.01-.018c-.559-.305-1.194-.457-1.905-.457v.02zm1.895.455c.569.291 1.011.676 1.327 1.155l.016-.01c-.317-.483-.762-.871-1.334-1.163l-.009.018zm1.327 1.155c.315.48.473.985.473 1.515h.02c0-.534-.159-1.043-.477-1.525l-.016.01zm.473 1.515v6.08h.02v-6.08h-.02zm.008 6.09l1.14.285.004-.02-1.14-.285-.004.02zm1.132.275V287h.02v-.285h-.02zm.01.275h-2.47v.02h2.47v-.02zm-2.47 0c-.569 0-.993-.142-1.275-.425-.283-.282-.425-.707-.425-1.275h-.02c0 .572.143 1.002.43 1.29.288.287.718.43 1.29.43v-.02zm-1.7-1.7v-4.94h-.02v4.94h.02zm0-4.94c0-.799-.146-1.409-.439-1.83l-.016.012c.289.415.435 1.021.435 1.818h.02zm-.439-1.829c-.279-.433-.612-.651-.996-.651v.02c.375 0 .702.213.98.641l.016-.01zm-.996-.651c-.485 0-.919.256-1.3.764l.016.012c.379-.505.807-.756 1.284-.756v-.02zm-1.3.764c-.165.216-.305.47-.419.762l.018.008c.114-.291.253-.543.417-.758l-.016-.012zm-.42.766v7.03h.02v-7.03h-.02zm.008 7.04l1.14.285.004-.02-1.14-.285-.004.02zm1.132.275V287h.02v-.285h-.02zm.01.275h-5.32v.02h5.32v-.02zm-5.31.01v-.285h-.02V287h.02zm13.728-.437l-.007.008.007-.008zm-.589-3.306l.009.004-.009-.004zm.342-.627l-.003-.013-.005.007.008.006zm1.691-.342l-.002-.01.002.01zm3.629-.418l.01.207v-.207h-.01zm-.513-3.477l.008-.005-.008.005zm-2.261-.703l-.003-.009h-.001l.004.009zm-.266.095l-.01-.028v.028h.01zm0 2.85l.01.043v-.043h-.01zm-.247.057l.001.01h.001l-.002-.01zm-1.558-.342l-.008.007h.001l.007-.007zm.494-2.527l-.006-.008.006.008zm5.187-.076l-.005.009.005-.009zm1.634 1.444l-.009.005.009-.005zm.57 7.239h-.042l.039.01.003-.01zm1.14.285h.041l-.039-.01-.002.01zm-3.477-.418l.007-.007-.007.007zm-.418-.722l.009-.003-.007-.021-.011.019.009.005zm-.627.855l.007.007-.007-.007zm-.095-.57l.008.006-.008-.006zm.437-.76l.01.005v-.005h-.01zm-1.672-2.66l-.002-.01.002.01zm-.798.095l-.002-.02-.007.016.009.004zm-.19.57l.009.003-.009-.003zm.133 3.002l.008-.005-.008.005zm.057 1.168c-1.126 0-1.992-.24-2.597-.72l-.013.016c.611.483 1.481.724 2.61.724v-.02zm-2.597-.72c-.606-.479-.908-1.091-.908-1.835h-.02c0 .751.305 1.368.915 1.851l.013-.016zm-.908-1.835c0-.492.107-.979.322-1.459l-.018-.008a3.556 3.556 0 00-.324 1.467h.02zm.322-1.459c.088-.228.202-.436.341-.625l-.016-.012c-.14.191-.255.401-.344.629l.019.008zm.335-.621a23.06 23.06 0 011.69-.342l-.003-.02c-.608.102-1.172.216-1.692.342l.005.02zm1.69-.342c1.368-.228 2.577-.367 3.628-.418l-.001-.02c-1.052.051-2.262.19-3.63.418l.003.02zm3.638-.428v-.57h-.02v.57h.02zm0-.57c0-.703-.043-1.298-.129-1.783-.085-.485-.214-.862-.386-1.129l-.017.01c.17.265.298.639.384 1.122.085.484.128 1.077.128 1.78h.02zm-.515-2.912c-.344-.536-.873-.803-1.585-.803v.02c.706 0 1.228.265 1.568.793l.017-.01zm-1.585-.803c-.267 0-.496.032-.687.096l.006.018c.189-.062.415-.094.681-.094v-.02zm-.688.096l-.266.095.007.018.266-.095-.007-.018zm-.272.104v2.85h.02v-2.85h-.02zm.007 2.84l-.247.057.005.02.247-.057-.005-.02zm-.246.057a4.3 4.3 0 01-.511.038v.02c.14 0 .311-.013.514-.038l-.003-.02zm-.511.038c-.429 0-.775-.126-1.038-.377l-.014.014c.268.256.619.383 1.052.383v-.02zm-1.038-.377c-.251-.264-.377-.609-.377-1.038h-.02c0 .433.127.784.382 1.052l.015-.014zm-.377-1.038c0-.579.289-1.07.869-1.474l-.011-.016c-.585.407-.878.903-.878 1.49h.02zm.869-1.474c.593-.403 1.471-.606 2.636-.606v-.02c-1.167 0-2.049.203-2.647.61l.011.016zm2.636-.606c.987 0 1.834.177 2.541.531l.009-.018c-.711-.355-1.561-.533-2.55-.533v.02zm2.541.531c.721.341 1.264.821 1.63 1.44l.017-.01c-.368-.623-.914-1.105-1.638-1.448l-.009.018zm1.63 1.44c.379.607.569 1.308.569 2.104h.02c0-.8-.191-1.505-.572-2.114l-.017.01zm.569 2.104v5.13h.02v-5.13h-.02zm.007 5.14l1.14.285.005-.02-1.14-.285-.005.02zm1.133.275V287h.02v-.285h-.02zm.01.275h-1.71v.02h1.71v-.02zm-1.71 0c-.758 0-1.344-.234-1.76-.7l-.015.014c.421.471 1.012.706 1.775.706v-.02zm-1.76-.7a2.004 2.004 0 01-.416-.718l-.019.006c.102.293.242.535.42.726l.015-.014zm-.434-.72c-.177.316-.385.6-.626.853l.015.014a4.25 4.25 0 00.628-.857l-.017-.01zm-.625.853c-.568.568-1.275.852-2.121.852v.02c.851 0 1.563-.286 2.135-.858l-.014-.014zm-1.361.207c.473 0 .9-.256 1.281-.764l-.016-.012c-.379.505-.801.756-1.265.756v.02zm1.281-.764c.14-.191.286-.445.438-.762l-.018-.008a4.94 4.94 0 01-.436.758l.016.012zm.439-.766v-2.755h-.02v2.755h.02zm-.01-2.765c-.583 0-1.141.032-1.674.095l.003.02a14.186 14.186 0 011.671-.095v-.02zm-1.674.095c-.392.051-.658.082-.797.095l.002.02c.139-.013.405-.044.798-.095l-.003-.02zm-.805.101c-.064.14-.128.331-.191.571l.019.006c.064-.241.127-.43.19-.569l-.018-.008zm-.191.571c-.127.483-.19.958-.19 1.428h.02c0-.468.063-.942.189-1.422l-.019-.006zm-.19 1.428c0 .71.107 1.238.324 1.582l.017-.01c-.214-.34-.321-.863-.321-1.572h-.02zm.324 1.582c.217.344.492.518.826.518v-.02c-.325 0-.595-.168-.809-.508l-.017.01zm7.865.603l-.01-.04v.04h.01zm1.14-.285l.01.04v-.04h-.01zm0-12.16h.041l-.039-.01-.002.01zm-1.14-.285h-.042l.039.01.003-.01zm4.18 8.075h-.01v.025l.017-.018-.007-.007zm3.515-3.705l.007.007.01-.011-.014-.005-.003.009zm-1.425-.57h-.027l.023.009.004-.009zm3.61 0l.01.027v-.027h-.01zm-1.52.57l-.004-.01-.004.003.008.007zm-2.185 2.28l-.031-.029.022.034.009-.005zm3.705 5.795l-.012.007.009.003.003-.01zm.95.285h.034l-.032-.01-.002.01zm-3.952-.114l.005-.008-.005.008zm-1.083-1.216l.008-.005-.008.005zm-1.615-2.565l.008-.005-.018-.03v.035h.01zm0 3.61h-.042l.039.01.003-.01zm1.14.285h.041l-.039-.01-.002.01zm-5.318.01l1.14-.285-.005-.02-1.14.285.005.02zm1.148-.295v-12.16h-.02v12.16h.02zm-.008-12.17l-1.14-.285-.005.02 1.14.285.005-.02zm-1.132-.275v-.285h-.02v.285h.02zm-.01-.275h2.47v-.02h-2.47v.02zm2.47 0c.568 0 .993.142 1.275.425.282.282.425.707.425 1.275h.02c0-.572-.143-1.002-.431-1.29-.287-.287-.718-.43-1.289-.43v.02zm1.7 1.7v6.65h.02v-6.65h-.02zm.017 6.657l3.515-3.705-.015-.014-3.515 3.705.015.014zm3.511-3.721l-1.425-.57-.007.018 1.425.57.007-.018zm-1.418-.561v-.285h-.02v.285h.02zm-.01-.275h3.61v-.02h-3.61v.02zm3.6-.01v.285h.02v-.285h-.02zm.006.276l-1.52.57.007.018 1.52-.57-.007-.018zm-1.524.572l-2.185 2.28.015.014 2.185-2.28-.015-.014zm-2.186 2.292l3.705 5.795.017-.01-3.705-5.795-.017.01zm3.711 5.8l.95.285.005-.02-.95-.285-.005.02zm.943.275V287h.02v-.285h-.02zm.01.275h-2.47v.02h2.47v-.02zm-2.47 0c-.607 0-1.099-.133-1.477-.397l-.011.016c.382.268.878.401 1.488.401v-.02zm-1.477-.397c-.378-.265-.738-.669-1.08-1.213l-.017.01c.343.546.704.952 1.086 1.219l.011-.016zm-1.08-1.213l-1.615-2.565-.017.01 1.615 2.565.017-.01zm-1.633-2.56v3.61h.02v-3.61h-.02zm.007 3.62l1.14.285.005-.02-1.14-.285-.005.02zm1.133.275V287h.02v-.285h-.02zm.01.275h-5.32v.02h5.32v-.02zm-5.31.01v-.285h-.02V287h.02zm10.632 1.9v-.855h-.02v.855h.02zm-.01-.845h7.41v-.02h-7.41v.02zm7.4-.01v.855h.02v-.855h-.02zm.01.845h-7.41v.02h7.41v-.02zm.753-2.175l-.01-.04v.04h.01zm1.14-.285l.01.04v-.04h-.01zm0-8.36h.042l-.039-.01-.003.01zm-1.14-.285h-.041l.039.01.002-.01zm3.477.437l.008-.007-.008.007zm.418.703l-.009.004.008.019.01-.018-.009-.005zm.608-.855l-.007-.007.007.007zm3.895-.361l-.005.009h.001l.004-.009zm1.292 1.311l-.008.005.009.016.008-.016-.009-.005zm.608-.893l-.007-.007.007.007zm3.762-.494l-.004.009.004-.009zm1.254 1.14l-.008.005.008-.005zm.456 7.657h-.041l.039.01.002-.01zm1.14.285h.042l-.039-.01-.003.01zm-4.56-8.208l-.008.005.008-.005zm-1.976.133l-.008-.006v.001l.008.005zm-.399.76l-.01-.004v.004h.01zm0 7.03h-.041l.039.01.002-.01zm1.14.285h.042l-.039-.01-.003.01zm-5.32 0l-.01-.04v.04h.01zm1.14-.285l.01.04v-.04h-.01zm-.38-7.923l-.008.005.008-.005zm-1.976.133l-.008-.006v.001l.008.005zm-.399.76l-.01-.004v.004h.01zm0 7.03h-.041l.039.01.002-.01zm1.14.285h.042l-.039-.01-.003.01zm-5.317.01l1.14-.285-.005-.02-1.14.285.005.02zm1.147-.295v-8.36h-.02v8.36h.02zm-.007-8.37l-1.14-.285-.005.02 1.14.285.005-.02zm-1.133-.275v-.285h-.02v.285h.02zm-.01-.275h1.71v-.02h-1.71v.02zm1.71 0c.745 0 1.332.24 1.76.719l.015-.014c-.433-.483-1.025-.725-1.775-.725v.02zm1.76.719c.164.189.303.422.416.7l.019-.008a2.544 2.544 0 00-.42-.706l-.015.014zm.434.701a3.62 3.62 0 01.607-.853l-.015-.014a3.624 3.624 0 00-.609.857l.017.01zm.607-.853c.568-.568 1.218-.852 1.949-.852v-.02c-.737 0-1.392.286-1.964.858l.015.014zm1.949-.852c.734 0 1.378.164 1.933.493l.011-.018c-.56-.33-1.207-.495-1.944-.495v.02zm1.934.493c.555.315.985.751 1.288 1.307l.017-.01a3.311 3.311 0 00-1.296-1.315l-.009.018zm1.305 1.307c.19-.367.392-.664.607-.891l-.015-.014a3.918 3.918 0 00-.609.895l.017.01zm.607-.891c.581-.606 1.231-.909 1.949-.909v-.02c-.725 0-1.38.305-1.964.915l.015.014zm1.949-.909c.67 0 1.27.139 1.801.417l.009-.018c-.533-.279-1.137-.419-1.81-.419v.02zm1.801.417c.543.278.96.657 1.25 1.136l.017-.01c-.292-.483-.712-.864-1.258-1.144l-.009.018zm1.25 1.136c.303.48.454 1.004.454 1.572h.02c0-.572-.152-1.099-.457-1.582l-.017.01zm.454 1.572v6.08h.02v-6.08h-.02zm.008 6.09l1.14.285.005-.02-1.14-.285-.005.02zm1.132.275V287h.02v-.285h-.02zm.01.275h-2.47v.02h2.47v-.02zm-2.47 0c-.568 0-.992-.142-1.275-.425-.282-.282-.425-.707-.425-1.275h-.02c0 .572.143 1.002.431 1.29.287.287.718.43 1.289.43v-.02zm-1.7-1.7v-4.94h-.02v4.94h.02zm0-4.94c0-.824-.126-1.441-.381-1.848l-.017.01c.252.403.378 1.015.378 1.838h.02zm-.381-1.848c-.254-.419-.542-.632-.864-.632v.02c.312 0 .594.205.847.622l.017-.01zm-.864-.632c-.372 0-.748.257-1.129.764l.016.012c.38-.506.751-.756 1.113-.756v-.02zm-1.129.765a5.45 5.45 0 00-.4.761l.019.008c.113-.266.246-.518.398-.759l-.017-.01zm-.401.765v7.03h.02v-7.03h-.02zm.008 7.04l1.14.285.005-.02-1.14-.285-.005.02zm1.132.275V287h.02v-.285h-.02zm.01.275h-5.32v.02h5.32v-.02zm-5.31.01v-.285h-.02V287h.02zm-.007-.275l1.14-.285-.005-.02-1.14.285.005.02zm1.147-.295v-6.08h-.02v6.08h.02zm0-6.08c0-.824-.126-1.441-.381-1.848l-.017.01c.252.403.378 1.015.378 1.838h.02zm-.381-1.848c-.254-.419-.542-.632-.864-.632v.02c.312 0 .594.205.847.622l.017-.01zm-.864-.632c-.372 0-.748.257-1.129.764l.016.012c.38-.506.751-.756 1.113-.756v-.02zm-1.129.765a5.45 5.45 0 00-.4.761l.019.008c.113-.266.246-.518.398-.759l-.017-.01zm-.401.765v7.03h.02v-7.03h-.02zm.008 7.04l1.14.285.005-.02-1.14-.285-.005.02zm1.132.275V287h.02v-.285h-.02zm.01.275h-5.32v.02h5.32v-.02zm-5.31.01v-.285h-.02V287h.02zm19.146-.437l-.006.008.006-.008zm-.589-3.306l.009.004h.001l-.01-.004zm.342-.627l-.003-.013-.005.007.008.006zm1.691-.342l-.001-.01.001.01zm3.629-.418l.01.207v-.207h-.01zm-.513-3.477l.009-.005-.009.005zm-2.261-.703l-.003-.009.003.009zm-.266.095l-.01-.028v.028h.01zm0 2.85l.01.043v-.043h-.01zm-.247.057l.001.01h.001l-.002-.01zm-1.558-.342l-.007.007.007-.007zm.494-2.527l-.005-.008h-.001l.006.008zm5.187-.076l-.004.009.004-.009zm1.634 1.444l-.008.005.008-.005zm.57 7.239h-.041l.039.01.002-.01zm1.14.285h.041l-.038-.01-.003.01zm-3.477-.418l.008-.007-.008.007zm-.418-.722l.01-.003-.008-.021-.011.019.009.005zm-.627.855l.007.007-.007-.007zm-.095-.57l.008.006-.008-.006zm.437-.76l.01.005v-.005h-.01zm-1.672-2.66l-.001-.01.001.01zm-.798.095l-.002-.02-.007.016.009.004zm-.19.57l.01.003-.01-.003zm.133 3.002l.009-.005-.009.005zm.057 1.168c-1.126 0-1.991-.24-2.597-.72l-.012.016c.61.483 1.481.724 2.609.724v-.02zm-2.597-.72c-.605-.479-.908-1.091-.908-1.835h-.02c0 .751.306 1.368.916 1.851l.012-.016zm-.908-1.835c0-.492.108-.979.322-1.459l-.018-.008a3.556 3.556 0 00-.324 1.467h.02zm.323-1.459c.088-.228.201-.436.34-.625l-.016-.012a2.75 2.75 0 00-.343.629l.019.008zm.335-.621a22.953 22.953 0 011.69-.342l-.003-.02c-.609.102-1.173.216-1.692.342l.005.02zm1.69-.342c1.368-.228 2.577-.367 3.628-.418l-.001-.02c-1.052.051-2.262.19-3.63.418l.003.02zm3.637-.428v-.57h-.02v.57h.02zm0-.57c0-.703-.043-1.298-.128-1.783-.086-.485-.214-.862-.386-1.129l-.017.01c.17.265.298.639.383 1.122.085.484.128 1.077.128 1.78h.02zm-.514-2.912c-.344-.536-.874-.803-1.586-.803v.02c.707 0 1.229.265 1.569.793l.017-.01zm-1.586-.803c-.267 0-.496.032-.687.096l.006.018c.189-.062.416-.094.681-.094v-.02zm-.687.096l-.266.095.007.018.266-.095-.007-.018zm-.273.104v2.85h.02v-2.85h-.02zm.008 2.84l-.247.057.004.02.247-.057-.004-.02zm-.246.057a4.3 4.3 0 01-.512.038v.02c.14 0 .312-.013.514-.038l-.002-.02zm-.512.038c-.428 0-.774-.126-1.038-.377l-.014.014c.268.256.619.383 1.052.383v-.02zm-1.038-.377c-.251-.264-.377-.609-.377-1.038h-.02c0 .433.128.784.383 1.052l.014-.014zm-.377-1.038c0-.579.289-1.07.87-1.474l-.012-.016c-.584.407-.878.903-.878 1.49h.02zm.87-1.474c.593-.403 1.471-.606 2.635-.606v-.02c-1.166 0-2.049.203-2.646.61l.011.016zm2.635-.606c.987 0 1.834.177 2.542.531l.009-.018c-.711-.355-1.562-.533-2.551-.533v.02zm2.542.531c.72.341 1.263.821 1.63 1.44l.017-.01c-.369-.623-.915-1.105-1.639-1.448l-.008.018zm1.63 1.44c.379.607.568 1.308.568 2.104h.02c0-.8-.19-1.505-.571-2.114l-.017.01zm.568 2.104v5.13h.02v-5.13h-.02zm.008 5.14l1.14.285.005-.02-1.14-.285-.005.02zm1.132.275V287h.02v-.285h-.02zm.01.275h-1.71v.02h1.71v-.02zm-1.71 0c-.758 0-1.344-.234-1.759-.7l-.015.014c.42.471 1.012.706 1.774.706v-.02zm-1.759-.7a1.99 1.99 0 01-.416-.718l-.019.006c.101.293.241.535.42.726l.015-.014zm-.435-.72c-.176.316-.385.6-.625.853l.014.014c.242-.254.451-.54.629-.857l-.018-.01zm-.625.853c-.568.568-1.275.852-2.121.852v.02c.851 0 1.563-.286 2.135-.858l-.014-.014zm-1.361.207c.473 0 .9-.256 1.281-.764l-.016-.012c-.379.505-.8.756-1.265.756v.02zm1.281-.764c.14-.191.286-.445.438-.762l-.018-.008a4.858 4.858 0 01-.436.758l.016.012zm.439-.766v-2.755h-.02v2.755h.02zm-.01-2.765c-.583 0-1.141.032-1.673.095l.002.02a14.21 14.21 0 011.671-.095v-.02zm-1.673.095a26.33 26.33 0 01-.798.095l.002.02c.14-.013.406-.044.798-.095l-.002-.02zm-.806.101c-.064.14-.127.331-.19.571l.019.006c.063-.241.126-.43.189-.569l-.018-.008zm-.19.571a5.595 5.595 0 00-.191 1.428h.02c0-.468.063-.942.19-1.422l-.019-.006zm-.191 1.428c0 .71.108 1.238.325 1.582l.017-.01c-.214-.34-.322-.863-.322-1.572h-.02zm.325 1.582c.216.344.492.518.825.518v-.02c-.325 0-.594-.168-.808-.508l-.017.01zm10.22.66l.005-.009-.005.009zm-.741-.532l.007-.007-.008-.008-.007.009.008.006zm-.665.646l-.005-.008.005.008zm-.38.209v.011l.004-.002-.004-.009zm.285-3.23l.032-.01h-.032v.01zm.722 1.482l.008-.006-.008.006zm3.705 1.083l.007.007-.007-.007zm-.152-2.185l-.006.008.006-.008zm-1.748-1.064l.005-.009-.005.009zm-1.672-.912l-.005.008v.001l.005-.009zm-1.083-1.026l-.008.006.008-.006zm.532-3.306l.006.008-.006-.008zm4.883-.19l-.005.008v.001l.005-.009zm.722.513l-.006.008.008.007.006-.009-.008-.006zm.665-.646l-.005-.009-.001.001.006.008zm.38-.209v-.011l-.003.002.003.009zm-.285 3.23l-.029.01h.029v-.01zm-.703-1.463l-.008.005.008-.005zm-3.135-1.102l-.007-.007.007.007zm.247 2.166l-.006.008.006-.008zm1.843 1.102l.005-.009-.005.009zm1.596.912l-.006.008h.001l.005-.008zm1.026.95l-.008.006.008-.006zm-3.933 4.075c-.784 0-1.485-.171-2.104-.512l-.01.018c.623.343 1.327.514 2.114.514v-.02zm-2.104-.512a3.16 3.16 0 01-.739-.53l-.014.014c.191.191.439.369.743.534l.01-.018zm-.754-.529a2.464 2.464 0 01-.662.644l.01.016c.242-.152.465-.369.668-.648l-.016-.012zm-.662.644c-.114.075-.24.145-.379.208l.008.018c.14-.063.267-.133.382-.21l-.011-.016zm-.375.207h-.475v.02h.475v-.02zm-.465.01v-3.23h-.02v3.23h.02zm-.01-3.22h.76v-.02h-.76v.02zm.751-.007c.165.533.406 1.028.723 1.485l.016-.012a5.34 5.34 0 01-.72-1.479l-.019.006zm.723 1.485c.673.977 1.512 1.467 2.516 1.467v-.02c-.997 0-1.83-.485-2.5-1.459l-.016.012zm2.516 1.467c.534 0 .935-.127 1.204-.383l-.014-.014c-.263.251-.659.377-1.19.377v.02zm1.204-.383c.281-.268.421-.651.421-1.147h-.02c0 .492-.139.869-.415 1.133l.014.014zm.421-1.147c0-.422-.192-.773-.574-1.053l-.012.016c.378.277.566.623.566 1.037h.02zm-.574-1.053c-.368-.292-.951-.647-1.749-1.065l-.01.018c.798.418 1.38.772 1.747 1.063l.012-.016zm-1.749-1.065a21.994 21.994 0 01-1.672-.912l-.01.018c.431.266.988.57 1.673.912l.009-.018zm-1.671-.911a4.382 4.382 0 01-1.081-1.024l-.016.012c.305.406.667.749 1.086 1.028l.011-.016zm-1.081-1.024c-.29-.416-.435-.902-.435-1.457h-.02c0 .559.146 1.049.439 1.469l.016-.012zm-.435-1.457c0-.757.321-1.368.965-1.835l-.012-.016c-.648.47-.973 1.088-.973 1.851h.02zm.965-1.835c.656-.479 1.661-.72 3.015-.72v-.02c-1.356 0-2.366.241-3.027.724l.012.016zm3.015-.72c.67 0 1.288.177 1.857.53l.01-.016a3.464 3.464 0 00-1.867-.534v.02zm1.857.531c.278.164.518.335.721.512l.013-.016a4.94 4.94 0 00-.724-.514l-.01.018zm.735.51c.164-.227.385-.442.663-.644l-.012-.016a2.95 2.95 0 00-.667.648l.016.012zm.662-.643c.108-.064.193-.113.256-.147.064-.035.104-.056.122-.062l-.006-.018a.874.874 0 00-.125.062c-.064.035-.149.084-.257.147l.01.018zm.375-.208h.475v-.02h-.475v.02zm.465-.01v3.23h.02v-3.23h-.02zm.01 3.22h-.76v.02h.76v-.02zm-.75.007a6.838 6.838 0 00-.704-1.465l-.017.01c.278.43.512.917.702 1.461l.019-.006zm-.704-1.465c-.635-.99-1.391-1.487-2.27-1.487v.02c.87 0 1.62.491 2.253 1.477l.017-.01zm-2.27-1.487a1.17 1.17 0 00-.881.383l.014.014a1.15 1.15 0 01.867-.377v-.02zm-.881.383c-.243.255-.364.575-.364.957h.02c0-.378.12-.692.358-.943l-.014-.014zm-.364.957c0 .485.204.893.612 1.224l.012-.016c-.403-.327-.604-.73-.604-1.208h-.02zm.612 1.224c.406.317 1.021.685 1.845 1.103l.009-.018c-.824-.418-1.437-.785-1.842-1.101l-.012.016zm1.845 1.103c.671.342 1.202.646 1.594.911l.012-.016c-.393-.267-.926-.571-1.597-.913l-.009.018zm1.595.911c.404.253.745.569 1.023.948l.016-.012a3.67 3.67 0 00-1.029-.952l-.01.016zm1.023.948c.29.378.435.819.435 1.324h.02c0-.509-.146-.954-.439-1.336l-.016.012zm.435 1.324c0 .915-.363 1.601-1.088 2.058-.726.457-1.816.687-3.272.687v.02c1.457 0 2.552-.23 3.283-.69.731-.461 1.097-1.154 1.097-2.075h-.02zm4.191 2.299l-.005.009.005-.009zm-1.406-1.254l.008-.005-.008.005zm2.907.589l-.009.005.009-.005zm2.261-.019l.008.006-.008-.006zm.285.38l.007.007-.007-.007zm-1.862.75c-.835 0-1.562-.152-2.181-.455l-.009.018c.623.305 1.353.457 2.19.457v-.02zm-2.181-.455c-.606-.303-1.073-.72-1.402-1.25l-.017.01c.331.534.801.953 1.41 1.258l.009-.018zm-1.402-1.25a3.353 3.353 0 01-.492-1.8h-.02c0 .673.165 1.277.495 1.81l.017-.01zm-.492-1.8v-5.795h-.02v5.795h.02zm-.01-5.805h-1.33v.02h1.33v-.02zm-1.32.01v-.475h-.02v.475h.02zm-.01-.465h1.33v-.02h-1.33v.02zm1.34-.01v-.95h-.02v.95h.02zm0-.95c0-.568.142-.993.424-1.275.283-.283.707-.425 1.276-.425v-.02c-.572 0-1.002.143-1.29.43-.287.288-.43.718-.43 1.29h.02zm1.7-1.7h1.33v-.02h-1.33v.02zm1.32-.01v2.66h.02v-2.66h-.02zm.01 2.67h2.66v-.02h-2.66v.02zm2.65-.01v.475h.02v-.475h-.02zm.01.465h-2.66v.02h2.66v-.02zm-2.67.01v5.795h.02v-5.795h-.02zm0 5.795c0 .583.03 1.074.09 1.474.06.4.151.708.272.925l.018-.01c-.12-.214-.21-.52-.27-.918-.06-.398-.09-.889-.09-1.471h-.02zm.362 2.399c.242.434.6.651 1.073.651v-.02c-.465 0-.816-.213-1.055-.641l-.018.01zm1.073.651c.46 0 .861-.224 1.205-.669l-.016-.012c-.341.441-.737.661-1.189.661v.02zm1.205-.669c.344-.446.515-1.05.515-1.811h-.02c0 .759-.171 1.358-.511 1.799l.016.012zm.505-1.801h.475v-.02h-.475v.02zm.465-.01c0 .936-.234 1.661-.701 2.178l.015.014c.471-.522.706-1.253.706-2.192h-.02zm-.7 2.178c-.467.505-1.085.757-1.855.757v.02c.775 0 1.398-.254 1.869-.763l-.014-.014zm3.108-.563l-.008.007h.001l.007-.007zm-.76-6.384l-.009-.005.009.005zm1.634-1.748l-.005-.009.005.009zm4.826-.095l-.005.009.005-.009zm1.596 1.387l-.009.005v.001l.009-.006zm.475 2.717l.009.003-.009-.003zm-.095.323l.004.021.005-.018-.009-.003zm-1.767.285l-.002-.01.002.01zm-3.42 3.439l-.009.005.009-.005zm3.04.589l.004.009-.004-.009zm1.007-.931l-.009-.005.009.005zm.399.247l-.009-.006.009.006zm-1.273 1.102l.004.009-.004-.009zm-1.805-4.731l-.001-.01h-.001l.002.01zm.684-.095l.005.025.004-.023-.009-.002zm.095-.418l.009.002-.009-.002zm-.323-3.306l-.009.005.009-.005zm-.532 8.939c-1.62 0-2.877-.443-3.774-1.327l-.014.014c.901.889 2.164 1.333 3.788 1.333v-.02zm-3.774-1.327c-.897-.897-1.346-2.129-1.346-3.698h-.02c0 1.573.45 2.81 1.351 3.712l.015-.014zm-1.346-3.698c0-1.025.196-1.916.587-2.674l-.017-.01c-.394.762-.59 1.657-.59 2.684h.02zm.587-2.674c.392-.759.936-1.34 1.631-1.744l-.01-.018c-.699.407-1.245.991-1.638 1.752l.017.01zm1.631-1.744c.707-.405 1.516-.607 2.427-.607v-.02c-.914 0-1.726.203-2.437.609l.01.018zm2.427-.607c.91 0 1.707.171 2.389.512l.009-.018c-.686-.343-1.485-.514-2.398-.514v.02zm2.389.512c.695.341 1.226.802 1.592 1.383l.017-.01c-.368-.585-.902-1.048-1.6-1.391l-.009.018zm1.592 1.384c.379.568.569 1.199.569 1.894h.02c0-.699-.191-1.334-.572-1.906l-.017.012zm.569 1.894c0 .316-.032.587-.095.814l.019.006c.064-.229.096-.503.096-.82h-.02zm-.095.814l-.095.323.019.006.095-.323-.019-.006zm-.087.316a20.71 20.71 0 01-1.767.285l.003.02a20.735 20.735 0 001.768-.285l-.004-.02zm-1.767.285c-1.329.19-2.672.285-4.026.285v.02c1.355 0 2.698-.095 4.029-.285l-.003-.02zm-4.036.295c0 1.47.202 2.524.609 3.159l.017-.01c-.404-.631-.606-1.68-.606-3.149h-.02zm.609 3.159c.407.624.968.936 1.681.936v-.02c-.706 0-1.26-.308-1.664-.926l-.017.01zm1.681.936c.495 0 .953-.114 1.372-.343l-.009-.018a2.804 2.804 0 01-1.363.341v.02zm1.372-.343a2.769 2.769 0 001.011-.935l-.017-.01a2.75 2.75 0 01-1.003.927l.009.018zm1.011-.935c.254-.394.382-.794.382-1.202h-.02c0 .403-.126.8-.379 1.192l.017.01zm.372-1.192h.475v-.02h-.475v.02zm.465-.01c0 .505-.152.984-.455 1.438l.017.012c.305-.458.458-.941.458-1.45h-.02zm-.455 1.438c-.303.455-.726.821-1.269 1.099l.009.018c.546-.279.972-.648 1.277-1.105l-.017-.012zm-1.269 1.099c-.543.265-1.168.398-1.876.398v.02c.71 0 1.339-.133 1.885-.4l-.009-.018zm-3.776-4.617c.81 0 1.47-.032 1.977-.095l-.003-.02c-.506.063-1.164.095-1.974.095v.02zm1.976-.095c.216-.013.445-.044.686-.095l-.005-.02c-.24.051-.467.082-.682.095l.001.02zm.693-.103c.013-.063.045-.202.095-.418l-.019-.004a13.04 13.04 0 00-.095.418l.019.004zm.095-.418c.064-.317.096-.654.096-1.009h-.02c0 .354-.032.689-.095 1.005l.019.004zm.096-1.009c0-1.052-.14-1.82-.42-2.304l-.017.01c.277.479.417 1.243.417 2.294h.02zm-.42-2.304c-.279-.496-.618-.746-1.015-.746v.02c.387 0 .72.244.998.736l.017-.01zm-1.015-.746c-.483 0-.841.394-1.079 1.171s-.356 1.942-.356 3.494h.02c0-1.551.118-2.714.355-3.488.238-.775.592-1.157 1.06-1.157v-.02zm5.976 9.13l-.01-.04v.04h.01zm1.14-.285l.01.04v-.04h-.01zm0-8.36h.042l-.039-.01-.003.01zm-1.14-.285h-.041l.039.01.002-.01zm3.477.437l.008-.007-.008.007zm.418.703l-.009.004.007.017.011-.015-.009-.006zm.703-.76l-.006-.008.006.008zm3.629-.285l-.007.007h.001l.006-.007zm.114 2.375l.007.007-.007-.007zm-1.558.342l-.002.01h.001l.001-.01zm-.228-.057h-.041l.039.01.002-.01zm-1.767-1.9l-.007-.007.007.007zm-.608.76l-.01-.006v.006h.01zm0 7.03h-.041l.039.01.002-.01zm1.14.285h.042l-.039-.01-.003.01zm-5.317.01l1.14-.285-.005-.02-1.14.285.005.02zm1.147-.295v-8.36h-.02v8.36h.02zm-.007-8.37l-1.14-.285-.005.02 1.14.285.005-.02zm-1.133-.275v-.285h-.02v.285h.02zm-.01-.275h1.71v-.02h-1.71v.02zm1.71 0c.745 0 1.331.24 1.76.719l.015-.014c-.433-.483-1.025-.725-1.775-.725v.02zm1.76.719c.164.189.302.422.416.7l.019-.008a2.568 2.568 0 00-.42-.706l-.015.014zm.434.702c.189-.278.423-.531.701-.758l-.013-.016a3.663 3.663 0 00-.705.762l.017.012zm.701-.758a3.31 3.31 0 012.121-.758v-.02c-.787 0-1.499.254-2.134.762l.013.016zm2.121-.758c.67 0 1.168.158 1.494.472l.014-.014c-.332-.319-.835-.478-1.508-.478v.02zm1.495.472c.339.302.509.742.509 1.323h.02c0-.585-.171-1.031-.516-1.337l-.013.014zm.509 1.323c0 .428-.132.774-.396 1.038l.014.014c.269-.268.402-.619.402-1.052h-.02zm-.396 1.038c-.251.251-.59.377-1.019.377v.02c.433 0 .778-.127 1.033-.383l-.014-.014zm-1.019.377a3.79 3.79 0 01-.53-.038l-.003.02c.178.025.356.038.533.038v-.02zm-.529-.038l-.228-.057-.005.02.228.057.005-.02zm-.221-.047v-2.66h-.02v2.66h.02zm-.01-2.67c-.649 0-1.24.255-1.774.763l.014.014c.531-.505 1.117-.757 1.76-.757v-.02zm-1.774.763a4.025 4.025 0 00-.609.762l.017.01c.151-.252.354-.505.606-.758l-.014-.014zm-.611.767v7.03h.02v-7.03h-.02zm.008 7.04l1.14.285.005-.02-1.14-.285-.005.02zm1.132.275V287h.02v-.285h-.02zm.01.275h-5.32v.02h5.32v-.02zm-5.31.01v-.285h-.02V287h.02z" fill="#000"/></svg>