<svg width="1440" height="900" fill="none" xmlns="http://www.w3.org/2000/svg"><path fill="#FFBCCC" d="M720 0h720v900H720z"/><path fill="#fff" d="M0 0h720v900H0z"/><path d="M485.16 467.8c-3.328 0-6.384-.832-9.168-2.496-2.784-1.632-4.992-3.872-6.624-6.72-1.632-2.88-2.448-6.048-2.448-9.504 0-3.456.816-6.608 2.448-9.456 1.632-2.88 3.84-5.136 6.624-6.768 2.784-1.664 5.84-2.496 9.168-2.496 3.328 0 6.384.832 9.168 2.496 2.784 1.632 4.992 3.888 6.624 6.768 1.632 2.848 2.448 6 2.448 9.456 0 2.08-.368 3.904-1.104 5.472-.736 1.568-1.712 2.768-2.928 3.6-1.216.832-2.512 1.248-3.888 1.248-3.008 0-5.184-.64-6.528-1.92-.576-.576-.96-1.216-1.152-1.92a6.128 6.128 0 01-1.008 1.92c-1.024 1.28-2.448 1.92-4.272 1.92-2.336 0-4.24-.8-5.712-2.4-1.472-1.6-2.208-3.76-2.208-6.48 0-3.648 1.04-6.48 3.12-8.496 2.112-2.016 5.152-3.024 9.12-3.024h6.96v15.6c0 1.184.24 2.08.72 2.688.512.608 1.152.912 1.92.912s1.552-.352 2.352-1.056c.832-.736 1.52-1.792 2.064-3.168.576-1.376.864-3.008.864-4.896 0-3.2-.752-6.112-2.256-8.736-1.472-2.656-3.472-4.736-6-6.24-2.528-1.536-5.296-2.304-8.304-2.304s-5.776.768-8.304 2.304c-2.528 1.504-4.544 3.584-6.048 6.24-1.472 2.624-2.208 5.536-2.208 8.736 0 3.2.736 6.128 2.208 8.784 1.504 2.624 3.52 4.688 6.048 6.192 2.528 1.536 5.296 2.304 8.304 2.304 2.112 0 4.288-.48 6.528-1.44.96-.448 1.824-.928 2.592-1.44l.72 1.2c-.768.608-1.696 1.136-2.784 1.584-2.304 1.024-4.656 1.536-7.056 1.536zm-.72-10.08c.704 0 1.312-.48 1.824-1.44.256-.448.448-.928.576-1.44V440.2c-3.52 0-5.28 3.44-5.28 10.32 0 2.56.272 4.4.816 5.52.544 1.12 1.232 1.68 2.064 1.68zm35.513 6c-3.968 0-7.088-1.12-9.36-3.36-2.24-2.272-3.36-5.392-3.36-9.36 0-3.968 1.12-7.072 3.36-9.312 2.272-2.272 5.392-3.408 9.36-3.408 3.968 0 7.072 1.136 9.312 3.408 2.272 2.24 3.408 5.344 3.408 9.312 0 3.968-1.136 7.088-3.408 9.36-2.24 2.24-5.344 3.36-9.312 3.36zm0-.96c1.28 0 2.352-.896 3.216-2.688.896-1.792 1.344-4.816 1.344-9.072 0-4.256-.448-7.28-1.344-9.072-.864-1.792-1.936-2.688-3.216-2.688-1.28 0-2.368.896-3.264 2.688-.864 1.792-1.296 4.816-1.296 9.072 0 4.256.432 7.28 1.296 9.072.896 1.792 1.984 2.688 3.264 2.688zm16.576-.48l2.88-.72v-30.72l-2.88-.72v-.72h6.24c2.88 0 4.32 1.44 4.32 4.32v16.8l8.88-9.36-3.6-1.44V439h9.12v.72l-3.84 1.44-5.52 5.76 9.36 14.64 2.4.72v.72h-6.24c-1.536 0-2.784-.336-3.744-1.008-.96-.672-1.872-1.696-2.736-3.072l-4.08-6.48v9.12l2.88.72v.72h-13.44v-.72zm40.062 1.44c-1.984 0-3.76-.432-5.328-1.296-.768-.416-1.392-.864-1.872-1.344-.512.704-1.072 1.248-1.68 1.632a6.801 6.801 0 01-.96.528h-1.2v-8.16h1.92a13.548 13.548 0 001.824 3.744c1.696 2.464 3.808 3.696 6.336 3.696 1.344 0 2.352-.32 3.024-.96.704-.672 1.056-1.632 1.056-2.88 0-1.056-.48-1.936-1.44-2.64-.928-.736-2.4-1.632-4.416-2.688-1.728-.864-3.136-1.632-4.224-2.304a11.082 11.082 0 01-2.736-2.592c-.736-1.056-1.104-2.288-1.104-3.696 0-1.92.816-3.472 2.448-4.656 1.664-1.216 4.208-1.824 7.632-1.824 1.696 0 3.264.448 4.704 1.344.704.416 1.312.848 1.824 1.296.416-.576.976-1.12 1.68-1.632.544-.32.864-.496.96-.528h1.2v8.16h-1.92c-.48-1.376-1.072-2.608-1.776-3.696-1.6-2.496-3.504-3.744-5.712-3.744-.864 0-1.6.32-2.208.96-.608.64-.912 1.44-.912 2.4 0 1.216.512 2.24 1.536 3.072 1.024.8 2.576 1.728 4.656 2.784 1.696.864 3.04 1.632 4.032 2.304a9.283 9.283 0 012.592 2.4c.736.96 1.104 2.08 1.104 3.36 0 4.64-3.68 6.96-11.04 6.96zm24.002 0c-2.848 0-5.04-.608-6.576-1.824-1.536-1.216-2.304-2.768-2.304-4.656 0-1.248.272-2.48.816-3.696a6.883 6.883 0 01.864-1.584 59.05 59.05 0 014.272-.864c3.456-.576 6.512-.928 9.168-1.056v-1.44c0-3.552-.432-6-1.296-7.344-.864-1.344-2.192-2.016-3.984-2.016-.672 0-1.248.08-1.728.24l-.672.24v7.2l-.624.144c-.512.064-.944.096-1.296.096-1.088 0-1.968-.32-2.64-.96-.64-.672-.96-1.552-.96-2.64 0-1.472.736-2.72 2.208-3.744 1.504-1.024 3.728-1.536 6.672-1.536 2.496 0 4.64.448 6.432 1.344 1.824.864 3.2 2.08 4.128 3.648.96 1.536 1.44 3.312 1.44 5.328v12.96l2.88.72v.72h-4.32c-1.92 0-3.408-.592-4.464-1.776-.448-.48-.8-1.088-1.056-1.824-.448.8-.976 1.52-1.584 2.16-1.44 1.44-3.232 2.16-5.376 2.16zm1.92-1.68c1.184 0 2.256-.64 3.216-1.92.352-.48.72-1.12 1.104-1.92v-6.96c-1.472 0-2.88.08-4.224.24-.992.128-1.664.208-2.016.24-.16.352-.32.832-.48 1.44a14.104 14.104 0 00-.48 3.6c0 1.792.272 3.12.816 3.984.544.864 1.232 1.296 2.064 1.296zm17.782.24l2.88-.72v-21.12l-2.88-.72V439h4.32c1.888 0 3.376.608 4.464 1.824.416.48.768 1.072 1.056 1.776a9.19 9.19 0 011.584-2.16c1.44-1.44 3.232-2.16 5.376-2.16 1.792 0 3.392.384 4.8 1.152 1.44.736 2.56 1.712 3.36 2.928.8 1.216 1.2 2.496 1.2 3.84v15.36l2.88.72v.72h-6.24c-2.88 0-4.32-1.44-4.32-4.32V446.2c0-2.016-.368-3.552-1.104-4.608-.704-1.088-1.536-1.632-2.496-1.632-1.216 0-2.304.64-3.264 1.92a7.848 7.848 0 00-1.056 1.92v17.76l2.88.72v.72h-13.44v-.72zm41.282 1.44c-2.848 0-5.04-.608-6.576-1.824-1.536-1.216-2.304-2.768-2.304-4.656 0-1.248.272-2.48.816-3.696a6.883 6.883 0 01.864-1.584 59.05 59.05 0 014.272-.864c3.456-.576 6.512-.928 9.168-1.056v-1.44c0-3.552-.432-6-1.296-7.344-.864-1.344-2.192-2.016-3.984-2.016-.672 0-1.248.08-1.728.24l-.672.24v7.2l-.624.144c-.512.064-.944.096-1.296.096-1.088 0-1.968-.32-2.64-.96-.64-.672-.96-1.552-.96-2.64 0-1.472.736-2.72 2.208-3.744 1.504-1.024 3.728-1.536 6.672-1.536 2.496 0 4.64.448 6.432 1.344 1.824.864 3.2 2.08 4.128 3.648.96 1.536 1.44 3.312 1.44 5.328v12.96l2.88.72v.72h-4.32c-1.92 0-3.408-.592-4.464-1.776-.448-.48-.8-1.088-1.056-1.824-.448.8-.976 1.52-1.584 2.16-1.44 1.44-3.232 2.16-5.376 2.16zm1.92-1.68c1.184 0 2.256-.64 3.216-1.92.352-.48.72-1.12 1.104-1.92v-6.96c-1.472 0-2.88.08-4.224.24-.992.128-1.664.208-2.016.24-.16.352-.32.832-.48 1.44a14.104 14.104 0 00-.48 3.6c0 1.792.272 3.12.816 3.984.544.864 1.232 1.296 2.064 1.296zm17.782.24l2.88-.72v-30.72l-2.88-.72v-.72h6.24c2.88 0 4.32 1.44 4.32 4.32v16.8l8.88-9.36-3.6-1.44V439h9.12v.72l-3.84 1.44-5.52 5.76 9.36 14.64 2.4.72v.72h-6.24c-1.536 0-2.784-.336-3.744-1.008-.96-.672-1.872-1.696-2.736-3.072l-4.08-6.48v9.12l2.88.72v.72h-13.44v-.72z" fill="#FFBCCC"/><path d="M708.141 467.8v-2.16h18.72v2.16h-18.72zm20.623-5.52l2.88-.72v-21.12l-2.88-.72V439h4.32c1.888 0 3.376.608 4.464 1.824.416.48.768 1.072 1.056 1.776.48-.896.992-1.616 1.536-2.16 1.44-1.44 3.088-2.16 4.944-2.16 1.856 0 3.488.416 4.896 1.248a8.332 8.332 0 013.264 3.312c.48-.928.992-1.68 1.536-2.256 1.472-1.536 3.12-2.304 4.944-2.304 1.696 0 3.216.352 4.56 1.056 1.376.704 2.432 1.664 3.168 2.88a7.316 7.316 0 011.152 3.984v15.36l2.88.72v.72h-6.24c-2.88 0-4.32-1.44-4.32-4.32V446.2c0-2.08-.32-3.632-.96-4.656-.64-1.056-1.36-1.584-2.16-1.584-.928 0-1.872.64-2.832 1.92-.384.608-.72 1.248-1.008 1.92v17.76l2.88.72v.72h-13.44v-.72l2.88-.72V446.2c0-2.08-.32-3.632-.96-4.656-.64-1.056-1.36-1.584-2.16-1.584-.928 0-1.872.64-2.832 1.92-.384.608-.72 1.248-1.008 1.92v17.76l2.88.72v.72h-13.44v-.72zm54.969 1.44c-2.848 0-5.04-.608-6.576-1.824-1.536-1.216-2.304-2.768-2.304-4.656 0-1.248.272-2.48.816-3.696a6.883 6.883 0 01.864-1.584 59.05 59.05 0 014.272-.864c3.456-.576 6.512-.928 9.168-1.056v-1.44c0-3.552-.432-6-1.296-7.344-.864-1.344-2.192-2.016-3.984-2.016-.672 0-1.248.08-1.728.24l-.672.24v7.2l-.624.144c-.512.064-.944.096-1.296.096-1.088 0-1.968-.32-2.64-.96-.64-.672-.96-1.552-.96-2.64 0-1.472.736-2.72 2.208-3.744 1.504-1.024 3.728-1.536 6.672-1.536 2.496 0 4.64.448 6.432 1.344 1.824.864 3.2 2.08 4.128 3.648.96 1.536 1.44 3.312 1.44 5.328v12.96l2.88.72v.72h-4.32c-1.92 0-3.408-.592-4.464-1.776-.448-.48-.8-1.088-1.056-1.824-.448.8-.976 1.52-1.584 2.16-1.44 1.44-3.232 2.16-5.376 2.16zm1.92-1.68c1.184 0 2.256-.64 3.216-1.92.352-.48.72-1.12 1.104-1.92v-6.96c-1.472 0-2.88.08-4.224.24-.992.128-1.664.208-2.016.24-.16.352-.32.832-.48 1.44a14.104 14.104 0 00-.48 3.6c0 1.792.272 3.12.816 3.984.544.864 1.232 1.296 2.064 1.296zm29.063 1.68c-1.984 0-3.76-.432-5.328-1.296-.768-.416-1.392-.864-1.872-1.344-.512.704-1.072 1.248-1.68 1.632a6.801 6.801 0 01-.96.528h-1.2v-8.16h1.92a13.548 13.548 0 001.824 3.744c1.696 2.464 3.808 3.696 6.336 3.696 1.344 0 2.352-.32 3.024-.96.704-.672 1.056-1.632 1.056-2.88 0-1.056-.48-1.936-1.44-2.64-.928-.736-2.4-1.632-4.416-2.688-1.728-.864-3.136-1.632-4.224-2.304a11.082 11.082 0 01-2.736-2.592c-.736-1.056-1.104-2.288-1.104-3.696 0-1.92.816-3.472 2.448-4.656 1.664-1.216 4.208-1.824 7.632-1.824 1.696 0 3.264.448 4.704 1.344.704.416 1.312.848 1.824 1.296.416-.576.976-1.12 1.68-1.632.544-.32.864-.496.96-.528h1.2v8.16h-1.92c-.48-1.376-1.072-2.608-1.776-3.696-1.6-2.496-3.504-3.744-5.712-3.744-.864 0-1.6.32-2.208.96-.608.64-.912 1.44-.912 2.4 0 1.216.512 2.24 1.536 3.072 1.024.8 2.576 1.728 4.656 2.784 1.696.864 3.04 1.632 4.032 2.304a9.283 9.283 0 012.592 2.4c.736.96 1.104 2.08 1.104 3.36 0 4.64-3.68 6.96-11.04 6.96zm27.122 0c-2.112 0-3.952-.384-5.52-1.152-1.536-.768-2.72-1.824-3.552-3.168-.832-1.344-1.248-2.864-1.248-4.56V440.2h-3.36V439h3.36v-2.4c0-2.88 1.44-4.32 4.32-4.32h3.36V439h6.72v1.2h-6.72v14.64c0 2.944.304 4.96.911 6.048.609 1.088 1.505 1.632 2.689 1.632 1.152 0 2.16-.56 3.024-1.68.864-1.12 1.296-2.64 1.296-4.56h1.2c0 2.368-.592 4.208-1.776 5.52-1.184 1.28-2.752 1.92-4.704 1.92zm22.089 0c-4.096 0-7.28-1.12-9.552-3.36-2.272-2.272-3.408-5.392-3.408-9.36 0-2.592.496-4.848 1.488-6.768s2.368-3.392 4.128-4.416c1.792-1.024 3.84-1.536 6.144-1.536 2.304 0 4.32.432 6.048 1.296 1.76.864 3.104 2.032 4.032 3.504.96 1.44 1.44 3.04 1.44 4.8 0 .8-.08 1.488-.24 2.064l-.24.816a52.21 52.21 0 01-4.464.72c-3.36.48-6.752.72-10.176.72 0 3.712.512 6.368 1.536 7.968 1.024 1.568 2.432 2.352 4.224 2.352a7.1 7.1 0 003.456-.864c1.088-.608 1.936-1.392 2.544-2.352.64-.992.96-2 .96-3.024h1.2c0 1.28-.384 2.496-1.152 3.648-.768 1.152-1.84 2.08-3.216 2.784-1.376.672-2.96 1.008-4.752 1.008zm-4.8-12.72c2.048 0 3.712-.08 4.992-.24.544-.032 1.12-.112 1.728-.24.032-.16.112-.512.24-1.056.16-.8.24-1.648.24-2.544 0-2.656-.352-4.592-1.056-5.808-.704-1.248-1.552-1.872-2.544-1.872-2.4 0-3.6 3.92-3.6 11.76zm18.699 11.28l2.88-.72v-21.12l-2.88-.72V439h4.32c1.888 0 3.376.608 4.464 1.824.416.48.768 1.072 1.056 1.776a9.116 9.116 0 011.776-1.92c1.6-1.28 3.392-1.92 5.376-1.92 1.696 0 2.96.4 3.792 1.2.864.768 1.296 1.888 1.296 3.36 0 1.088-.336 1.968-1.008 2.64-.64.64-1.504.96-2.592.96-.448 0-.896-.032-1.344-.096l-.576-.144v-6.72c-1.632 0-3.12.64-4.464 1.92-.64.64-1.152 1.28-1.536 1.92v17.76l2.88.72v.72h-13.44v-.72z" fill="#fff"/><path d="M642.808 593.76h-4.176c-.832 0-1.248.432-1.248 1.296v11.112c0 .864.416 1.296 1.248 1.296h4.176c.832 0 1.248-.432 1.248-1.296v-11.112c0-.864-.416-1.296-1.248-1.296zm.048 15.24h-4.272c-.944 0-1.664-.248-2.16-.744-.48-.496-.72-1.208-.72-2.136v-11.04c0-.912.24-1.616.72-2.112.496-.512 1.216-.768 2.16-.768h4.272c.928 0 1.64.256 2.136.768.496.496.744 1.2.744 2.112v11.04c0 .912-.248 1.624-.744 2.136-.496.496-1.208.744-2.136.744zm6.158-10.032l-.24-1.968 1.632-.216.288 2.184v2.904h1.416l2.016-3.216.912-1.848 1.8.24-1.032 1.896-2.424 3.696 4.32 6.36h-1.896l-3.768-5.592h-1.344V609h-1.68v-10.032zM662.18 597h2.64l2.376.672-.408 1.464-1.968-.576h-2.592c-.832 0-1.248.432-1.248 1.296v6.312c0 .864.416 1.296 1.248 1.296h2.712l1.968-.576.408 1.464-2.376.648h-2.76c-.944 0-1.664-.248-2.16-.744-.48-.496-.72-1.208-.72-2.136v-6.24c0-.912.24-1.616.72-2.112.496-.512 1.216-.768 2.16-.768zm7.177.672l2.4-.672h2.736c.944 0 1.656.256 2.136.768.496.496.744 1.2.744 2.112v7.224l.264 1.896-1.656.192-.264-2.136-2.688 1.944h-1.176c-.928 0-1.64-.248-2.136-.744-.496-.512-.744-1.224-.744-2.136v-1.464c0-.912.248-1.616.744-2.112.496-.512 1.208-.768 2.136-.768h3.84v-1.92c0-.864-.416-1.296-1.248-1.296h-2.688l-1.968.576-.432-1.464zm2.544 9.792h.696l3.096-2.256v-1.944h-3.792c-.832 0-1.248.432-1.248 1.296v1.608c0 .864.416 1.296 1.248 1.296zm10.553-5.448h5.04V597h1.68v10.008l.24 1.968-1.632.216-.288-2.184v-3.456h-5.04V609h-1.68v-10.032l-.24-1.968 1.632-.216.288 2.184v3.048zm9.989-4.344l2.4-.672h2.736c.944 0 1.656.256 2.136.768.496.496.744 1.2.744 2.112v7.224l.264 1.896-1.656.192-.264-2.136-2.688 1.944h-1.176c-.928 0-1.64-.248-2.136-.744-.496-.512-.744-1.224-.744-2.136v-1.464c0-.912.248-1.616.744-2.112.496-.512 1.208-.768 2.136-.768h3.84v-1.92c0-.864-.416-1.296-1.248-1.296h-2.688l-1.968.576-.432-1.464zm2.544 9.792h.696l3.096-2.256v-1.944h-3.792c-.832 0-1.248.432-1.248 1.296v1.608c0 .864.416 1.296 1.248 1.296zm21.27-13.608l.792-1.848 1.848.24-.912 1.896-4.032 6 5.808 8.856h-1.944l-5.304-8.064h-1.392V609h-1.68v-16.8h1.68v7.152h1.488l3.648-5.496z" fill="#FFBCCC"/><path d="M721.599 597.672l2.4-.672h2.736c.944 0 1.656.256 2.136.768.496.496.744 1.2.744 2.112v7.224l.264 1.896-1.656.192-.264-2.136-2.688 1.944h-1.176c-.928 0-1.64-.248-2.136-.744-.496-.512-.744-1.224-.744-2.136v-1.464c0-.912.248-1.616.744-2.112.496-.512 1.208-.768 2.136-.768h3.84v-1.92c0-.864-.416-1.296-1.248-1.296h-2.688l-1.968.576-.432-1.464zm2.544 9.792h.696l3.096-2.256v-1.944h-3.792c-.832 0-1.248.432-1.248 1.296v1.608c0 .864.416 1.296 1.248 1.296zm8.874-8.496l-.24-1.92 1.632-.216.216 1.704 2.712-1.536h1.2c.928 0 1.64.256 2.136.768.496.496.744 1.2.744 2.112v6.24c0 .912-.248 1.624-.744 2.136-.496.496-1.208.744-2.136.744h-1.152l-2.688-.528v6.048h-1.68v-15.552zm4.704-.408l-3.024 1.68v6.696l2.736.528h1.056c.832 0 1.248-.432 1.248-1.296v-6.312c0-.864-.416-1.296-1.248-1.296h-.768zm6.73-.888l2.4-.672h2.736c.944 0 1.656.256 2.136.768.496.496.744 1.2.744 2.112v7.224l.264 1.896-1.656.192-.264-2.136-2.688 1.944h-1.176c-.928 0-1.64-.248-2.136-.744-.496-.512-.744-1.224-.744-2.136v-1.464c0-.912.248-1.616.744-2.112.496-.512 1.208-.768 2.136-.768h3.84v-1.92c0-.864-.416-1.296-1.248-1.296h-2.688l-1.968.576-.432-1.464zm2.544 9.792h.696l3.096-2.256v-1.944h-3.792c-.832 0-1.248.432-1.248 1.296v1.608c0 .864.416 1.296 1.248 1.296zm15.593 3.816v-3.96l-2.664 1.68h-1.176c-.944 0-1.664-.248-2.16-.744-.48-.496-.72-1.208-.72-2.136v-7.176l-.24-1.896 1.632-.216.288 2.208v7.128c0 .864.416 1.296 1.248 1.296h.696l3.096-2.016V597h1.68v14.28c0 2.16-1.104 3.24-3.312 3.24h-2.352l-2.4-.648.432-1.464 1.968.576h2.52c.528 0 .904-.136 1.128-.408.224-.272.336-.704.336-1.296zm13.421-4.248l.24 1.968-1.632.216-.288-2.184v-8.472h-3.888l-.504 7.704c-.096 1.024-.36 1.76-.792 2.208-.432.448-1.152.672-2.16.672h-.384v-1.536h.384c.496 0 .832-.096 1.008-.288.192-.192.312-.56.36-1.104l.624-9.216h7.032v10.032zm8.646-8.472h-2.544c-.832 0-1.248.432-1.248 1.296v6.312c0 .864.416 1.296 1.248 1.296h2.544c.832 0 1.248-.432 1.248-1.296v-6.312c0-.864-.416-1.296-1.248-1.296zm.048 10.44h-2.64c-.944 0-1.664-.248-2.16-.744-.48-.496-.72-1.208-.72-2.136v-6.24c0-.912.24-1.616.72-2.112.496-.512 1.216-.768 2.16-.768h2.64c.944 0 1.656.256 2.136.768.496.496.744 1.2.744 2.112v6.24c0 .928-.248 1.64-.744 2.136-.48.496-1.192.744-2.136.744zm7.72-1.536h3.768c.832 0 1.248-.432 1.248-1.296v-1.224c0-.864-.456-1.296-1.368-1.296h-3.648v3.816zm3.264-8.904h-3.264v3.528h3.144c.912 0 1.368-.432 1.368-1.296v-.936c0-.864-.416-1.296-1.248-1.296zm.552 10.44h-5.496v-12h4.992c.928 0 1.64.256 2.136.768.496.496.744 1.2.744 2.112v.624c0 1.184-.4 1.912-1.2 2.184h-.216v.096h.24c1.12.32 1.68 1.112 1.68 2.376v.96c0 .928-.248 1.64-.744 2.136-.48.496-1.192.744-2.136.744zm5.54-11.328l2.4-.672h2.736c.944 0 1.656.256 2.136.768.496.496.744 1.2.744 2.112v7.224l.264 1.896-1.656.192-.264-2.136-2.688 1.944h-1.176c-.928 0-1.64-.248-2.136-.744-.496-.512-.744-1.224-.744-2.136v-1.464c0-.912.248-1.616.744-2.112.496-.512 1.208-.768 2.136-.768h3.84v-1.92c0-.864-.416-1.296-1.248-1.296h-2.688l-1.968.576-.432-1.464zm2.544 9.792h.696l3.096-2.256v-1.944h-3.792c-.832 0-1.248.432-1.248 1.296v1.608c0 .864.416 1.296 1.248 1.296z" fill="#fff"/><path d="M720 300H372v300m-1 0h260.002" stroke="#FFBCCC" stroke-width="2"/><path d="M812 601h260m-.96-.997V298.996M720 300h351" stroke="#fff" stroke-width="2"/></svg>