<svg width="320" height="568" viewBox="0 0 320 568" fill="none" xmlns="http://www.w3.org/2000/svg">
<rect width="320" height="568" fill="white"/>
<rect width="320" height="50" fill="#C4C4C4"/>
<rect x="160" width="160" height="568" fill="#FFBCCC"/>
<rect width="160" height="568" fill="white"/>
<rect x="160" width="160" height="568" fill="#FFBCCC"/>
<rect width="160" height="568" fill="white"/>
<rect x="160" width="160" height="568" fill="#FFBCCC"/>
<rect width="160" height="568" fill="white"/>
<path d="M127.303 338.285H125.737C125.425 338.285 125.269 338.447 125.269 338.771V342.938C125.269 343.262 125.425 343.424 125.737 343.424H127.303C127.615 343.424 127.771 343.262 127.771 342.938V338.771C127.771 338.447 127.615 338.285 127.303 338.285ZM127.321 344H125.719C125.365 344 125.095 343.907 124.909 343.721C124.729 343.535 124.639 343.268 124.639 342.92V338.78C124.639 338.438 124.729 338.174 124.909 337.988C125.095 337.796 125.365 337.7 125.719 337.7H127.321C127.669 337.7 127.936 337.796 128.122 337.988C128.308 338.174 128.401 338.438 128.401 338.78V342.92C128.401 343.262 128.308 343.529 128.122 343.721C127.936 343.907 127.669 344 127.321 344ZM129.63 340.238L129.54 339.5L130.152 339.419L130.26 340.238V341.327H130.791L131.547 340.121L131.889 339.428L132.564 339.518L132.177 340.229L131.268 341.615L132.888 344H132.177L130.764 341.903H130.26V344H129.63V340.238ZM134.567 339.5H135.557L136.448 339.752L136.295 340.301L135.557 340.085H134.585C134.273 340.085 134.117 340.247 134.117 340.571V342.938C134.117 343.262 134.273 343.424 134.585 343.424H135.602L136.34 343.208L136.493 343.757L135.602 344H134.567C134.213 344 133.943 343.907 133.757 343.721C133.577 343.535 133.487 343.268 133.487 342.92V340.58C133.487 340.238 133.577 339.974 133.757 339.788C133.943 339.596 134.213 339.5 134.567 339.5ZM137.259 339.752L138.159 339.5H139.185C139.539 339.5 139.806 339.596 139.986 339.788C140.172 339.974 140.265 340.238 140.265 340.58V343.289L140.364 344L139.743 344.072L139.644 343.271L138.636 344H138.195C137.847 344 137.58 343.907 137.394 343.721C137.208 343.529 137.115 343.262 137.115 342.92V342.371C137.115 342.029 137.208 341.765 137.394 341.579C137.58 341.387 137.847 341.291 138.195 341.291H139.635V340.571C139.635 340.247 139.479 340.085 139.167 340.085H138.159L137.421 340.301L137.259 339.752ZM138.213 343.424H138.474L139.635 342.578V341.849H138.213C137.901 341.849 137.745 342.011 137.745 342.335V342.938C137.745 343.262 137.901 343.424 138.213 343.424ZM142.17 341.381H144.06V339.5H144.69V343.253L144.78 343.991L144.168 344.072L144.06 343.253V341.957H142.17V344H141.54V340.238L141.45 339.5L142.062 339.419L142.17 340.238V341.381ZM145.916 339.752L146.816 339.5H147.842C148.196 339.5 148.463 339.596 148.643 339.788C148.829 339.974 148.922 340.238 148.922 340.58V343.289L149.021 344L148.4 344.072L148.301 343.271L147.293 344H146.852C146.504 344 146.237 343.907 146.051 343.721C145.865 343.529 145.772 343.262 145.772 342.92V342.371C145.772 342.029 145.865 341.765 146.051 341.579C146.237 341.387 146.504 341.291 146.852 341.291H148.292V340.571C148.292 340.247 148.136 340.085 147.824 340.085H146.816L146.078 340.301L145.916 339.752ZM146.87 343.424H147.131L148.292 342.578V341.849H146.87C146.558 341.849 146.402 342.011 146.402 342.335V342.938C146.402 343.262 146.558 343.424 146.87 343.424ZM154.846 338.321L155.143 337.628L155.836 337.718L155.494 338.429L153.982 340.679L156.16 344H155.431L153.442 340.976H152.92V344H152.29V337.7H152.92V340.382H153.478L154.846 338.321ZM156.85 339.752L157.75 339.5H158.776C159.13 339.5 159.397 339.596 159.577 339.788C159.763 339.974 159.856 340.238 159.856 340.58V343.289L159.955 344L159.334 344.072L159.235 343.271L158.227 344H157.786C157.438 344 157.171 343.907 156.985 343.721C156.799 343.529 156.706 343.262 156.706 342.92V342.371C156.706 342.029 156.799 341.765 156.985 341.579C157.171 341.387 157.438 341.291 157.786 341.291H159.226V340.571C159.226 340.247 159.07 340.085 158.758 340.085H157.75L157.012 340.301L156.85 339.752ZM157.804 343.424H158.065L159.226 342.578V341.849H157.804C157.492 341.849 157.336 342.011 157.336 342.335V342.938C157.336 343.262 157.492 343.424 157.804 343.424Z" fill="#FFBCCC"/>
<path d="M161.131 340.238L161.041 339.518L161.653 339.437L161.734 340.076L162.751 339.5H163.201C163.549 339.5 163.816 339.596 164.002 339.788C164.188 339.974 164.281 340.238 164.281 340.58V342.92C164.281 343.262 164.188 343.529 164.002 343.721C163.816 343.907 163.549 344 163.201 344H162.769L161.761 343.802V346.07H161.131V340.238ZM162.895 340.085L161.761 340.715V343.226L162.787 343.424H163.183C163.495 343.424 163.651 343.262 163.651 342.938V340.571C163.651 340.247 163.495 340.085 163.183 340.085H162.895ZM165.419 339.752L166.319 339.5H167.345C167.699 339.5 167.966 339.596 168.146 339.788C168.332 339.974 168.425 340.238 168.425 340.58V343.289L168.524 344L167.903 344.072L167.804 343.271L166.796 344H166.355C166.007 344 165.74 343.907 165.554 343.721C165.368 343.529 165.275 343.262 165.275 342.92V342.371C165.275 342.029 165.368 341.765 165.554 341.579C165.74 341.387 166.007 341.291 166.355 341.291H167.795V340.571C167.795 340.247 167.639 340.085 167.327 340.085H166.319L165.581 340.301L165.419 339.752ZM166.373 343.424H166.634L167.795 342.578V341.849H166.373C166.061 341.849 165.905 342.011 165.905 342.335V342.938C165.905 343.262 166.061 343.424 166.373 343.424ZM172.221 344.855V343.37L171.222 344H170.781C170.427 344 170.157 343.907 169.971 343.721C169.791 343.535 169.701 343.268 169.701 342.92V340.229L169.611 339.518L170.223 339.437L170.331 340.265V342.938C170.331 343.262 170.487 343.424 170.799 343.424H171.06L172.221 342.668V339.5H172.851V344.855C172.851 345.665 172.437 346.07 171.609 346.07H170.727L169.827 345.827L169.989 345.278L170.727 345.494H171.672C171.87 345.494 172.011 345.443 172.095 345.341C172.179 345.239 172.221 345.077 172.221 344.855ZM177.253 343.262L177.343 344L176.731 344.081L176.623 343.262V340.085H175.165L174.976 342.974C174.94 343.358 174.841 343.634 174.679 343.802C174.517 343.97 174.247 344.054 173.869 344.054H173.725V343.478H173.869C174.055 343.478 174.181 343.442 174.247 343.37C174.319 343.298 174.364 343.16 174.382 342.956L174.616 339.5H177.253V343.262ZM180.496 340.085H179.542C179.23 340.085 179.074 340.247 179.074 340.571V342.938C179.074 343.262 179.23 343.424 179.542 343.424H180.496C180.808 343.424 180.964 343.262 180.964 342.938V340.571C180.964 340.247 180.808 340.085 180.496 340.085ZM180.514 344H179.524C179.17 344 178.9 343.907 178.714 343.721C178.534 343.535 178.444 343.268 178.444 342.92V340.58C178.444 340.238 178.534 339.974 178.714 339.788C178.9 339.596 179.17 339.5 179.524 339.5H180.514C180.868 339.5 181.135 339.596 181.315 339.788C181.501 339.974 181.594 340.238 181.594 340.58V342.92C181.594 343.268 181.501 343.535 181.315 343.721C181.135 343.907 180.868 344 180.514 344ZM183.409 343.424H184.822C185.134 343.424 185.29 343.262 185.29 342.938V342.479C185.29 342.155 185.119 341.993 184.777 341.993H183.409V343.424ZM184.633 340.085H183.409V341.408H184.588C184.93 341.408 185.101 341.246 185.101 340.922V340.571C185.101 340.247 184.945 340.085 184.633 340.085ZM184.84 344H182.779V339.5H184.651C184.999 339.5 185.266 339.596 185.452 339.788C185.638 339.974 185.731 340.238 185.731 340.58V340.814C185.731 341.258 185.581 341.531 185.281 341.633H185.2V341.669H185.29C185.71 341.789 185.92 342.086 185.92 342.56V342.92C185.92 343.268 185.827 343.535 185.641 343.721C185.461 343.907 185.194 344 184.84 344ZM186.917 339.752L187.817 339.5H188.843C189.197 339.5 189.464 339.596 189.644 339.788C189.83 339.974 189.923 340.238 189.923 340.58V343.289L190.022 344L189.401 344.072L189.302 343.271L188.294 344H187.853C187.505 344 187.238 343.907 187.052 343.721C186.866 343.529 186.773 343.262 186.773 342.92V342.371C186.773 342.029 186.866 341.765 187.052 341.579C187.238 341.387 187.505 341.291 187.853 341.291H189.293V340.571C189.293 340.247 189.137 340.085 188.825 340.085H187.817L187.079 340.301L186.917 339.752ZM187.871 343.424H188.132L189.293 342.578V341.849H187.871C187.559 341.849 187.403 342.011 187.403 342.335V342.938C187.403 343.262 187.559 343.424 187.871 343.424Z" fill="white"/>
<path d="M158.908 220.402H19.4009V280.535V340.667" stroke="#FFBCCC" stroke-width="0.801764"/>
<path d="M19 340.667H123.23" stroke="#FFBCCC" stroke-width="0.801764"/>
<path d="M195.789 341.068H300.018" stroke="white" stroke-width="0.801764"/>
<line x1="299.633" y1="340.668" x2="299.633" y2="220" stroke="white" stroke-width="0.801764"/>
<line x1="158.908" y1="220.402" x2="299.617" y2="220.402" stroke="white" stroke-width="0.801764"/>
<path d="M68.98 288.9C67.6627 288.9 66.453 288.571 65.351 287.912C64.249 287.266 63.375 286.379 62.729 285.252C62.083 284.112 61.76 282.858 61.76 281.49C61.76 280.122 62.083 278.874 62.729 277.747C63.375 276.607 64.249 275.714 65.351 275.068C66.453 274.409 67.6627 274.08 68.98 274.08C70.2973 274.08 71.507 274.409 72.609 275.068C73.711 275.714 74.585 276.607 75.231 277.747C75.877 278.874 76.2 280.122 76.2 281.49C76.2 282.313 76.0543 283.035 75.763 283.656C75.4717 284.277 75.0853 284.752 74.604 285.081C74.1227 285.41 73.6097 285.575 73.065 285.575C71.8743 285.575 71.013 285.322 70.481 284.815C70.253 284.587 70.101 284.334 70.025 284.055C69.9363 284.334 69.8033 284.587 69.626 284.815C69.2207 285.322 68.657 285.575 67.935 285.575C67.0103 285.575 66.2567 285.258 65.674 284.625C65.0913 283.992 64.8 283.137 64.8 282.06C64.8 280.616 65.2117 279.495 66.035 278.697C66.871 277.899 68.0743 277.5 69.645 277.5H72.4V283.675C72.4 284.144 72.495 284.498 72.685 284.739C72.8877 284.98 73.141 285.1 73.445 285.1C73.749 285.1 74.0593 284.961 74.376 284.682C74.7053 284.391 74.9777 283.973 75.193 283.428C75.421 282.883 75.535 282.237 75.535 281.49C75.535 280.223 75.2373 279.071 74.642 278.032C74.0593 276.981 73.2677 276.157 72.267 275.562C71.2663 274.954 70.1707 274.65 68.98 274.65C67.7893 274.65 66.6937 274.954 65.693 275.562C64.6923 276.157 63.8943 276.981 63.299 278.032C62.7163 279.071 62.425 280.223 62.425 281.49C62.425 282.757 62.7163 283.916 63.299 284.967C63.8943 286.006 64.6923 286.823 65.693 287.418C66.6937 288.026 67.7893 288.33 68.98 288.33C69.816 288.33 70.6773 288.14 71.564 287.76C71.944 287.583 72.286 287.393 72.59 287.19L72.875 287.665C72.571 287.906 72.2037 288.115 71.773 288.292C70.861 288.697 69.93 288.9 68.98 288.9ZM68.695 284.91C68.9737 284.91 69.2143 284.72 69.417 284.34C69.5183 284.163 69.5943 283.973 69.645 283.77V277.975C68.2517 277.975 67.555 279.337 67.555 282.06C67.555 283.073 67.6627 283.802 67.878 284.245C68.0933 284.688 68.3657 284.91 68.695 284.91ZM82.752 287.285C81.1814 287.285 79.9464 286.842 79.047 285.955C78.1604 285.056 77.717 283.821 77.717 282.25C77.717 280.679 78.1604 279.451 79.047 278.564C79.9464 277.665 81.1814 277.215 82.752 277.215C84.3227 277.215 85.5514 277.665 86.438 278.564C87.3374 279.451 87.787 280.679 87.787 282.25C87.787 283.821 87.3374 285.056 86.438 285.955C85.5514 286.842 84.3227 287.285 82.752 287.285ZM82.752 286.905C83.2587 286.905 83.683 286.55 84.025 285.841C84.3797 285.132 84.557 283.935 84.557 282.25C84.557 280.565 84.3797 279.368 84.025 278.659C83.683 277.95 83.2587 277.595 82.752 277.595C82.2454 277.595 81.8147 277.95 81.46 278.659C81.118 279.368 80.947 280.565 80.947 282.25C80.947 283.935 81.118 285.132 81.46 285.841C81.8147 286.55 82.2454 286.905 82.752 286.905ZM89.3137 286.715L90.4537 286.43V274.27L89.3137 273.985V273.7H91.7837C92.9237 273.7 93.4937 274.27 93.4937 275.41V282.06L97.0087 278.355L95.5837 277.785V277.5H99.1937V277.785L97.6737 278.355L95.4887 280.635L99.1937 286.43L100.144 286.715V287H97.6737C97.0657 287 96.5717 286.867 96.1917 286.601C95.8117 286.335 95.4507 285.93 95.1087 285.385L93.4937 282.82V286.43L94.6337 286.715V287H89.3137V286.715ZM105.171 287.285C104.386 287.285 103.683 287.114 103.062 286.772C102.758 286.607 102.511 286.43 102.321 286.24C102.119 286.519 101.897 286.734 101.656 286.886C101.542 286.962 101.416 287.032 101.276 287.095H100.801V283.865H101.561C101.726 284.397 101.967 284.891 102.283 285.347C102.955 286.322 103.791 286.81 104.791 286.81C105.323 286.81 105.722 286.683 105.988 286.43C106.267 286.164 106.406 285.784 106.406 285.29C106.406 284.872 106.216 284.524 105.836 284.245C105.469 283.954 104.886 283.599 104.088 283.181C103.404 282.839 102.847 282.535 102.416 282.269C101.998 281.99 101.637 281.648 101.333 281.243C101.042 280.825 100.896 280.337 100.896 279.78C100.896 279.02 101.219 278.406 101.865 277.937C102.524 277.456 103.531 277.215 104.886 277.215C105.558 277.215 106.178 277.392 106.748 277.747C107.027 277.912 107.268 278.083 107.47 278.26C107.635 278.032 107.857 277.817 108.135 277.614C108.351 277.487 108.477 277.418 108.515 277.405H108.99V280.635H108.23C108.04 280.09 107.806 279.603 107.527 279.172C106.894 278.184 106.14 277.69 105.266 277.69C104.924 277.69 104.633 277.817 104.392 278.07C104.152 278.323 104.031 278.64 104.031 279.02C104.031 279.501 104.234 279.907 104.639 280.236C105.045 280.553 105.659 280.92 106.482 281.338C107.154 281.68 107.686 281.984 108.078 282.25C108.484 282.503 108.826 282.82 109.104 283.2C109.396 283.58 109.541 284.023 109.541 284.53C109.541 286.367 108.085 287.285 105.171 287.285ZM114.672 287.285C113.545 287.285 112.677 287.044 112.069 286.563C111.461 286.082 111.157 285.467 111.157 284.72C111.157 284.226 111.265 283.738 111.48 283.257C111.569 283.029 111.683 282.82 111.822 282.63C112.341 282.503 112.905 282.389 113.513 282.288C114.881 282.06 116.091 281.921 117.142 281.87V281.3C117.142 279.894 116.971 278.925 116.629 278.393C116.287 277.861 115.761 277.595 115.052 277.595C114.786 277.595 114.558 277.627 114.368 277.69L114.102 277.785V280.635L113.855 280.692C113.652 280.717 113.481 280.73 113.342 280.73C112.911 280.73 112.563 280.603 112.297 280.35C112.044 280.084 111.917 279.736 111.917 279.305C111.917 278.722 112.208 278.228 112.791 277.823C113.386 277.418 114.267 277.215 115.432 277.215C116.42 277.215 117.269 277.392 117.978 277.747C118.7 278.089 119.245 278.57 119.612 279.191C119.992 279.799 120.182 280.502 120.182 281.3V286.43L121.322 286.715V287H119.612C118.852 287 118.263 286.766 117.845 286.297C117.668 286.107 117.528 285.866 117.427 285.575C117.25 285.892 117.041 286.177 116.8 286.43C116.23 287 115.521 287.285 114.672 287.285ZM115.432 286.62C115.901 286.62 116.325 286.367 116.705 285.86C116.844 285.67 116.99 285.417 117.142 285.1V282.345C116.559 282.345 116.002 282.377 115.47 282.44C115.077 282.491 114.811 282.522 114.672 282.535C114.609 282.674 114.545 282.864 114.482 283.105C114.355 283.586 114.292 284.061 114.292 284.53C114.292 285.239 114.4 285.765 114.615 286.107C114.83 286.449 115.103 286.62 115.432 286.62ZM122.471 286.715L123.611 286.43V278.07L122.471 277.785V277.5H124.181C124.928 277.5 125.517 277.741 125.948 278.222C126.113 278.412 126.252 278.646 126.366 278.925C126.543 278.596 126.752 278.311 126.993 278.07C127.563 277.5 128.272 277.215 129.121 277.215C129.83 277.215 130.464 277.367 131.021 277.671C131.591 277.962 132.034 278.349 132.351 278.83C132.668 279.311 132.826 279.818 132.826 280.35V286.43L133.966 286.715V287H131.496C130.356 287 129.786 286.43 129.786 285.29V280.35C129.786 279.552 129.64 278.944 129.349 278.526C129.07 278.095 128.741 277.88 128.361 277.88C127.88 277.88 127.449 278.133 127.069 278.64C126.904 278.855 126.765 279.109 126.651 279.4V286.43L127.791 286.715V287H122.471V286.715ZM138.812 287.285C137.684 287.285 136.817 287.044 136.209 286.563C135.601 286.082 135.297 285.467 135.297 284.72C135.297 284.226 135.404 283.738 135.62 283.257C135.708 283.029 135.822 282.82 135.962 282.63C136.481 282.503 137.045 282.389 137.653 282.288C139.021 282.06 140.23 281.921 141.282 281.87V281.3C141.282 279.894 141.111 278.925 140.769 278.393C140.427 277.861 139.901 277.595 139.192 277.595C138.926 277.595 138.698 277.627 138.508 277.69L138.242 277.785V280.635L137.995 280.692C137.792 280.717 137.621 280.73 137.482 280.73C137.051 280.73 136.703 280.603 136.437 280.35C136.183 280.084 136.057 279.736 136.057 279.305C136.057 278.722 136.348 278.228 136.931 277.823C137.526 277.418 138.406 277.215 139.572 277.215C140.56 277.215 141.408 277.392 142.118 277.747C142.84 278.089 143.384 278.57 143.752 279.191C144.132 279.799 144.322 280.502 144.322 281.3V286.43L145.462 286.715V287H143.752C142.992 287 142.403 286.766 141.985 286.297C141.807 286.107 141.668 285.866 141.567 285.575C141.389 285.892 141.18 286.177 140.94 286.43C140.37 287 139.66 287.285 138.812 287.285ZM139.572 286.62C140.04 286.62 140.465 286.367 140.845 285.86C140.984 285.67 141.13 285.417 141.282 285.1V282.345C140.699 282.345 140.142 282.377 139.61 282.44C139.217 282.491 138.951 282.522 138.812 282.535C138.748 282.674 138.685 282.864 138.622 283.105C138.495 283.586 138.432 284.061 138.432 284.53C138.432 285.239 138.539 285.765 138.755 286.107C138.97 286.449 139.242 286.62 139.572 286.62ZM146.611 286.715L147.751 286.43V274.27L146.611 273.985V273.7H149.081C150.221 273.7 150.791 274.27 150.791 275.41V282.06L154.306 278.355L152.881 277.785V277.5H156.491V277.785L154.971 278.355L152.786 280.635L156.491 286.43L157.441 286.715V287H154.971C154.363 287 153.869 286.867 153.489 286.601C153.109 286.335 152.748 285.93 152.406 285.385L150.791 282.82V286.43L151.931 286.715V287H146.611V286.715Z" fill="#FFBCCC"/>
<path d="M157.243 288.9V288.045H164.653V288.9H157.243ZM165.406 286.715L166.546 286.43V278.07L165.406 277.785V277.5H167.116C167.864 277.5 168.453 277.741 168.883 278.222C169.048 278.412 169.187 278.646 169.301 278.925C169.491 278.57 169.694 278.285 169.909 278.07C170.479 277.5 171.132 277.215 171.866 277.215C172.601 277.215 173.247 277.38 173.804 277.709C174.362 278.026 174.792 278.463 175.096 279.02C175.286 278.653 175.489 278.355 175.704 278.127C176.287 277.519 176.939 277.215 177.661 277.215C178.333 277.215 178.934 277.354 179.466 277.633C180.011 277.912 180.429 278.292 180.72 278.773C181.024 279.254 181.176 279.78 181.176 280.35V286.43L182.316 286.715V287H179.846C178.706 287 178.136 286.43 178.136 285.29V280.35C178.136 279.527 178.01 278.912 177.756 278.507C177.503 278.089 177.218 277.88 176.901 277.88C176.534 277.88 176.16 278.133 175.78 278.64C175.628 278.881 175.495 279.134 175.381 279.4V286.43L176.521 286.715V287H171.201V286.715L172.341 286.43V280.35C172.341 279.527 172.215 278.912 171.961 278.507C171.708 278.089 171.423 277.88 171.106 277.88C170.739 277.88 170.365 278.133 169.985 278.64C169.833 278.881 169.7 279.134 169.586 279.4V286.43L170.726 286.715V287H165.406V286.715ZM187.165 287.285C186.038 287.285 185.17 287.044 184.562 286.563C183.954 286.082 183.65 285.467 183.65 284.72C183.65 284.226 183.758 283.738 183.973 283.257C184.062 283.029 184.176 282.82 184.315 282.63C184.835 282.503 185.398 282.389 186.006 282.288C187.374 282.06 188.584 281.921 189.635 281.87V281.3C189.635 279.894 189.464 278.925 189.122 278.393C188.78 277.861 188.255 277.595 187.545 277.595C187.279 277.595 187.051 277.627 186.861 277.69L186.595 277.785V280.635L186.348 280.692C186.146 280.717 185.975 280.73 185.835 280.73C185.405 280.73 185.056 280.603 184.79 280.35C184.537 280.084 184.41 279.736 184.41 279.305C184.41 278.722 184.702 278.228 185.284 277.823C185.88 277.418 186.76 277.215 187.925 277.215C188.913 277.215 189.762 277.392 190.471 277.747C191.193 278.089 191.738 278.57 192.105 279.191C192.485 279.799 192.675 280.502 192.675 281.3V286.43L193.815 286.715V287H192.105C191.345 287 190.756 286.766 190.338 286.297C190.161 286.107 190.022 285.866 189.92 285.575C189.743 285.892 189.534 286.177 189.293 286.43C188.723 287 188.014 287.285 187.165 287.285ZM187.925 286.62C188.394 286.62 188.818 286.367 189.198 285.86C189.338 285.67 189.483 285.417 189.635 285.1V282.345C189.053 282.345 188.495 282.377 187.963 282.44C187.571 282.491 187.305 282.522 187.165 282.535C187.102 282.674 187.039 282.864 186.975 283.105C186.849 283.586 186.785 284.061 186.785 284.53C186.785 285.239 186.893 285.765 187.108 286.107C187.324 286.449 187.596 286.62 187.925 286.62ZM199.429 287.285C198.644 287.285 197.941 287.114 197.32 286.772C197.016 286.607 196.769 286.43 196.579 286.24C196.376 286.519 196.155 286.734 195.914 286.886C195.8 286.962 195.673 287.032 195.534 287.095H195.059V283.865H195.819C195.984 284.397 196.224 284.891 196.541 285.347C197.212 286.322 198.048 286.81 199.049 286.81C199.581 286.81 199.98 286.683 200.246 286.43C200.525 286.164 200.664 285.784 200.664 285.29C200.664 284.872 200.474 284.524 200.094 284.245C199.727 283.954 199.144 283.599 198.346 283.181C197.662 282.839 197.105 282.535 196.674 282.269C196.256 281.99 195.895 281.648 195.591 281.243C195.3 280.825 195.154 280.337 195.154 279.78C195.154 279.02 195.477 278.406 196.123 277.937C196.782 277.456 197.789 277.215 199.144 277.215C199.815 277.215 200.436 277.392 201.006 277.747C201.285 277.912 201.525 278.083 201.728 278.26C201.893 278.032 202.114 277.817 202.393 277.614C202.608 277.487 202.735 277.418 202.773 277.405H203.248V280.635H202.488C202.298 280.09 202.064 279.603 201.785 279.172C201.152 278.184 200.398 277.69 199.524 277.69C199.182 277.69 198.891 277.817 198.65 278.07C198.409 278.323 198.289 278.64 198.289 279.02C198.289 279.501 198.492 279.907 198.897 280.236C199.302 280.553 199.917 280.92 200.74 281.338C201.411 281.68 201.943 281.984 202.336 282.25C202.741 282.503 203.083 282.82 203.362 283.2C203.653 283.58 203.799 284.023 203.799 284.53C203.799 286.367 202.342 287.285 199.429 287.285ZM210.165 287.285C209.329 287.285 208.601 287.133 207.98 286.829C207.372 286.525 206.903 286.107 206.574 285.575C206.245 285.043 206.08 284.441 206.08 283.77V277.975H204.75V277.5H206.08V276.55C206.08 275.41 206.65 274.84 207.79 274.84H209.12V277.5H211.78V277.975H209.12V283.77C209.12 284.935 209.24 285.733 209.481 286.164C209.722 286.595 210.076 286.81 210.545 286.81C211.001 286.81 211.4 286.588 211.742 286.145C212.084 285.702 212.255 285.1 212.255 284.34H212.73C212.73 285.277 212.496 286.006 212.027 286.525C211.558 287.032 210.938 287.285 210.165 287.285ZM218.909 287.285C217.287 287.285 216.027 286.842 215.128 285.955C214.228 285.056 213.779 283.821 213.779 282.25C213.779 281.224 213.975 280.331 214.368 279.571C214.76 278.811 215.305 278.228 216.002 277.823C216.711 277.418 217.522 277.215 218.434 277.215C219.346 277.215 220.144 277.386 220.828 277.728C221.524 278.07 222.056 278.532 222.424 279.115C222.804 279.685 222.994 280.318 222.994 281.015C222.994 281.332 222.962 281.604 222.899 281.832L222.804 282.155C222.259 282.269 221.67 282.364 221.037 282.44C219.707 282.63 218.364 282.725 217.009 282.725C217.009 284.194 217.211 285.246 217.617 285.879C218.022 286.5 218.579 286.81 219.289 286.81C219.783 286.81 220.239 286.696 220.657 286.468C221.087 286.227 221.423 285.917 221.664 285.537C221.917 285.144 222.044 284.745 222.044 284.34H222.519C222.519 284.847 222.367 285.328 222.063 285.784C221.759 286.24 221.334 286.607 220.79 286.886C220.245 287.152 219.618 287.285 218.909 287.285ZM217.009 282.25C217.819 282.25 218.478 282.218 218.985 282.155C219.2 282.142 219.428 282.111 219.669 282.06C219.681 281.997 219.713 281.857 219.764 281.642C219.827 281.325 219.859 280.99 219.859 280.635C219.859 279.584 219.719 278.817 219.441 278.336C219.162 277.842 218.826 277.595 218.434 277.595C217.484 277.595 217.009 279.147 217.009 282.25ZM224.41 286.715L225.55 286.43V278.07L224.41 277.785V277.5H226.12C226.868 277.5 227.457 277.741 227.887 278.222C228.052 278.412 228.191 278.646 228.305 278.925C228.495 278.646 228.73 278.393 229.008 278.165C229.642 277.658 230.351 277.405 231.136 277.405C231.808 277.405 232.308 277.563 232.637 277.88C232.979 278.184 233.15 278.627 233.15 279.21C233.15 279.641 233.017 279.989 232.751 280.255C232.498 280.508 232.156 280.635 231.725 280.635C231.548 280.635 231.371 280.622 231.193 280.597L230.965 280.54V277.88C230.319 277.88 229.73 278.133 229.198 278.64C228.945 278.893 228.742 279.147 228.59 279.4V286.43L229.73 286.715V287H224.41V286.715Z" fill="white"/>
<path d="M65.351 287.912L65.3561 287.903L65.3561 287.903L65.351 287.912ZM62.729 285.252L62.7203 285.257L62.7203 285.257L62.729 285.252ZM62.729 277.747L62.7377 277.752L62.7377 277.752L62.729 277.747ZM65.351 275.068L65.3561 275.077L65.3561 275.077L65.351 275.068ZM72.609 275.068L72.6039 275.077L72.6039 275.077L72.609 275.068ZM75.231 277.747L75.2223 277.752L75.2223 277.752L75.231 277.747ZM75.763 283.656L75.7539 283.652L75.763 283.656ZM74.604 285.081L74.5984 285.073L74.604 285.081ZM70.481 284.815L70.4739 284.822L70.4741 284.822L70.481 284.815ZM70.025 284.055L70.0346 284.052L70.0257 284.02L70.0155 284.052L70.025 284.055ZM69.626 284.815L69.6338 284.821L69.6339 284.821L69.626 284.815ZM65.674 284.625L65.6666 284.632L65.674 284.625ZM66.035 278.697L66.0281 278.69L66.028 278.69L66.035 278.697ZM72.685 284.739L72.6771 284.745L72.6774 284.745L72.685 284.739ZM74.376 284.682L74.3826 284.69L74.3826 284.689L74.376 284.682ZM75.193 283.428L75.1838 283.424L75.1837 283.424L75.193 283.428ZM74.642 278.032L74.6333 278.037L74.6333 278.037L74.642 278.032ZM72.267 275.562L72.2618 275.571L72.2619 275.571L72.267 275.562ZM65.693 275.562L65.6981 275.571L65.6982 275.571L65.693 275.562ZM63.299 278.032L63.2903 278.027L63.2903 278.027L63.299 278.032ZM63.299 284.967L63.2903 284.972L63.2903 284.972L63.299 284.967ZM65.693 287.418L65.6982 287.409L65.6981 287.409L65.693 287.418ZM71.564 287.76L71.5679 287.769L71.5682 287.769L71.564 287.76ZM72.59 287.19L72.5986 287.185L72.5932 287.176L72.5845 287.182L72.59 287.19ZM72.875 287.665L72.9232 287.726L72.8836 287.66L72.875 287.665ZM71.773 288.292L71.7692 288.283L71.7689 288.283L71.773 288.292ZM69.417 284.34L69.4083 284.335L69.4082 284.335L69.417 284.34ZM69.645 283.77L69.655 283.773V283.77H69.645ZM67.878 284.245L67.887 284.241L67.878 284.245ZM68.98 288.89C67.6644 288.89 66.4565 288.561 65.3561 287.903L65.3459 287.921C66.4495 288.58 67.6609 288.91 68.98 288.91V288.89ZM65.3561 287.903C64.2556 287.258 63.3828 286.373 62.7377 285.247L62.7203 285.257C63.3672 286.386 64.2424 287.274 65.3459 287.921L65.3561 287.903ZM62.7377 285.247C62.0926 284.109 61.77 282.856 61.77 281.49H61.75C61.75 282.86 62.0734 284.115 62.7203 285.257L62.7377 285.247ZM61.77 281.49C61.77 280.124 62.0926 278.878 62.7377 277.752L62.7203 277.742C62.0734 278.871 61.75 280.12 61.75 281.49H61.77ZM62.7377 277.752C63.3829 276.613 64.2556 275.722 65.3561 275.077L65.3459 275.059C64.2424 275.706 63.3671 276.601 62.7203 277.742L62.7377 277.752ZM65.3561 275.077C66.4565 274.419 67.6644 274.09 68.98 274.09V274.07C67.6609 274.07 66.4495 274.4 65.3459 275.059L65.3561 275.077ZM68.98 274.09C70.2956 274.09 71.5035 274.419 72.6039 275.077L72.6141 275.059C71.5105 274.4 70.2991 274.07 68.98 274.07V274.09ZM72.6039 275.077C73.7044 275.722 74.5771 276.613 75.2223 277.752L75.2397 277.742C74.5929 276.601 73.7176 275.706 72.6141 275.059L72.6039 275.077ZM75.2223 277.752C75.8674 278.878 76.19 280.124 76.19 281.49H76.21C76.21 280.12 75.8866 278.871 75.2397 277.742L75.2223 277.752ZM76.19 281.49C76.19 282.312 76.0445 283.033 75.7539 283.652L75.7721 283.66C76.0641 283.038 76.21 282.315 76.21 281.49H76.19ZM75.7539 283.652C75.4632 284.271 75.078 284.745 74.5984 285.073L74.6096 285.089C75.0927 284.759 75.4801 284.282 75.7721 283.66L75.7539 283.652ZM74.5984 285.073C74.1186 285.401 73.6075 285.565 73.065 285.565V285.585C73.6118 285.585 74.1268 285.42 74.6096 285.089L74.5984 285.073ZM73.065 285.565C71.8754 285.565 71.0172 285.312 70.4879 284.808L70.4741 284.822C71.0088 285.332 71.8733 285.585 73.065 285.585V285.565ZM70.4881 284.808C70.2612 284.581 70.1101 284.329 70.0346 284.052L70.0154 284.058C70.0919 284.338 70.2448 284.593 70.4739 284.822L70.4881 284.808ZM70.0155 284.052C69.9272 284.33 69.7947 284.582 69.6181 284.809L69.6339 284.821C69.812 284.592 69.9455 284.338 70.0345 284.058L70.0155 284.052ZM69.6182 284.809C69.215 285.313 68.6544 285.565 67.935 285.565V285.585C68.6596 285.585 69.2263 285.331 69.6338 284.821L69.6182 284.809ZM67.935 285.565C67.0129 285.565 66.262 285.249 65.6814 284.618L65.6666 284.632C66.2514 285.267 67.0078 285.585 67.935 285.585V285.565ZM65.6814 284.618C65.1008 283.987 64.81 283.135 64.81 282.06H64.79C64.79 283.139 65.0819 283.996 65.6666 284.632L65.6814 284.618ZM64.81 282.06C64.81 280.618 65.221 279.5 66.042 278.704L66.028 278.69C65.2023 279.49 64.79 280.614 64.79 282.06H64.81ZM66.0419 278.704C66.8755 277.909 68.076 277.51 69.645 277.51V277.49C68.0727 277.49 66.8665 277.889 66.0281 278.69L66.0419 278.704ZM69.645 277.51H72.4V277.49H69.645V277.51ZM72.39 277.5V283.675H72.41V277.5H72.39ZM72.39 283.675C72.39 284.145 72.4852 284.502 72.6772 284.745L72.6928 284.733C72.5048 284.495 72.41 284.143 72.41 283.675H72.39ZM72.6774 284.745C72.8818 284.988 73.1379 285.11 73.445 285.11V285.09C73.1441 285.09 72.8935 284.971 72.6926 284.733L72.6774 284.745ZM73.445 285.11C73.7522 285.11 74.0648 284.969 74.3826 284.69L74.3694 284.674C74.0538 284.952 73.7458 285.09 73.445 285.09V285.11ZM74.3826 284.689C74.7135 284.397 74.9866 283.977 75.2023 283.432L75.1837 283.424C74.9688 283.968 74.6972 284.385 74.3694 284.675L74.3826 284.689ZM75.2022 283.432C75.4309 282.886 75.545 282.238 75.545 281.49H75.525C75.525 282.236 75.4111 282.881 75.1838 283.424L75.2022 283.432ZM75.545 281.49C75.545 280.222 75.2469 279.067 74.6507 278.027L74.6333 278.037C75.2277 279.074 75.525 280.225 75.525 281.49H75.545ZM74.6507 278.027C74.0673 276.974 73.2744 276.15 72.2721 275.553L72.2619 275.571C73.261 276.165 74.0514 276.987 74.6333 278.037L74.6507 278.027ZM72.2722 275.553C71.2699 274.944 70.1725 274.64 68.98 274.64V274.66C70.1689 274.66 71.2627 274.964 72.2618 275.571L72.2722 275.553ZM68.98 274.64C67.7875 274.64 66.6901 274.944 65.6878 275.553L65.6982 275.571C66.6973 274.964 67.7911 274.66 68.98 274.66V274.64ZM65.6879 275.553C64.6857 276.15 63.8865 276.974 63.2903 278.027L63.3077 278.037C63.9022 276.987 64.699 276.165 65.6981 275.571L65.6879 275.553ZM63.2903 278.027C62.7067 279.067 62.415 280.222 62.415 281.49H62.435C62.435 280.225 62.7259 279.074 63.3077 278.037L63.2903 278.027ZM62.415 281.49C62.415 282.758 62.7067 283.919 63.2903 284.972L63.3077 284.962C62.7259 283.912 62.435 282.755 62.435 281.49H62.415ZM63.2903 284.972C63.8865 286.012 64.6857 286.83 65.6879 287.427L65.6981 287.409C64.699 286.815 63.9022 285.999 63.3077 284.962L63.2903 284.972ZM65.6878 287.427C66.6901 288.036 67.7875 288.34 68.98 288.34V288.32C67.7911 288.32 66.6973 288.016 65.6982 287.409L65.6878 287.427ZM68.98 288.34C69.8175 288.34 70.6802 288.15 71.5679 287.769L71.5601 287.751C70.6744 288.13 69.8145 288.32 68.98 288.32V288.34ZM71.5682 287.769C71.9486 287.592 72.2911 287.401 72.5955 287.198L72.5845 287.182C72.2809 287.384 71.9394 287.574 71.5598 287.751L71.5682 287.769ZM72.5814 287.195L72.8664 287.67L72.8836 287.66L72.5986 287.185L72.5814 287.195ZM72.8688 287.657C72.5657 287.897 72.1992 288.106 71.7692 288.283L71.7768 288.301C72.2082 288.124 72.5763 287.914 72.8812 287.673L72.8688 287.657ZM71.7689 288.283C70.8582 288.688 69.9285 288.89 68.98 288.89V288.91C69.9315 288.91 70.8638 288.707 71.7771 288.301L71.7689 288.283ZM68.695 284.92C68.9791 284.92 69.2225 284.726 69.4258 284.345L69.4082 284.335C69.2062 284.714 68.9682 284.9 68.695 284.9V284.92ZM69.4257 284.345C69.5275 284.167 69.6038 283.976 69.6547 283.772L69.6353 283.768C69.5848 283.969 69.5092 284.159 69.4083 284.335L69.4257 284.345ZM69.655 283.77V277.975H69.635V283.77H69.655ZM69.645 277.965C69.295 277.965 68.9882 278.051 68.7252 278.222C68.4622 278.393 68.2434 278.65 68.0686 278.992C67.7192 279.675 67.545 280.698 67.545 282.06H67.565C67.565 280.699 67.7392 279.68 68.0864 279.001C68.26 278.662 68.4766 278.408 68.7361 278.239C68.9955 278.07 69.2984 277.985 69.645 277.985V277.965ZM67.545 282.06C67.545 283.074 67.6526 283.804 67.869 284.249L67.887 284.241C67.6727 283.799 67.565 283.073 67.565 282.06H67.545ZM67.869 284.249C68.0851 284.694 68.3601 284.92 68.695 284.92V284.9C68.3712 284.9 68.1016 284.682 67.887 284.241L67.869 284.249ZM79.047 285.955L79.0399 285.962L79.04 285.962L79.047 285.955ZM79.047 278.564L79.04 278.557L79.047 278.564ZM86.438 278.564L86.4309 278.571L86.431 278.571L86.438 278.564ZM86.438 285.955L86.431 285.948L86.438 285.955ZM84.025 285.841L84.0161 285.837L84.016 285.837L84.025 285.841ZM84.025 278.659L84.016 278.663L84.0161 278.663L84.025 278.659ZM81.46 278.659L81.4511 278.655L81.451 278.655L81.46 278.659ZM81.46 285.841L81.451 285.845L81.4511 285.845L81.46 285.841ZM82.752 287.275C81.1833 287.275 79.9511 286.832 79.0541 285.948L79.04 285.962C79.9416 286.851 81.1794 287.295 82.752 287.295V287.275ZM79.0542 285.948C78.1698 285.051 77.727 283.819 77.727 282.25H77.707C77.707 283.823 78.151 285.06 79.0399 285.962L79.0542 285.948ZM77.727 282.25C77.727 280.681 78.1698 279.455 79.0541 278.571L79.04 278.557C78.151 279.446 77.707 280.677 77.707 282.25H77.727ZM79.0541 278.571C79.9511 277.674 81.1834 277.225 82.752 277.225V277.205C81.1794 277.205 79.9416 277.655 79.04 278.557L79.0541 278.571ZM82.752 277.225C84.3207 277.225 85.5466 277.674 86.4309 278.571L86.4452 278.557C85.5562 277.655 84.3247 277.205 82.752 277.205V277.225ZM86.431 278.571C87.328 279.455 87.777 280.681 87.777 282.25H87.797C87.797 280.677 87.3467 279.446 86.4451 278.557L86.431 278.571ZM87.777 282.25C87.777 283.819 87.328 285.051 86.431 285.948L86.4451 285.962C87.3467 285.06 87.797 283.823 87.797 282.25H87.777ZM86.431 285.948C85.5466 286.832 84.3208 287.275 82.752 287.275V287.295C84.3246 287.295 85.5561 286.851 86.4451 285.962L86.431 285.948ZM82.752 286.915C83.2644 286.915 83.6914 286.556 84.034 285.845L84.016 285.837C83.6747 286.545 83.253 286.895 82.752 286.895V286.915ZM84.034 285.845C84.3898 285.134 84.567 283.935 84.567 282.25H84.547C84.547 283.934 84.3696 285.129 84.0161 285.837L84.034 285.845ZM84.567 282.25C84.567 280.565 84.3898 279.366 84.034 278.655L84.0161 278.663C84.3696 279.371 84.547 280.566 84.547 282.25H84.567ZM84.034 278.655C83.6914 277.944 83.2644 277.585 82.752 277.585V277.605C83.253 277.605 83.6747 277.955 84.016 278.663L84.034 278.655ZM82.752 277.585C82.2397 277.585 81.8064 277.944 81.4511 278.655L81.469 278.663C81.823 277.955 82.251 277.605 82.752 277.605V277.585ZM81.451 278.655C81.108 279.366 80.937 280.565 80.937 282.25H80.957C80.957 280.566 81.1281 279.37 81.469 278.663L81.451 278.655ZM80.937 282.25C80.937 283.935 81.108 285.134 81.451 285.845L81.469 285.837C81.1281 285.13 80.957 283.934 80.957 282.25H80.937ZM81.4511 285.845C81.8064 286.556 82.2397 286.915 82.752 286.915V286.895C82.251 286.895 81.823 286.545 81.469 285.837L81.4511 285.845ZM89.3137 286.715L89.3037 286.675V286.715H89.3137ZM90.4537 286.43L90.4637 286.47V286.43H90.4537ZM90.4537 274.27H90.4949L90.4561 274.26L90.4537 274.27ZM89.3137 273.985H89.2725L89.3113 273.995L89.3137 273.985ZM93.4937 282.06H93.4837V282.085L93.501 282.067L93.4937 282.06ZM97.0087 278.355L97.016 278.362L97.0261 278.351L97.0124 278.346L97.0087 278.355ZM95.5837 277.785H95.5568L95.58 277.794L95.5837 277.785ZM99.1937 277.785L99.2037 277.812V277.785H99.1937ZM97.6737 278.355L97.6698 278.345L97.6665 278.348L97.6737 278.355ZM95.4887 280.635L95.4581 280.606L95.4803 280.64L95.4887 280.635ZM99.1937 286.43L99.1826 286.437L99.1908 286.44L99.1937 286.43ZM100.144 286.715H100.179L100.147 286.705L100.144 286.715ZM96.1917 286.601L96.1974 286.593L96.1917 286.601ZM95.1087 285.385L95.1172 285.38L95.1172 285.38L95.1087 285.385ZM93.4937 282.82L93.5022 282.815L93.4837 282.785V282.82H93.4937ZM93.4937 286.43H93.4525L93.4913 286.44L93.4937 286.43ZM94.6337 286.715H94.6749L94.6361 286.705L94.6337 286.715ZM89.3161 286.725L90.4561 286.44L90.4513 286.42L89.3113 286.705L89.3161 286.725ZM90.4637 286.43V274.27H90.4437V286.43H90.4637ZM90.4561 274.26L89.3161 273.975L89.3113 273.995L90.4513 274.28L90.4561 274.26ZM89.3237 273.985V273.7H89.3037V273.985H89.3237ZM89.3137 273.71H91.7837V273.69H89.3137V273.71ZM91.7837 273.71C92.3522 273.71 92.7767 273.852 93.0591 274.135C93.3416 274.417 93.4837 274.842 93.4837 275.41H93.5037C93.5037 274.838 93.3608 274.408 93.0733 274.12C92.7857 273.833 92.3553 273.69 91.7837 273.69V273.71ZM93.4837 275.41V282.06H93.5037V275.41H93.4837ZM93.501 282.067L97.016 278.362L97.0015 278.348L93.4865 282.053L93.501 282.067ZM97.0124 278.346L95.5874 277.776L95.58 277.794L97.005 278.364L97.0124 278.346ZM95.5937 277.785V277.5H95.5737V277.785H95.5937ZM95.5837 277.51H99.1937V277.49H95.5837V277.51ZM99.1837 277.5V277.785H99.2037V277.5H99.1837ZM99.1902 277.776L97.6702 278.346L97.6772 278.364L99.1972 277.794L99.1902 277.776ZM97.6665 278.348L95.4815 280.628L95.4959 280.642L97.6809 278.362L97.6665 278.348ZM95.4803 280.64L99.1853 286.435L99.2021 286.425L95.4971 280.63L95.4803 280.64ZM99.1908 286.44L100.141 286.725L100.147 286.705L99.1966 286.42L99.1908 286.44ZM100.134 286.715V287H100.154V286.715H100.134ZM100.144 286.99H97.6737V287.01H100.144V286.99ZM97.6737 286.99C97.0671 286.99 96.5753 286.857 96.1974 286.593L96.186 286.609C96.5681 286.877 97.0643 287.01 97.6737 287.01V286.99ZM96.1974 286.593C95.8189 286.328 95.4587 285.924 95.1172 285.38L95.1002 285.39C95.4427 285.936 95.8045 286.342 96.186 286.609L96.1974 286.593ZM95.1172 285.38L93.5022 282.815L93.4852 282.825L95.1003 285.39L95.1172 285.38ZM93.4837 282.82V286.43H93.5037V282.82H93.4837ZM93.4913 286.44L94.6313 286.725L94.6361 286.705L93.4961 286.42L93.4913 286.44ZM94.6237 286.715V287H94.6437V286.715H94.6237ZM94.6337 286.99H89.3137V287.01H94.6337V286.99ZM89.3237 287V286.715H89.3037V287H89.3237ZM103.062 286.772L103.067 286.763L103.067 286.763L103.062 286.772ZM102.321 286.24L102.328 286.233L102.32 286.225L102.313 286.234L102.321 286.24ZM101.656 286.886L101.651 286.878L101.651 286.878L101.656 286.886ZM101.276 287.095V287.106L101.28 287.104L101.276 287.095ZM101.561 283.865L101.594 283.855H101.561V283.865ZM102.283 285.347L102.292 285.341L102.292 285.341L102.283 285.347ZM105.988 286.43L105.995 286.437L105.995 286.437L105.988 286.43ZM105.836 284.245L105.83 284.253L105.83 284.253L105.836 284.245ZM104.088 283.181L104.093 283.172L104.093 283.172L104.088 283.181ZM102.416 282.269L102.411 282.277L102.411 282.278L102.416 282.269ZM101.333 281.243L101.325 281.249L101.325 281.249L101.333 281.243ZM101.865 277.937L101.871 277.945L101.871 277.945L101.865 277.937ZM106.748 277.747L106.743 277.755L106.743 277.756L106.748 277.747ZM107.47 278.26L107.464 278.268L107.472 278.275L107.478 278.266L107.47 278.26ZM108.135 277.614L108.13 277.605L108.129 277.606L108.135 277.614ZM108.515 277.405V277.394L108.512 277.396L108.515 277.405ZM108.23 280.635L108.202 280.645H108.23V280.635ZM107.527 279.172L107.519 279.177L107.519 279.177L107.527 279.172ZM104.392 278.07L104.385 278.063L104.392 278.07ZM104.639 280.236L104.633 280.244L104.633 280.244L104.639 280.236ZM106.482 281.338L106.487 281.329L106.487 281.329L106.482 281.338ZM108.078 282.25L108.073 282.258L108.073 282.258L108.078 282.25ZM109.104 283.2L109.096 283.206L109.096 283.206L109.104 283.2ZM105.171 287.275C104.387 287.275 103.686 287.104 103.067 286.763L103.057 286.781C103.68 287.124 104.384 287.295 105.171 287.295V287.275ZM103.067 286.763C102.764 286.599 102.518 286.422 102.328 286.233L102.314 286.247C102.505 286.438 102.753 286.616 103.058 286.781L103.067 286.763ZM102.313 286.234C102.111 286.512 101.89 286.726 101.651 286.878L101.662 286.894C101.904 286.742 102.126 286.525 102.329 286.246L102.313 286.234ZM101.651 286.878C101.537 286.953 101.411 287.023 101.272 287.086L101.28 287.104C101.42 287.041 101.547 286.971 101.662 286.894L101.651 286.878ZM101.276 287.085H100.801V287.105H101.276V287.085ZM100.811 287.095V283.865H100.791V287.095H100.811ZM100.801 283.875H101.561V283.855H100.801V283.875ZM101.552 283.868C101.717 284.401 101.958 284.896 102.275 285.353L102.292 285.341C101.975 284.886 101.735 284.393 101.571 283.862L101.552 283.868ZM102.275 285.353C102.948 286.33 103.787 286.82 104.791 286.82V286.8C103.795 286.8 102.961 286.315 102.292 285.341L102.275 285.353ZM104.791 286.82C105.325 286.82 105.727 286.693 105.995 286.437L105.981 286.423C105.718 286.674 105.322 286.8 104.791 286.8V286.82ZM105.995 286.437C106.276 286.169 106.416 285.786 106.416 285.29H106.396C106.396 285.782 106.258 286.159 105.981 286.423L105.995 286.437ZM106.416 285.29C106.416 284.868 106.224 284.517 105.842 284.237L105.83 284.253C106.208 284.53 106.396 284.876 106.396 285.29H106.416ZM105.843 284.237C105.474 283.945 104.891 283.59 104.093 283.172L104.084 283.19C104.882 283.608 105.463 283.962 105.83 284.253L105.843 284.237ZM104.093 283.172C103.409 282.83 102.852 282.526 102.422 282.26L102.411 282.278C102.842 282.544 103.4 282.848 104.084 283.19L104.093 283.172ZM102.422 282.261C102.005 281.983 101.645 281.641 101.341 281.237L101.325 281.249C101.63 281.655 101.992 281.998 102.411 282.277L102.422 282.261ZM101.341 281.237C101.051 280.821 100.906 280.335 100.906 279.78H100.886C100.886 280.339 101.032 280.829 101.325 281.249L101.341 281.237ZM100.906 279.78C100.906 279.023 101.228 278.412 101.871 277.945L101.859 277.929C101.211 278.399 100.886 279.017 100.886 279.78H100.906ZM101.871 277.945C102.527 277.466 103.532 277.225 104.886 277.225V277.205C103.53 277.205 102.521 277.446 101.859 277.929L101.871 277.945ZM104.886 277.225C105.556 277.225 106.175 277.402 106.743 277.755L106.754 277.739C106.182 277.383 105.559 277.205 104.886 277.205V277.225ZM106.743 277.756C107.021 277.92 107.262 278.091 107.464 278.268L107.477 278.252C107.274 278.075 107.032 277.903 106.753 277.738L106.743 277.756ZM107.478 278.266C107.642 278.039 107.863 277.824 108.141 277.622L108.129 277.606C107.85 277.809 107.628 278.025 107.462 278.254L107.478 278.266ZM108.14 277.623C108.248 277.559 108.333 277.51 108.397 277.476C108.46 277.441 108.5 277.42 108.518 277.414L108.512 277.396C108.492 277.402 108.45 277.423 108.387 277.458C108.324 277.493 108.238 277.542 108.13 277.605L108.14 277.623ZM108.515 277.415H108.99V277.395H108.515V277.415ZM108.98 277.405V280.635H109V277.405H108.98ZM108.99 280.625H108.23V280.645H108.99V280.625ZM108.24 280.632C108.049 280.086 107.815 279.598 107.536 279.167L107.519 279.177C107.797 279.607 108.031 280.094 108.221 280.638L108.24 280.632ZM107.536 279.167C106.901 278.177 106.145 277.68 105.266 277.68V277.7C106.136 277.7 106.887 278.191 107.519 279.177L107.536 279.167ZM105.266 277.68C104.921 277.68 104.628 277.808 104.385 278.063L104.4 278.077C104.638 277.825 104.927 277.7 105.266 277.7V277.68ZM104.385 278.063C104.142 278.318 104.021 278.638 104.021 279.02H104.041C104.041 278.642 104.161 278.328 104.4 278.077L104.385 278.063ZM104.021 279.02C104.021 279.505 104.226 279.913 104.633 280.244L104.646 280.228C104.242 279.901 104.041 279.498 104.041 279.02H104.021ZM104.633 280.244C105.039 280.561 105.654 280.929 106.478 281.347L106.487 281.329C105.664 280.911 105.05 280.544 104.645 280.228L104.633 280.244ZM106.478 281.347C107.149 281.689 107.68 281.993 108.073 282.258L108.084 282.242C107.691 281.975 107.158 281.671 106.487 281.329L106.478 281.347ZM108.073 282.258C108.477 282.511 108.818 282.827 109.096 283.206L109.112 283.194C108.833 282.813 108.49 282.496 108.084 282.242L108.073 282.258ZM109.096 283.206C109.386 283.584 109.531 284.025 109.531 284.53H109.551C109.551 284.021 109.405 283.576 109.112 283.194L109.096 283.206ZM109.531 284.53C109.531 285.445 109.169 286.131 108.443 286.588C107.717 287.045 106.627 287.275 105.171 287.275V287.295C106.629 287.295 107.723 287.065 108.454 286.605C109.186 286.144 109.551 285.451 109.551 284.53H109.531ZM112.069 286.563L112.063 286.571L112.069 286.563ZM111.48 283.257L111.489 283.261L111.489 283.261L111.48 283.257ZM111.822 282.63L111.819 282.617L111.814 282.624L111.822 282.63ZM113.513 282.288L113.511 282.278L113.513 282.288ZM117.142 281.87L117.152 282.077V281.87H117.142ZM116.629 278.393L116.637 278.388L116.629 278.393ZM114.368 277.69L114.365 277.681L114.365 277.681L114.368 277.69ZM114.102 277.785L114.092 277.757V277.785H114.102ZM114.102 280.635L114.112 280.678V280.635H114.102ZM113.855 280.692L113.856 280.702L113.857 280.702L113.855 280.692ZM112.297 280.35L112.29 280.357L112.29 280.357L112.297 280.35ZM112.791 277.823L112.785 277.815L112.785 277.815L112.791 277.823ZM117.978 277.747L117.974 277.756L117.974 277.756L117.978 277.747ZM119.612 279.191L119.603 279.196L119.604 279.196L119.612 279.191ZM120.182 286.43H120.141L120.18 286.44L120.182 286.43ZM121.322 286.715H121.363L121.324 286.705L121.322 286.715ZM117.845 286.297L117.852 286.29L117.852 286.29L117.845 286.297ZM117.427 285.575L117.436 285.572L117.429 285.551L117.418 285.57L117.427 285.575ZM116.8 286.43L116.807 286.437L116.807 286.437L116.8 286.43ZM116.705 285.86L116.713 285.866L116.713 285.866L116.705 285.86ZM117.142 285.1L117.152 285.105V285.1H117.142ZM115.47 282.44L115.469 282.43L115.469 282.43L115.47 282.44ZM114.672 282.535L114.67 282.515L114.663 282.531L114.672 282.535ZM114.482 283.105L114.492 283.108L114.482 283.105ZM114.615 286.107L114.623 286.102L114.615 286.107ZM114.672 287.275C113.546 287.275 112.681 287.035 112.075 286.555L112.063 286.571C112.673 287.054 113.543 287.295 114.672 287.295V287.275ZM112.075 286.555C111.47 286.076 111.167 285.464 111.167 284.72H111.147C111.147 285.471 111.453 286.088 112.063 286.571L112.075 286.555ZM111.167 284.72C111.167 284.228 111.274 283.741 111.489 283.261L111.471 283.253C111.255 283.735 111.147 284.224 111.147 284.72H111.167ZM111.489 283.261C111.578 283.033 111.691 282.825 111.83 282.636L111.814 282.624C111.674 282.815 111.56 283.025 111.471 283.253L111.489 283.261ZM111.824 282.64C112.343 282.513 112.907 282.399 113.515 282.298L113.511 282.278C112.903 282.38 112.339 282.494 111.82 282.62L111.824 282.64ZM113.515 282.298C114.882 282.07 116.092 281.931 117.143 281.88L117.142 281.86C116.09 281.911 114.88 282.05 113.511 282.278L113.515 282.298ZM117.152 281.87V281.3H117.132V281.87H117.152ZM117.152 281.3C117.152 280.597 117.109 280.002 117.024 279.517C116.938 279.032 116.809 278.655 116.637 278.388L116.621 278.398C116.791 278.663 116.919 279.037 117.004 279.52C117.089 280.004 117.132 280.597 117.132 281.3H117.152ZM116.637 278.388C116.293 277.852 115.764 277.585 115.052 277.585V277.605C115.758 277.605 116.281 277.87 116.621 278.398L116.637 278.388ZM115.052 277.585C114.785 277.585 114.556 277.617 114.365 277.681L114.371 277.699C114.56 277.637 114.787 277.605 115.052 277.605V277.585ZM114.365 277.681L114.099 277.776L114.105 277.794L114.371 277.699L114.365 277.681ZM114.092 277.785V280.635H114.112V277.785H114.092ZM114.1 280.625L113.853 280.682L113.857 280.702L114.104 280.645L114.1 280.625ZM113.854 280.682C113.651 280.707 113.481 280.72 113.342 280.72V280.74C113.482 280.74 113.653 280.727 113.856 280.702L113.854 280.682ZM113.342 280.72C112.913 280.72 112.568 280.594 112.304 280.343L112.29 280.357C112.558 280.613 112.909 280.74 113.342 280.74V280.72ZM112.304 280.343C112.053 280.079 111.927 279.734 111.927 279.305H111.907C111.907 279.738 112.034 280.089 112.29 280.357L112.304 280.343ZM111.927 279.305C111.927 278.726 112.216 278.235 112.797 277.831L112.785 277.815C112.201 278.222 111.907 278.718 111.907 279.305H111.927ZM112.797 277.831C113.39 277.428 114.268 277.225 115.432 277.225V277.205C114.266 277.205 113.383 277.408 112.785 277.815L112.797 277.831ZM115.432 277.225C116.419 277.225 117.266 277.402 117.974 277.756L117.983 277.738C117.271 277.383 116.421 277.205 115.432 277.205V277.225ZM117.974 277.756C118.694 278.097 119.237 278.577 119.603 279.196L119.621 279.186C119.252 278.563 118.706 278.081 117.982 277.738L117.974 277.756ZM119.604 279.196C119.982 279.803 120.172 280.504 120.172 281.3H120.192C120.192 280.5 120.002 279.795 119.621 279.186L119.604 279.196ZM120.172 281.3V286.43H120.192V281.3H120.172ZM120.18 286.44L121.32 286.725L121.324 286.705L120.184 286.42L120.18 286.44ZM121.312 286.715V287H121.332V286.715H121.312ZM121.322 286.99H119.612V287.01H121.322V286.99ZM119.612 286.99C118.854 286.99 118.268 286.756 117.852 286.29L117.838 286.304C118.258 286.775 118.85 287.01 119.612 287.01V286.99ZM117.852 286.29C117.676 286.101 117.537 285.862 117.436 285.572L117.418 285.578C117.519 285.871 117.659 286.113 117.838 286.304L117.852 286.29ZM117.418 285.57C117.241 285.886 117.033 286.17 116.793 286.423L116.807 286.437C117.049 286.183 117.258 285.897 117.436 285.58L117.418 285.57ZM116.793 286.423C116.225 286.991 115.518 287.275 114.672 287.275V287.295C115.523 287.295 116.235 287.009 116.807 286.437L116.793 286.423ZM115.432 286.63C115.905 286.63 116.332 286.374 116.713 285.866L116.697 285.854C116.318 286.359 115.897 286.61 115.432 286.61V286.63ZM116.713 285.866C116.853 285.675 116.999 285.421 117.151 285.104L117.133 285.096C116.981 285.412 116.836 285.665 116.697 285.854L116.713 285.866ZM117.152 285.1V282.345H117.132V285.1H117.152ZM117.142 282.335C116.559 282.335 116.001 282.367 115.469 282.43L115.471 282.45C116.003 282.387 116.56 282.355 117.142 282.355V282.335ZM115.469 282.43C115.076 282.481 114.81 282.512 114.671 282.525L114.673 282.545C114.812 282.532 115.079 282.501 115.471 282.45L115.469 282.43ZM114.663 282.531C114.599 282.671 114.536 282.862 114.472 283.102L114.492 283.108C114.555 282.867 114.618 282.678 114.681 282.539L114.663 282.531ZM114.472 283.102C114.345 283.585 114.282 284.06 114.282 284.53H114.302C114.302 284.062 114.365 283.588 114.492 283.108L114.472 283.102ZM114.282 284.53C114.282 285.24 114.39 285.768 114.607 286.112L114.623 286.102C114.41 285.762 114.302 285.239 114.302 284.53H114.282ZM114.607 286.112C114.823 286.456 115.098 286.63 115.432 286.63V286.61C115.107 286.61 114.837 286.442 114.623 286.102L114.607 286.112ZM122.471 286.715L122.461 286.675V286.715H122.471ZM123.611 286.43L123.621 286.47V286.43H123.611ZM123.611 278.07H123.652L123.613 278.06L123.611 278.07ZM122.471 277.785H122.43L122.469 277.795L122.471 277.785ZM125.948 278.222L125.955 278.215L125.955 278.215L125.948 278.222ZM126.366 278.925L126.357 278.929L126.365 278.948L126.375 278.93L126.366 278.925ZM126.993 278.07L127 278.077L126.993 278.07ZM131.021 277.671L131.016 277.68L131.016 277.68L131.021 277.671ZM132.351 278.83L132.343 278.835L132.351 278.83ZM132.826 286.43H132.785L132.824 286.44L132.826 286.43ZM133.966 286.715H134.007L133.968 286.705L133.966 286.715ZM129.349 278.526L129.341 278.531L129.341 278.532L129.349 278.526ZM127.069 278.64L127.077 278.646L127.077 278.646L127.069 278.64ZM126.651 279.4L126.641 279.396V279.4H126.651ZM126.651 286.43H126.61L126.649 286.44L126.651 286.43ZM127.791 286.715H127.832L127.793 286.705L127.791 286.715ZM122.473 286.725L123.613 286.44L123.609 286.42L122.469 286.705L122.473 286.725ZM123.621 286.43V278.07H123.601V286.43H123.621ZM123.613 278.06L122.473 277.775L122.469 277.795L123.609 278.08L123.613 278.06ZM122.481 277.785V277.5H122.461V277.785H122.481ZM122.471 277.51H124.181V277.49H122.471V277.51ZM124.181 277.51C124.926 277.51 125.512 277.75 125.94 278.229L125.955 278.215C125.523 277.732 124.931 277.49 124.181 277.49V277.51ZM125.94 278.229C126.104 278.418 126.243 278.651 126.357 278.929L126.375 278.921C126.261 278.642 126.121 278.406 125.955 278.215L125.94 278.229ZM126.375 278.93C126.552 278.601 126.76 278.317 127 278.077L126.986 278.063C126.744 278.304 126.535 278.59 126.357 278.92L126.375 278.93ZM127 278.077C127.568 277.509 128.275 277.225 129.121 277.225V277.205C128.27 277.205 127.558 277.491 126.986 278.063L127 278.077ZM129.121 277.225C129.829 277.225 130.46 277.377 131.016 277.68L131.026 277.662C130.467 277.357 129.832 277.205 129.121 277.205V277.225ZM131.016 277.68C131.585 277.971 132.027 278.356 132.343 278.835L132.359 278.825C132.042 278.342 131.597 277.954 131.025 277.662L131.016 277.68ZM132.343 278.835C132.658 279.315 132.816 279.82 132.816 280.35H132.836C132.836 279.816 132.677 279.307 132.359 278.825L132.343 278.835ZM132.816 280.35V286.43H132.836V280.35H132.816ZM132.824 286.44L133.964 286.725L133.968 286.705L132.828 286.42L132.824 286.44ZM133.956 286.715V287H133.976V286.715H133.956ZM133.966 286.99H131.496V287.01H133.966V286.99ZM131.496 286.99C130.927 286.99 130.503 286.848 130.221 286.565C129.938 286.283 129.796 285.858 129.796 285.29H129.776C129.776 285.862 129.919 286.292 130.206 286.58C130.494 286.867 130.924 287.01 131.496 287.01V286.99ZM129.796 285.29V280.35H129.776V285.29H129.796ZM129.796 280.35C129.796 279.551 129.65 278.941 129.357 278.52L129.341 278.532C129.63 278.947 129.776 279.553 129.776 280.35H129.796ZM129.357 278.521C129.078 278.088 128.745 277.87 128.361 277.87V277.89C128.736 277.89 129.063 278.103 129.341 278.531L129.357 278.521ZM128.361 277.87C127.876 277.87 127.442 278.126 127.061 278.634L127.077 278.646C127.456 278.141 127.884 277.89 128.361 277.89V277.87ZM127.061 278.634C126.896 278.85 126.756 279.104 126.642 279.396L126.66 279.404C126.774 279.113 126.913 278.861 127.077 278.646L127.061 278.634ZM126.641 279.4V286.43H126.661V279.4H126.641ZM126.649 286.44L127.789 286.725L127.793 286.705L126.653 286.42L126.649 286.44ZM127.781 286.715V287H127.801V286.715H127.781ZM127.791 286.99H122.471V287.01H127.791V286.99ZM122.481 287V286.715H122.461V287H122.481ZM136.209 286.563L136.202 286.571L136.209 286.563ZM135.62 283.257L135.629 283.261L135.629 283.261L135.62 283.257ZM135.962 282.63L135.959 282.617L135.954 282.624L135.962 282.63ZM137.653 282.288L137.651 282.278L137.653 282.288ZM141.282 281.87L141.292 282.077V281.87H141.282ZM140.769 278.393L140.777 278.388L140.769 278.393ZM138.508 277.69L138.505 277.681L138.504 277.681L138.508 277.69ZM138.242 277.785L138.232 277.757V277.785H138.242ZM138.242 280.635L138.252 280.678V280.635H138.242ZM137.995 280.692L137.996 280.702L137.997 280.702L137.995 280.692ZM136.437 280.35L136.429 280.357L136.43 280.357L136.437 280.35ZM136.931 277.823L136.925 277.815L136.925 277.815L136.931 277.823ZM142.118 277.747L142.113 277.756L142.113 277.756L142.118 277.747ZM143.752 279.191L143.743 279.196L143.743 279.196L143.752 279.191ZM144.322 286.43H144.28L144.319 286.44L144.322 286.43ZM145.462 286.715H145.503L145.464 286.705L145.462 286.715ZM141.985 286.297L141.992 286.29L141.992 286.29L141.985 286.297ZM141.567 285.575L141.576 285.572L141.569 285.551L141.558 285.57L141.567 285.575ZM140.94 286.43L140.947 286.437L140.947 286.437L140.94 286.43ZM140.845 285.86L140.853 285.866L140.853 285.866L140.845 285.86ZM141.282 285.1L141.292 285.105V285.1H141.282ZM139.61 282.44L139.608 282.43L139.608 282.43L139.61 282.44ZM138.812 282.535L138.81 282.515L138.803 282.531L138.812 282.535ZM138.622 283.105L138.631 283.108L138.622 283.105ZM138.755 286.107L138.763 286.102L138.755 286.107ZM138.812 287.275C137.686 287.275 136.82 287.035 136.215 286.555L136.202 286.571C136.813 287.054 137.683 287.295 138.812 287.295V287.275ZM136.215 286.555C135.609 286.076 135.307 285.464 135.307 284.72H135.287C135.287 285.471 135.592 286.088 136.202 286.571L136.215 286.555ZM135.307 284.72C135.307 284.228 135.414 283.741 135.629 283.261L135.611 283.253C135.395 283.735 135.287 284.224 135.287 284.72H135.307ZM135.629 283.261C135.717 283.033 135.831 282.825 135.97 282.636L135.954 282.624C135.814 282.815 135.699 283.025 135.61 283.253L135.629 283.261ZM135.964 282.64C136.483 282.513 137.047 282.399 137.654 282.298L137.651 282.278C137.043 282.38 136.479 282.494 135.959 282.62L135.964 282.64ZM137.654 282.298C139.022 282.07 140.231 281.931 141.282 281.88L141.281 281.86C140.229 281.911 139.019 282.05 137.651 282.278L137.654 282.298ZM141.292 281.87V281.3H141.272V281.87H141.292ZM141.292 281.3C141.292 280.597 141.249 280.002 141.163 279.517C141.078 279.032 140.949 278.655 140.777 278.388L140.76 278.398C140.93 278.663 141.058 279.037 141.144 279.52C141.229 280.004 141.272 280.597 141.272 281.3H141.292ZM140.777 278.388C140.433 277.852 139.904 277.585 139.192 277.585V277.605C139.898 277.605 140.42 277.87 140.76 278.398L140.777 278.388ZM139.192 277.585C138.925 277.585 138.696 277.617 138.505 277.681L138.511 277.699C138.7 277.637 138.926 277.605 139.192 277.605V277.585ZM138.504 277.681L138.238 277.776L138.245 277.794L138.511 277.699L138.504 277.681ZM138.232 277.785V280.635H138.252V277.785H138.232ZM138.239 280.625L137.992 280.682L137.997 280.702L138.244 280.645L138.239 280.625ZM137.993 280.682C137.791 280.707 137.62 280.72 137.482 280.72V280.74C137.622 280.74 137.793 280.727 137.996 280.702L137.993 280.682ZM137.482 280.72C137.053 280.72 136.707 280.594 136.444 280.343L136.43 280.357C136.698 280.613 137.049 280.74 137.482 280.74V280.72ZM136.444 280.343C136.193 280.079 136.067 279.734 136.067 279.305H136.047C136.047 279.738 136.174 280.089 136.429 280.357L136.444 280.343ZM136.067 279.305C136.067 278.726 136.356 278.235 136.936 277.831L136.925 277.815C136.34 278.222 136.047 278.718 136.047 279.305H136.067ZM136.936 277.831C137.529 277.428 138.407 277.225 139.572 277.225V277.205C138.405 277.205 137.523 277.408 136.925 277.815L136.936 277.831ZM139.572 277.225C140.559 277.225 141.406 277.402 142.113 277.756L142.122 277.738C141.411 277.383 140.561 277.205 139.572 277.205V277.225ZM142.113 277.756C142.834 278.097 143.377 278.577 143.743 279.196L143.76 279.186C143.392 278.563 142.846 278.081 142.122 277.738L142.113 277.756ZM143.743 279.196C144.122 279.803 144.312 280.504 144.312 281.3H144.332C144.332 280.5 144.141 279.795 143.76 279.186L143.743 279.196ZM144.312 281.3V286.43H144.332V281.3H144.312ZM144.319 286.44L145.459 286.725L145.464 286.705L144.324 286.42L144.319 286.44ZM145.452 286.715V287H145.472V286.715H145.452ZM145.462 286.99H143.752V287.01H145.462V286.99ZM143.752 286.99C142.994 286.99 142.408 286.756 141.992 286.29L141.977 286.304C142.398 286.775 142.989 287.01 143.752 287.01V286.99ZM141.992 286.29C141.816 286.101 141.677 285.862 141.576 285.572L141.557 285.578C141.659 285.871 141.799 286.113 141.977 286.304L141.992 286.29ZM141.558 285.57C141.381 285.886 141.173 286.17 140.932 286.423L140.947 286.437C141.188 286.183 141.398 285.897 141.575 285.58L141.558 285.57ZM140.933 286.423C140.365 286.991 139.658 287.275 138.812 287.275V287.295C139.663 287.295 140.375 287.009 140.947 286.437L140.933 286.423ZM139.572 286.63C140.045 286.63 140.472 286.374 140.853 285.866L140.837 285.854C140.458 286.359 140.036 286.61 139.572 286.61V286.63ZM140.853 285.866C140.993 285.675 141.139 285.421 141.291 285.104L141.273 285.096C141.121 285.412 140.975 285.665 140.837 285.854L140.853 285.866ZM141.292 285.1V282.345H141.272V285.1H141.292ZM141.282 282.335C140.699 282.335 140.141 282.367 139.608 282.43L139.611 282.45C140.142 282.387 140.699 282.355 141.282 282.355V282.335ZM139.608 282.43C139.216 282.481 138.95 282.512 138.811 282.525L138.813 282.545C138.952 282.532 139.218 282.501 139.611 282.45L139.608 282.43ZM138.803 282.531C138.739 282.671 138.675 282.862 138.612 283.102L138.631 283.108C138.695 282.867 138.758 282.678 138.821 282.539L138.803 282.531ZM138.612 283.102C138.485 283.585 138.422 284.06 138.422 284.53H138.442C138.442 284.062 138.505 283.588 138.631 283.108L138.612 283.102ZM138.422 284.53C138.422 285.24 138.529 285.768 138.746 286.112L138.763 286.102C138.549 285.762 138.442 285.239 138.442 284.53H138.422ZM138.746 286.112C138.963 286.456 139.238 286.63 139.572 286.63V286.61C139.247 286.61 138.977 286.442 138.763 286.102L138.746 286.112ZM146.611 286.715L146.601 286.675V286.715H146.611ZM147.751 286.43L147.761 286.47V286.43H147.751ZM147.751 274.27H147.792L147.753 274.26L147.751 274.27ZM146.611 273.985H146.569L146.608 273.995L146.611 273.985ZM150.791 282.06H150.781V282.085L150.798 282.067L150.791 282.06ZM154.306 278.355L154.313 278.362L154.323 278.351L154.309 278.346L154.306 278.355ZM152.881 277.785H152.854L152.877 277.794L152.881 277.785ZM156.491 277.785L156.501 277.812V277.785H156.491ZM154.971 278.355L154.967 278.345L154.963 278.348L154.971 278.355ZM152.786 280.635L152.755 280.606L152.777 280.64L152.786 280.635ZM156.491 286.43L156.479 286.437L156.488 286.44L156.491 286.43ZM157.441 286.715H157.475L157.443 286.705L157.441 286.715ZM153.489 286.601L153.494 286.593L153.489 286.601ZM152.406 285.385L152.414 285.38L152.414 285.38L152.406 285.385ZM150.791 282.82L150.799 282.815L150.781 282.785V282.82H150.791ZM150.791 286.43H150.749L150.788 286.44L150.791 286.43ZM151.931 286.715H151.972L151.933 286.705L151.931 286.715ZM146.613 286.725L147.753 286.44L147.748 286.42L146.608 286.705L146.613 286.725ZM147.761 286.43V274.27H147.741V286.43H147.761ZM147.753 274.26L146.613 273.975L146.608 273.995L147.748 274.28L147.753 274.26ZM146.621 273.985V273.7H146.601V273.985H146.621ZM146.611 273.71H149.081V273.69H146.611V273.71ZM149.081 273.71C149.649 273.71 150.074 273.852 150.356 274.135C150.638 274.417 150.781 274.842 150.781 275.41H150.801C150.801 274.838 150.658 274.408 150.37 274.12C150.083 273.833 149.652 273.69 149.081 273.69V273.71ZM150.781 275.41V282.06H150.801V275.41H150.781ZM150.798 282.067L154.313 278.362L154.298 278.348L150.783 282.053L150.798 282.067ZM154.309 278.346L152.884 277.776L152.877 277.794L154.302 278.364L154.309 278.346ZM152.891 277.785V277.5H152.871V277.785H152.891ZM152.881 277.51H156.491V277.49H152.881V277.51ZM156.481 277.5V277.785H156.501V277.5H156.481ZM156.487 277.776L154.967 278.346L154.974 278.364L156.494 277.794L156.487 277.776ZM154.963 278.348L152.778 280.628L152.793 280.642L154.978 278.362L154.963 278.348ZM152.777 280.64L156.482 286.435L156.499 286.425L152.794 280.63L152.777 280.64ZM156.488 286.44L157.438 286.725L157.443 286.705L156.493 286.42L156.488 286.44ZM157.431 286.715V287H157.451V286.715H157.431ZM157.441 286.99H154.971V287.01H157.441V286.99ZM154.971 286.99C154.364 286.99 153.872 286.857 153.494 286.593L153.483 286.609C153.865 286.877 154.361 287.01 154.971 287.01V286.99ZM153.494 286.593C153.116 286.328 152.756 285.924 152.414 285.38L152.397 285.39C152.74 285.936 153.101 286.342 153.483 286.609L153.494 286.593ZM152.414 285.38L150.799 282.815L150.782 282.825L152.397 285.39L152.414 285.38ZM150.781 282.82V286.43H150.801V282.82H150.781ZM150.788 286.44L151.928 286.725L151.933 286.705L150.793 286.42L150.788 286.44ZM151.921 286.715V287H151.941V286.715H151.921ZM151.931 286.99H146.611V287.01H151.931V286.99ZM146.621 287V286.715H146.601V287H146.621ZM157.253 288.9V288.045H157.233V288.9H157.253ZM157.243 288.055H164.653V288.035H157.243V288.055ZM164.643 288.045V288.9H164.663V288.045H164.643ZM164.653 288.89H157.243V288.91H164.653V288.89ZM165.406 286.715L165.396 286.675V286.715H165.406ZM166.546 286.43L166.556 286.47V286.43H166.546ZM166.546 278.07H166.588L166.549 278.06L166.546 278.07ZM165.406 277.785H165.365L165.404 277.795L165.406 277.785ZM168.883 278.222L168.891 278.215L168.891 278.215L168.883 278.222ZM169.301 278.925L169.292 278.929L169.3 278.948L169.31 278.93L169.301 278.925ZM169.909 278.07L169.902 278.063L169.909 278.07ZM173.804 277.709L173.799 277.718L173.8 277.718L173.804 277.709ZM175.096 279.02L175.088 279.025L175.097 279.041L175.105 279.025L175.096 279.02ZM175.704 278.127L175.697 278.12L175.697 278.12L175.704 278.127ZM179.466 277.633L179.462 277.642L179.462 277.642L179.466 277.633ZM180.72 278.773L180.712 278.778L180.712 278.778L180.72 278.773ZM181.176 286.43H181.135L181.174 286.44L181.176 286.43ZM182.316 286.715H182.358L182.319 286.705L182.316 286.715ZM177.756 278.507L177.748 278.512L177.748 278.512L177.756 278.507ZM175.78 278.64L175.772 278.634L175.772 278.635L175.78 278.64ZM175.381 279.4L175.371 279.396V279.4H175.381ZM175.381 286.43H175.34L175.379 286.44L175.381 286.43ZM176.521 286.715H176.563L176.524 286.705L176.521 286.715ZM171.201 286.715L171.191 286.675V286.715H171.201ZM172.341 286.43L172.351 286.47V286.43H172.341ZM171.961 278.507L171.953 278.512L171.953 278.512L171.961 278.507ZM169.985 278.64L169.977 278.634L169.977 278.635L169.985 278.64ZM169.586 279.4L169.576 279.396V279.4H169.586ZM169.586 286.43H169.545L169.584 286.44L169.586 286.43ZM170.726 286.715H170.768L170.729 286.705L170.726 286.715ZM165.409 286.725L166.549 286.44L166.544 286.42L165.404 286.705L165.409 286.725ZM166.556 286.43V278.07H166.536V286.43H166.556ZM166.549 278.06L165.409 277.775L165.404 277.795L166.544 278.08L166.549 278.06ZM165.416 277.785V277.5H165.396V277.785H165.416ZM165.406 277.51H167.116V277.49H165.406V277.51ZM167.116 277.51C167.861 277.51 168.448 277.75 168.876 278.229L168.891 278.215C168.458 277.732 167.866 277.49 167.116 277.49V277.51ZM168.876 278.229C169.04 278.418 169.179 278.651 169.292 278.929L169.311 278.921C169.196 278.642 169.057 278.406 168.891 278.215L168.876 278.229ZM169.31 278.93C169.5 278.576 169.702 278.292 169.917 278.077L169.902 278.063C169.686 278.279 169.483 278.565 169.293 278.92L169.31 278.93ZM169.917 278.077C170.485 277.509 171.135 277.225 171.866 277.225V277.205C171.129 277.205 170.474 277.491 169.902 278.063L169.917 278.077ZM171.866 277.225C172.6 277.225 173.244 277.389 173.799 277.718L173.81 277.7C173.25 277.37 172.603 277.205 171.866 277.205V277.225ZM173.8 277.718C174.355 278.033 174.785 278.469 175.088 279.025L175.105 279.015C174.8 278.456 174.368 278.018 173.809 277.7L173.8 277.718ZM175.105 279.025C175.295 278.658 175.497 278.361 175.712 278.134L175.697 278.12C175.481 278.349 175.278 278.647 175.088 279.015L175.105 279.025ZM175.712 278.134C176.293 277.528 176.943 277.225 177.661 277.225V277.205C176.936 277.205 176.281 277.51 175.697 278.12L175.712 278.134ZM177.661 277.225C178.331 277.225 178.931 277.364 179.462 277.642L179.471 277.624C178.938 277.345 178.334 277.205 177.661 277.205V277.225ZM179.462 277.642C180.005 277.92 180.422 278.299 180.712 278.778L180.729 278.768C180.437 278.285 180.017 277.904 179.471 277.624L179.462 277.642ZM180.712 278.778C181.015 279.258 181.166 279.782 181.166 280.35H181.186C181.186 279.778 181.034 279.251 180.729 278.768L180.712 278.778ZM181.166 280.35V286.43H181.186V280.35H181.166ZM181.174 286.44L182.314 286.725L182.319 286.705L181.179 286.42L181.174 286.44ZM182.306 286.715V287H182.326V286.715H182.306ZM182.316 286.99H179.846V287.01H182.316V286.99ZM179.846 286.99C179.278 286.99 178.854 286.848 178.571 286.565C178.289 286.283 178.146 285.858 178.146 285.29H178.126C178.126 285.862 178.269 286.292 178.557 286.58C178.844 286.867 179.275 287.01 179.846 287.01V286.99ZM178.146 285.29V280.35H178.126V285.29H178.146ZM178.146 280.35C178.146 279.526 178.02 278.909 177.765 278.502L177.748 278.512C178 278.915 178.126 279.527 178.126 280.35H178.146ZM177.765 278.502C177.511 278.083 177.223 277.87 176.901 277.87V277.89C177.213 277.89 177.495 278.095 177.748 278.512L177.765 278.502ZM176.901 277.87C176.529 277.87 176.153 278.127 175.772 278.634L175.788 278.646C176.168 278.14 176.539 277.89 176.901 277.89V277.87ZM175.772 278.635C175.62 278.876 175.486 279.13 175.372 279.396L175.391 279.404C175.504 279.138 175.637 278.886 175.789 278.645L175.772 278.635ZM175.371 279.4V286.43H175.391V279.4H175.371ZM175.379 286.44L176.519 286.725L176.524 286.705L175.384 286.42L175.379 286.44ZM176.511 286.715V287H176.531V286.715H176.511ZM176.521 286.99H171.201V287.01H176.521V286.99ZM171.211 287V286.715H171.191V287H171.211ZM171.204 286.725L172.344 286.44L172.339 286.42L171.199 286.705L171.204 286.725ZM172.351 286.43V280.35H172.331V286.43H172.351ZM172.351 280.35C172.351 279.526 172.225 278.909 171.97 278.502L171.953 278.512C172.205 278.915 172.331 279.527 172.331 280.35H172.351ZM171.97 278.502C171.716 278.083 171.428 277.87 171.106 277.87V277.89C171.418 277.89 171.7 278.095 171.953 278.512L171.97 278.502ZM171.106 277.87C170.734 277.87 170.358 278.127 169.977 278.634L169.993 278.646C170.373 278.14 170.744 277.89 171.106 277.89V277.87ZM169.977 278.635C169.825 278.876 169.691 279.13 169.577 279.396L169.596 279.404C169.709 279.138 169.842 278.886 169.994 278.645L169.977 278.635ZM169.576 279.4V286.43H169.596V279.4H169.576ZM169.584 286.44L170.724 286.725L170.729 286.705L169.589 286.42L169.584 286.44ZM170.716 286.715V287H170.736V286.715H170.716ZM170.726 286.99H165.406V287.01H170.726V286.99ZM165.416 287V286.715H165.396V287H165.416ZM184.562 286.563L184.556 286.571L184.562 286.563ZM183.973 283.257L183.982 283.261L183.983 283.261L183.973 283.257ZM184.315 282.63L184.312 282.617L184.307 282.624L184.315 282.63ZM186.006 282.288L186.005 282.278L186.006 282.288ZM189.635 281.87L189.645 282.077V281.87H189.635ZM189.122 278.393L189.131 278.388L189.122 278.393ZM186.861 277.69L186.858 277.681L186.858 277.681L186.861 277.69ZM186.595 277.785L186.585 277.757V277.785H186.595ZM186.595 280.635L186.605 280.678V280.635H186.595ZM186.348 280.692L186.349 280.702L186.35 280.702L186.348 280.692ZM184.79 280.35L184.783 280.357L184.783 280.357L184.79 280.35ZM185.284 277.823L185.279 277.815L185.278 277.815L185.284 277.823ZM190.471 277.747L190.467 277.756L190.467 277.756L190.471 277.747ZM192.105 279.191L192.097 279.196L192.097 279.196L192.105 279.191ZM192.675 286.43H192.634L192.673 286.44L192.675 286.43ZM193.815 286.715H193.856L193.818 286.705L193.815 286.715ZM190.338 286.297L190.346 286.29L190.346 286.29L190.338 286.297ZM189.92 285.575L189.93 285.572L189.922 285.551L189.911 285.57L189.92 285.575ZM189.293 286.43L189.3 286.437L189.3 286.437L189.293 286.43ZM189.198 285.86L189.206 285.866L189.206 285.866L189.198 285.86ZM189.635 285.1L189.645 285.105V285.1H189.635ZM187.963 282.44L187.962 282.43L187.962 282.43L187.963 282.44ZM187.165 282.535L187.163 282.515L187.156 282.531L187.165 282.535ZM186.975 283.105L186.985 283.108L186.975 283.105ZM187.108 286.107L187.117 286.102L187.108 286.107ZM187.165 287.275C186.039 287.275 185.174 287.035 184.568 286.555L184.556 286.571C185.166 287.054 186.037 287.295 187.165 287.295V287.275ZM184.568 286.555C183.963 286.076 183.66 285.464 183.66 284.72H183.64C183.64 285.471 183.946 286.088 184.556 286.571L184.568 286.555ZM183.66 284.72C183.66 284.228 183.768 283.741 183.982 283.261L183.964 283.253C183.748 283.735 183.64 284.224 183.64 284.72H183.66ZM183.983 283.261C184.071 283.033 184.184 282.825 184.323 282.636L184.307 282.624C184.167 282.815 184.053 283.025 183.964 283.253L183.983 283.261ZM184.318 282.64C184.837 282.513 185.4 282.399 186.008 282.298L186.005 282.278C185.396 282.38 184.832 282.494 184.313 282.62L184.318 282.64ZM186.008 282.298C187.376 282.07 188.585 281.931 189.636 281.88L189.635 281.86C188.583 281.911 187.373 282.05 186.005 282.278L186.008 282.298ZM189.645 281.87V281.3H189.625V281.87H189.645ZM189.645 281.3C189.645 280.597 189.602 280.002 189.517 279.517C189.431 279.032 189.303 278.655 189.131 278.388L189.114 278.398C189.284 278.663 189.412 279.037 189.497 279.52C189.582 280.004 189.625 280.597 189.625 281.3H189.645ZM189.131 278.388C188.787 277.852 188.257 277.585 187.545 277.585V277.605C188.252 277.605 188.774 277.87 189.114 278.398L189.131 278.388ZM187.545 277.585C187.278 277.585 187.049 277.617 186.858 277.681L186.864 277.699C187.053 277.637 187.28 277.605 187.545 277.605V277.585ZM186.858 277.681L186.592 277.776L186.599 277.794L186.865 277.699L186.858 277.681ZM186.585 277.785V280.635H186.605V277.785H186.585ZM186.593 280.625L186.346 280.682L186.35 280.702L186.597 280.645L186.593 280.625ZM186.347 280.682C186.145 280.707 185.974 280.72 185.835 280.72V280.74C185.975 280.74 186.147 280.727 186.349 280.702L186.347 280.682ZM185.835 280.72C185.407 280.72 185.061 280.594 184.797 280.343L184.783 280.357C185.051 280.613 185.402 280.74 185.835 280.74V280.72ZM184.797 280.343C184.546 280.079 184.42 279.734 184.42 279.305H184.4C184.4 279.738 184.528 280.089 184.783 280.357L184.797 280.343ZM184.42 279.305C184.42 278.726 184.709 278.235 185.29 277.831L185.278 277.815C184.694 278.222 184.4 278.718 184.4 279.305H184.42ZM185.29 277.831C185.883 277.428 186.761 277.225 187.925 277.225V277.205C186.759 277.205 185.876 277.408 185.279 277.815L185.29 277.831ZM187.925 277.225C188.912 277.225 189.759 277.402 190.467 277.756L190.476 277.738C189.765 277.383 188.914 277.205 187.925 277.205V277.225ZM190.467 277.756C191.187 278.097 191.73 278.577 192.097 279.196L192.114 279.186C191.745 278.563 191.199 278.081 190.475 277.738L190.467 277.756ZM192.097 279.196C192.476 279.803 192.665 280.504 192.665 281.3H192.685C192.685 280.5 192.495 279.795 192.114 279.186L192.097 279.196ZM192.665 281.3V286.43H192.685V281.3H192.665ZM192.673 286.44L193.813 286.725L193.818 286.705L192.678 286.42L192.673 286.44ZM193.805 286.715V287H193.825V286.715H193.805ZM193.815 286.99H192.105V287.01H193.815V286.99ZM192.105 286.99C191.347 286.99 190.761 286.756 190.346 286.29L190.331 286.304C190.751 286.775 191.343 287.01 192.105 287.01V286.99ZM190.346 286.29C190.169 286.101 190.031 285.862 189.93 285.572L189.911 285.578C190.012 285.871 190.152 286.113 190.331 286.304L190.346 286.29ZM189.911 285.57C189.735 285.886 189.526 286.17 189.286 286.423L189.3 286.437C189.542 286.183 189.751 285.897 189.929 285.58L189.911 285.57ZM189.286 286.423C188.718 286.991 188.011 287.275 187.165 287.275V287.295C188.016 287.295 188.728 287.009 189.3 286.437L189.286 286.423ZM187.925 286.63C188.398 286.63 188.825 286.374 189.206 285.866L189.19 285.854C188.811 286.359 188.39 286.61 187.925 286.61V286.63ZM189.206 285.866C189.346 285.675 189.492 285.421 189.644 285.104L189.626 285.096C189.474 285.412 189.329 285.665 189.19 285.854L189.206 285.866ZM189.645 285.1V282.345H189.625V285.1H189.645ZM189.635 282.335C189.052 282.335 188.494 282.367 187.962 282.43L187.964 282.45C188.496 282.387 189.053 282.355 189.635 282.355V282.335ZM187.962 282.43C187.569 282.481 187.303 282.512 187.164 282.525L187.166 282.545C187.306 282.532 187.572 282.501 187.964 282.45L187.962 282.43ZM187.156 282.531C187.092 282.671 187.029 282.862 186.966 283.102L186.985 283.108C187.048 282.867 187.111 282.678 187.174 282.539L187.156 282.531ZM186.966 283.102C186.839 283.585 186.775 284.06 186.775 284.53H186.795C186.795 284.062 186.858 283.588 186.985 283.108L186.966 283.102ZM186.775 284.53C186.775 285.24 186.883 285.768 187.1 286.112L187.117 286.102C186.903 285.762 186.795 285.239 186.795 284.53H186.775ZM187.1 286.112C187.316 286.456 187.592 286.63 187.925 286.63V286.61C187.6 286.61 187.331 286.442 187.117 286.102L187.1 286.112ZM197.32 286.772L197.325 286.763L197.325 286.763L197.32 286.772ZM196.579 286.24L196.586 286.233L196.578 286.225L196.571 286.234L196.579 286.24ZM195.914 286.886L195.909 286.878L195.909 286.878L195.914 286.886ZM195.534 287.095V287.106L195.538 287.104L195.534 287.095ZM195.819 283.865L195.851 283.855H195.819V283.865ZM196.541 285.347L196.549 285.341L196.549 285.341L196.541 285.347ZM200.246 286.43L200.253 286.437V286.437L200.246 286.43ZM200.094 284.245L200.088 284.253L200.088 284.253L200.094 284.245ZM198.346 283.181L198.351 283.172L198.351 283.172L198.346 283.181ZM196.674 282.269L196.669 282.277L196.669 282.278L196.674 282.269ZM195.591 281.243L195.583 281.249L195.583 281.249L195.591 281.243ZM196.123 277.937L196.129 277.945L196.129 277.945L196.123 277.937ZM201.006 277.747L201.001 277.755L201.001 277.756L201.006 277.747ZM201.728 278.26L201.722 278.268L201.73 278.275L201.736 278.266L201.728 278.26ZM202.393 277.614L202.388 277.605L202.387 277.606L202.393 277.614ZM202.773 277.405V277.394L202.77 277.396L202.773 277.405ZM202.488 280.635L202.459 280.645H202.488V280.635ZM201.785 279.172L201.777 279.177L201.777 279.177L201.785 279.172ZM198.65 278.07L198.643 278.063L198.65 278.07ZM198.897 280.236L198.891 280.244L198.891 280.244L198.897 280.236ZM200.74 281.338L200.745 281.329L200.745 281.329L200.74 281.338ZM202.336 282.25L202.33 282.258L202.331 282.258L202.336 282.25ZM203.362 283.2L203.354 283.206L203.354 283.206L203.362 283.2ZM199.429 287.275C198.645 287.275 197.944 287.104 197.325 286.763L197.315 286.781C197.938 287.124 198.642 287.295 199.429 287.295V287.275ZM197.325 286.763C197.021 286.599 196.775 286.422 196.586 286.233L196.572 286.247C196.763 286.438 197.011 286.616 197.315 286.781L197.325 286.763ZM196.571 286.234C196.369 286.512 196.148 286.726 195.909 286.878L195.919 286.894C196.161 286.742 196.384 286.525 196.587 286.246L196.571 286.234ZM195.909 286.878C195.795 286.953 195.669 287.023 195.53 287.086L195.538 287.104C195.678 287.041 195.805 286.971 195.92 286.894L195.909 286.878ZM195.534 287.085H195.059V287.105H195.534V287.085ZM195.069 287.095V283.865H195.049V287.095H195.069ZM195.059 283.875H195.819V283.855H195.059V283.875ZM195.81 283.868C195.975 284.401 196.216 284.896 196.533 285.353L196.549 285.341C196.233 284.886 195.993 284.393 195.829 283.862L195.81 283.868ZM196.533 285.353C197.206 286.33 198.045 286.82 199.049 286.82V286.8C198.052 286.8 197.219 286.315 196.549 285.341L196.533 285.353ZM199.049 286.82C199.583 286.82 199.984 286.693 200.253 286.437L200.239 286.423C199.976 286.674 199.58 286.8 199.049 286.8V286.82ZM200.253 286.437C200.534 286.169 200.674 285.786 200.674 285.29H200.654C200.654 285.782 200.515 286.159 200.239 286.423L200.253 286.437ZM200.674 285.29C200.674 284.868 200.482 284.517 200.1 284.237L200.088 284.253C200.466 284.53 200.654 284.876 200.654 285.29H200.674ZM200.1 284.237C199.732 283.945 199.149 283.59 198.351 283.172L198.341 283.19C199.139 283.608 199.721 283.962 200.088 284.253L200.1 284.237ZM198.351 283.172C197.667 282.83 197.11 282.526 196.679 282.26L196.669 282.278C197.1 282.544 197.657 282.848 198.342 283.19L198.351 283.172ZM196.68 282.261C196.263 281.983 195.902 281.641 195.599 281.237L195.583 281.249C195.888 281.655 196.25 281.998 196.669 282.277L196.68 282.261ZM195.599 281.237C195.309 280.821 195.164 280.335 195.164 279.78H195.144C195.144 280.339 195.29 280.829 195.583 281.249L195.599 281.237ZM195.164 279.78C195.164 279.023 195.485 278.412 196.129 277.945L196.117 277.929C195.469 278.399 195.144 279.017 195.144 279.78H195.164ZM196.129 277.945C196.785 277.466 197.79 277.225 199.144 277.225V277.205C197.788 277.205 196.778 277.446 196.117 277.929L196.129 277.945ZM199.144 277.225C199.814 277.225 200.432 277.402 201.001 277.755L201.011 277.739C200.44 277.383 199.817 277.205 199.144 277.205V277.225ZM201.001 277.756C201.279 277.92 201.519 278.091 201.722 278.268L201.735 278.252C201.531 278.075 201.29 277.903 201.011 277.738L201.001 277.756ZM201.736 278.266C201.9 278.039 202.121 277.824 202.399 277.622L202.387 277.606C202.108 277.809 201.885 278.025 201.72 278.254L201.736 278.266ZM202.398 277.623C202.506 277.559 202.591 277.51 202.654 277.476C202.718 277.441 202.758 277.42 202.776 277.414L202.77 277.396C202.75 277.402 202.708 277.423 202.645 277.458C202.581 277.493 202.496 277.542 202.388 277.605L202.398 277.623ZM202.773 277.415H203.248V277.395H202.773V277.415ZM203.238 277.405V280.635H203.258V277.405H203.238ZM203.248 280.625H202.488V280.645H203.248V280.625ZM202.498 280.632C202.307 280.086 202.073 279.598 201.794 279.167L201.777 279.177C202.055 279.607 202.289 280.094 202.479 280.638L202.498 280.632ZM201.794 279.167C201.159 278.177 200.403 277.68 199.524 277.68V277.7C200.394 277.7 201.144 278.191 201.777 279.177L201.794 279.167ZM199.524 277.68C199.179 277.68 198.885 277.808 198.643 278.063L198.657 278.077C198.896 277.825 199.185 277.7 199.524 277.7V277.68ZM198.643 278.063C198.4 278.318 198.279 278.638 198.279 279.02H198.299C198.299 278.642 198.419 278.328 198.657 278.077L198.643 278.063ZM198.279 279.02C198.279 279.505 198.483 279.913 198.891 280.244L198.903 280.228C198.5 279.901 198.299 279.498 198.299 279.02H198.279ZM198.891 280.244C199.297 280.561 199.912 280.929 200.736 281.347L200.745 281.329C199.921 280.911 199.308 280.544 198.903 280.228L198.891 280.244ZM200.736 281.347C201.407 281.689 201.938 281.993 202.33 282.258L202.342 282.242C201.949 281.975 201.416 281.671 200.745 281.329L200.736 281.347ZM202.331 282.258C202.735 282.511 203.076 282.827 203.354 283.206L203.37 283.194C203.091 282.813 202.748 282.496 202.341 282.242L202.331 282.258ZM203.354 283.206C203.644 283.584 203.789 284.025 203.789 284.53H203.809C203.809 284.021 203.663 283.576 203.37 283.194L203.354 283.206ZM203.789 284.53C203.789 285.445 203.426 286.131 202.701 286.588C201.975 287.045 200.885 287.275 199.429 287.275V287.295C200.886 287.295 201.981 287.065 202.712 286.605C203.443 286.144 203.809 285.451 203.809 284.53H203.789ZM207.98 286.829L207.975 286.838L207.975 286.838L207.98 286.829ZM206.574 285.575L206.582 285.57L206.574 285.575ZM209.481 286.164L209.472 286.169L209.481 286.164ZM211.742 286.145L211.75 286.151L211.742 286.145ZM212.027 286.525L212.034 286.532L212.034 286.532L212.027 286.525ZM210.165 287.275C209.33 287.275 208.603 287.123 207.984 286.82L207.975 286.838C208.598 287.143 209.328 287.295 210.165 287.295V287.275ZM207.984 286.82C207.378 286.517 206.911 286.1 206.582 285.57L206.565 285.58C206.896 286.114 207.366 286.533 207.975 286.838L207.984 286.82ZM206.582 285.57C206.254 285.039 206.09 284.44 206.09 283.77H206.07C206.07 284.443 206.235 285.047 206.565 285.58L206.582 285.57ZM206.09 283.77V277.975H206.07V283.77H206.09ZM206.08 277.965H204.75V277.985H206.08V277.965ZM204.76 277.975V277.5H204.74V277.975H204.76ZM204.75 277.51H206.08V277.49H204.75V277.51ZM206.09 277.5V276.55H206.07V277.5H206.09ZM206.09 276.55C206.09 275.982 206.232 275.557 206.514 275.275C206.797 274.992 207.221 274.85 207.79 274.85V274.83C207.218 274.83 206.788 274.973 206.5 275.26C206.213 275.548 206.07 275.978 206.07 276.55H206.09ZM207.79 274.85H209.12V274.83H207.79V274.85ZM209.11 274.84V277.5H209.13V274.84H209.11ZM209.12 277.51H211.78V277.49H209.12V277.51ZM211.77 277.5V277.975H211.79V277.5H211.77ZM211.78 277.965H209.12V277.985H211.78V277.965ZM209.11 277.975V283.77H209.13V277.975H209.11ZM209.11 283.77C209.11 284.353 209.14 284.844 209.2 285.244C209.26 285.644 209.351 285.952 209.472 286.169L209.49 286.159C209.37 285.945 209.28 285.639 209.22 285.241C209.16 284.843 209.13 284.352 209.13 283.77H209.11ZM209.472 286.169C209.714 286.603 210.072 286.82 210.545 286.82V286.8C210.08 286.8 209.729 286.587 209.49 286.159L209.472 286.169ZM210.545 286.82C211.005 286.82 211.406 286.596 211.75 286.151L211.734 286.139C211.393 286.58 210.997 286.8 210.545 286.8V286.82ZM211.75 286.151C212.094 285.705 212.265 285.101 212.265 284.34H212.245C212.245 285.099 212.074 285.698 211.734 286.139L211.75 286.151ZM212.255 284.35H212.73V284.33H212.255V284.35ZM212.72 284.34C212.72 285.276 212.486 286.001 212.019 286.518L212.034 286.532C212.505 286.01 212.74 285.279 212.74 284.34H212.72ZM212.02 286.518C211.553 287.023 210.935 287.275 210.165 287.275V287.295C210.94 287.295 211.563 287.041 212.034 286.532L212.02 286.518ZM215.128 285.955L215.12 285.962L215.121 285.962L215.128 285.955ZM214.368 279.571L214.359 279.566L214.368 279.571ZM216.002 277.823L215.997 277.814L215.997 277.814L216.002 277.823ZM220.828 277.728L220.823 277.737L220.823 277.737L220.828 277.728ZM222.424 279.115L222.415 279.12L222.415 279.121L222.424 279.115ZM222.899 281.832L222.908 281.835L222.908 281.835L222.899 281.832ZM222.804 282.155L222.808 282.176L222.813 282.158L222.804 282.155ZM221.037 282.44L221.035 282.43L221.035 282.43L221.037 282.44ZM217.617 285.879L217.608 285.884L217.608 285.884L217.617 285.879ZM220.657 286.468L220.661 286.477L220.661 286.477L220.657 286.468ZM221.664 285.537L221.655 285.532L221.655 285.532L221.664 285.537ZM222.063 285.784L222.054 285.778L222.063 285.784ZM220.79 286.886L220.794 286.895L220.794 286.895L220.79 286.886ZM218.985 282.155L218.984 282.145L218.983 282.145L218.985 282.155ZM219.669 282.06L219.674 282.085L219.678 282.062L219.669 282.06ZM219.764 281.642L219.773 281.644L219.773 281.644L219.764 281.642ZM219.441 278.336L219.432 278.341L219.432 278.341L219.441 278.336ZM218.909 287.275C217.289 287.275 216.032 286.832 215.135 285.948L215.121 285.962C216.022 286.851 217.285 287.295 218.909 287.295V287.275ZM215.135 285.948C214.238 285.051 213.789 283.819 213.789 282.25H213.769C213.769 283.823 214.219 285.06 215.12 285.962L215.135 285.948ZM213.789 282.25C213.789 281.225 213.985 280.334 214.376 279.576L214.359 279.566C213.965 280.328 213.769 281.223 213.769 282.25H213.789ZM214.376 279.576C214.768 278.817 215.312 278.236 216.007 277.832L215.997 277.814C215.298 278.221 214.752 278.805 214.359 279.566L214.376 279.576ZM216.007 277.832C216.714 277.427 217.523 277.225 218.434 277.225V277.205C217.52 277.205 216.708 277.408 215.997 277.814L216.007 277.832ZM218.434 277.225C219.344 277.225 220.141 277.396 220.823 277.737L220.832 277.719C220.146 277.376 219.347 277.205 218.434 277.205V277.225ZM220.823 277.737C221.518 278.078 222.049 278.539 222.415 279.12L222.432 279.11C222.064 278.525 221.53 278.062 220.832 277.719L220.823 277.737ZM222.415 279.121C222.794 279.689 222.984 280.32 222.984 281.015H223.004C223.004 280.316 222.813 279.681 222.432 279.109L222.415 279.121ZM222.984 281.015C222.984 281.331 222.952 281.602 222.889 281.829L222.908 281.835C222.972 281.606 223.004 281.332 223.004 281.015H222.984ZM222.889 281.829L222.794 282.152L222.813 282.158L222.908 281.835L222.889 281.829ZM222.802 282.145C222.257 282.259 221.668 282.354 221.035 282.43L221.038 282.45C221.671 282.374 222.261 282.279 222.806 282.165L222.802 282.145ZM221.035 282.43C219.706 282.62 218.363 282.715 217.009 282.715V282.735C218.364 282.735 219.707 282.64 221.038 282.45L221.035 282.43ZM216.999 282.725C216.999 284.195 217.201 285.249 217.608 285.884L217.625 285.874C217.221 285.243 217.019 284.194 217.019 282.725H216.999ZM217.608 285.884C218.015 286.508 218.576 286.82 219.289 286.82V286.8C218.583 286.8 218.029 286.492 217.625 285.874L217.608 285.884ZM219.289 286.82C219.784 286.82 220.242 286.706 220.661 286.477L220.652 286.459C220.235 286.686 219.781 286.8 219.289 286.8V286.82ZM220.661 286.477C221.093 286.235 221.43 285.924 221.672 285.542L221.655 285.532C221.415 285.91 221.081 286.219 220.652 286.459L220.661 286.477ZM221.672 285.542C221.926 285.148 222.054 284.748 222.054 284.34H222.034C222.034 284.743 221.908 285.14 221.655 285.532L221.672 285.542ZM222.044 284.35H222.519V284.33H222.044V284.35ZM222.509 284.34C222.509 284.845 222.357 285.324 222.054 285.778L222.071 285.79C222.376 285.332 222.529 284.849 222.529 284.34H222.509ZM222.054 285.778C221.751 286.233 221.328 286.599 220.785 286.877L220.794 286.895C221.34 286.616 221.766 286.247 222.071 285.79L222.054 285.778ZM220.785 286.877C220.242 287.142 219.617 287.275 218.909 287.275V287.295C219.619 287.295 220.248 287.162 220.794 286.895L220.785 286.877ZM217.009 282.26C217.819 282.26 218.479 282.228 218.986 282.165L218.983 282.145C218.477 282.208 217.819 282.24 217.009 282.24V282.26ZM218.985 282.165C219.201 282.152 219.43 282.121 219.671 282.07L219.666 282.05C219.426 282.101 219.199 282.132 218.984 282.145L218.985 282.165ZM219.678 282.062C219.691 281.999 219.723 281.86 219.773 281.644L219.754 281.64C219.703 281.855 219.671 281.995 219.659 282.058L219.678 282.062ZM219.773 281.644C219.837 281.327 219.869 280.99 219.869 280.635H219.849C219.849 280.989 219.817 281.324 219.754 281.64L219.773 281.644ZM219.869 280.635C219.869 279.583 219.729 278.815 219.449 278.331L219.432 278.341C219.709 278.82 219.849 279.584 219.849 280.635H219.869ZM219.449 278.331C219.17 277.835 218.831 277.585 218.434 277.585V277.605C218.821 277.605 219.154 277.849 219.432 278.341L219.449 278.331ZM218.434 277.585C217.951 277.585 217.593 277.979 217.355 278.756C217.117 279.533 216.999 280.698 216.999 282.25H217.019C217.019 280.699 217.137 279.536 217.374 278.762C217.612 277.987 217.966 277.605 218.434 277.605V277.585ZM224.41 286.715L224.4 286.675V286.715H224.41ZM225.55 286.43L225.56 286.47V286.43H225.55ZM225.55 278.07H225.592L225.553 278.06L225.55 278.07ZM224.41 277.785H224.369L224.408 277.795L224.41 277.785ZM227.887 278.222L227.895 278.215L227.895 278.215L227.887 278.222ZM228.305 278.925L228.296 278.929L228.303 278.946L228.314 278.931L228.305 278.925ZM229.008 278.165L229.002 278.157L229.002 278.157L229.008 278.165ZM232.637 277.88L232.63 277.887L232.631 277.887L232.637 277.88ZM232.751 280.255L232.758 280.262L232.751 280.255ZM231.193 280.597L231.191 280.607L231.192 280.607L231.193 280.597ZM230.965 280.54H230.924L230.963 280.55L230.965 280.54ZM229.198 278.64L229.191 278.633L229.191 278.633L229.198 278.64ZM228.59 279.4L228.58 279.394V279.4H228.59ZM228.59 286.43H228.549L228.588 286.44L228.59 286.43ZM229.73 286.715H229.772L229.733 286.705L229.73 286.715ZM224.413 286.725L225.553 286.44L225.548 286.42L224.408 286.705L224.413 286.725ZM225.56 286.43V278.07H225.54V286.43H225.56ZM225.553 278.06L224.413 277.775L224.408 277.795L225.548 278.08L225.553 278.06ZM224.42 277.785V277.5H224.4V277.785H224.42ZM224.41 277.51H226.12V277.49H224.41V277.51ZM226.12 277.51C226.865 277.51 227.451 277.75 227.88 278.229L227.895 278.215C227.462 277.732 226.87 277.49 226.12 277.49V277.51ZM227.88 278.229C228.044 278.418 228.182 278.651 228.296 278.929L228.315 278.921C228.2 278.642 228.06 278.406 227.895 278.215L227.88 278.229ZM228.314 278.931C228.503 278.653 228.737 278.4 229.015 278.173L229.002 278.157C228.723 278.386 228.488 278.64 228.297 278.919L228.314 278.931ZM229.015 278.173C229.646 277.668 230.353 277.415 231.136 277.415V277.395C230.349 277.395 229.637 277.649 229.002 278.157L229.015 278.173ZM231.136 277.415C231.806 277.415 232.304 277.573 232.63 277.887L232.644 277.873C232.312 277.554 231.809 277.395 231.136 277.395V277.415ZM232.631 277.887C232.97 278.189 233.14 278.629 233.14 279.21H233.16C233.16 278.625 232.989 278.179 232.644 277.873L232.631 277.887ZM233.14 279.21C233.14 279.638 233.008 279.984 232.744 280.248L232.758 280.262C233.027 279.994 233.16 279.643 233.16 279.21H233.14ZM232.744 280.248C232.493 280.499 232.154 280.625 231.725 280.625V280.645C232.158 280.645 232.503 280.518 232.758 280.262L232.744 280.248ZM231.725 280.625C231.549 280.625 231.372 280.612 231.195 280.587L231.192 280.607C231.37 280.632 231.548 280.645 231.725 280.645V280.625ZM231.196 280.587L230.968 280.53L230.963 280.55L231.191 280.607L231.196 280.587ZM230.975 280.54V277.88H230.955V280.54H230.975ZM230.965 277.87C230.316 277.87 229.725 278.125 229.191 278.633L229.205 278.647C229.736 278.142 230.322 277.89 230.965 277.89V277.87ZM229.191 278.633C228.938 278.887 228.734 279.141 228.582 279.395L228.599 279.405C228.75 279.153 228.953 278.9 229.205 278.647L229.191 278.633ZM228.58 279.4V286.43H228.6V279.4H228.58ZM228.588 286.44L229.728 286.725L229.733 286.705L228.593 286.42L228.588 286.44ZM229.72 286.715V287H229.74V286.715H229.72ZM229.73 286.99H224.41V287.01H229.73V286.99ZM224.42 287V286.715H224.4V287H224.42Z" fill="black"/>
</svg>
