<svg width="1440" height="900" viewBox="0 0 1440 900" fill="none" xmlns="http://www.w3.org/2000/svg">
<rect x="720" width="720" height="900" fill="#FFBCCC"/>
<rect width="720" height="900" fill="white"/>
<path d="M485.16 467.8C481.832 467.8 478.776 466.968 475.992 465.304C473.208 463.672 471 461.432 469.368 458.584C467.736 455.704 466.92 452.536 466.92 449.08C466.92 445.624 467.736 442.472 469.368 439.624C471 436.744 473.208 434.488 475.992 432.856C478.776 431.192 481.832 430.36 485.16 430.36C488.488 430.36 491.544 431.192 494.328 432.856C497.112 434.488 499.32 436.744 500.952 439.624C502.584 442.472 503.4 445.624 503.4 449.08C503.4 451.16 503.032 452.984 502.296 454.552C501.56 456.12 500.584 457.32 499.368 458.152C498.152 458.984 496.856 459.4 495.48 459.4C492.472 459.4 490.296 458.76 488.952 457.48C488.376 456.904 487.992 456.264 487.8 455.56C487.576 456.264 487.24 456.904 486.792 457.48C485.768 458.76 484.344 459.4 482.52 459.4C480.184 459.4 478.28 458.6 476.808 457C475.336 455.4 474.6 453.24 474.6 450.52C474.6 446.872 475.64 444.04 477.72 442.024C479.832 440.008 482.872 439 486.84 439H493.8V454.6C493.8 455.784 494.04 456.68 494.52 457.288C495.032 457.896 495.672 458.2 496.44 458.2C497.208 458.2 497.992 457.848 498.792 457.144C499.624 456.408 500.312 455.352 500.856 453.976C501.432 452.6 501.72 450.968 501.72 449.08C501.72 445.88 500.968 442.968 499.464 440.344C497.992 437.688 495.992 435.608 493.464 434.104C490.936 432.568 488.168 431.8 485.16 431.8C482.152 431.8 479.384 432.568 476.856 434.104C474.328 435.608 472.312 437.688 470.808 440.344C469.336 442.968 468.6 445.88 468.6 449.08C468.6 452.28 469.336 455.208 470.808 457.864C472.312 460.488 474.328 462.552 476.856 464.056C479.384 465.592 482.152 466.36 485.16 466.36C487.272 466.36 489.448 465.88 491.688 464.92C492.648 464.472 493.512 463.992 494.28 463.48L495 464.68C494.232 465.288 493.304 465.816 492.216 466.264C489.912 467.288 487.56 467.8 485.16 467.8ZM484.44 457.72C485.144 457.72 485.752 457.24 486.264 456.28C486.52 455.832 486.712 455.352 486.84 454.84V440.2C483.32 440.2 481.56 443.64 481.56 450.52C481.56 453.08 481.832 454.92 482.376 456.04C482.92 457.16 483.608 457.72 484.44 457.72ZM519.953 463.72C515.985 463.72 512.865 462.6 510.593 460.36C508.353 458.088 507.233 454.968 507.233 451C507.233 447.032 508.353 443.928 510.593 441.688C512.865 439.416 515.985 438.28 519.953 438.28C523.921 438.28 527.025 439.416 529.265 441.688C531.537 443.928 532.673 447.032 532.673 451C532.673 454.968 531.537 458.088 529.265 460.36C527.025 462.6 523.921 463.72 519.953 463.72ZM519.953 462.76C521.233 462.76 522.305 461.864 523.169 460.072C524.065 458.28 524.513 455.256 524.513 451C524.513 446.744 524.065 443.72 523.169 441.928C522.305 440.136 521.233 439.24 519.953 439.24C518.673 439.24 517.585 440.136 516.689 441.928C515.825 443.72 515.393 446.744 515.393 451C515.393 455.256 515.825 458.28 516.689 460.072C517.585 461.864 518.673 462.76 519.953 462.76ZM536.529 462.28L539.409 461.56V430.84L536.529 430.12V429.4H542.769C545.649 429.4 547.089 430.84 547.089 433.72V450.52L555.969 441.16L552.369 439.72V439H561.489V439.72L557.649 441.16L552.129 446.92L561.489 461.56L563.889 462.28V463H557.649C556.113 463 554.865 462.664 553.905 461.992C552.945 461.32 552.033 460.296 551.169 458.92L547.089 452.44V461.56L549.969 462.28V463H536.529V462.28ZM576.591 463.72C574.607 463.72 572.831 463.288 571.263 462.424C570.495 462.008 569.871 461.56 569.391 461.08C568.879 461.784 568.319 462.328 567.711 462.712C567.423 462.904 567.103 463.08 566.751 463.24H565.551V455.08H567.471C567.887 456.424 568.495 457.672 569.295 458.824C570.991 461.288 573.103 462.52 575.631 462.52C576.975 462.52 577.983 462.2 578.655 461.56C579.359 460.888 579.711 459.928 579.711 458.68C579.711 457.624 579.231 456.744 578.271 456.04C577.343 455.304 575.871 454.408 573.855 453.352C572.127 452.488 570.719 451.72 569.631 451.048C568.575 450.344 567.663 449.48 566.895 448.456C566.159 447.4 565.791 446.168 565.791 444.76C565.791 442.84 566.607 441.288 568.239 440.104C569.903 438.888 572.447 438.28 575.871 438.28C577.567 438.28 579.135 438.728 580.575 439.624C581.279 440.04 581.887 440.472 582.399 440.92C582.815 440.344 583.375 439.8 584.079 439.288C584.623 438.968 584.943 438.792 585.039 438.76H586.239V446.92H584.319C583.839 445.544 583.247 444.312 582.543 443.224C580.943 440.728 579.039 439.48 576.831 439.48C575.967 439.48 575.231 439.8 574.623 440.44C574.015 441.08 573.711 441.88 573.711 442.84C573.711 444.056 574.223 445.08 575.247 445.912C576.271 446.712 577.823 447.64 579.903 448.696C581.599 449.56 582.943 450.328 583.935 451C584.959 451.64 585.823 452.44 586.527 453.4C587.263 454.36 587.631 455.48 587.631 456.76C587.631 461.4 583.951 463.72 576.591 463.72ZM600.593 463.72C597.745 463.72 595.553 463.112 594.017 461.896C592.481 460.68 591.713 459.128 591.713 457.24C591.713 455.992 591.985 454.76 592.529 453.544C592.753 452.968 593.041 452.44 593.393 451.96C594.705 451.64 596.129 451.352 597.665 451.096C601.121 450.52 604.177 450.168 606.833 450.04V448.6C606.833 445.048 606.401 442.6 605.537 441.256C604.673 439.912 603.345 439.24 601.553 439.24C600.881 439.24 600.305 439.32 599.825 439.48L599.153 439.72V446.92L598.529 447.064C598.017 447.128 597.585 447.16 597.233 447.16C596.145 447.16 595.265 446.84 594.593 446.2C593.953 445.528 593.633 444.648 593.633 443.56C593.633 442.088 594.369 440.84 595.841 439.816C597.345 438.792 599.569 438.28 602.513 438.28C605.009 438.28 607.153 438.728 608.945 439.624C610.769 440.488 612.145 441.704 613.073 443.272C614.033 444.808 614.513 446.584 614.513 448.6V461.56L617.393 462.28V463H613.073C611.153 463 609.665 462.408 608.609 461.224C608.161 460.744 607.809 460.136 607.553 459.4C607.105 460.2 606.577 460.92 605.969 461.56C604.529 463 602.737 463.72 600.593 463.72ZM602.513 462.04C603.697 462.04 604.769 461.4 605.729 460.12C606.081 459.64 606.449 459 606.833 458.2V451.24C605.361 451.24 603.953 451.32 602.609 451.48C601.617 451.608 600.945 451.688 600.593 451.72C600.433 452.072 600.273 452.552 600.113 453.16C599.793 454.376 599.633 455.576 599.633 456.76C599.633 458.552 599.905 459.88 600.449 460.744C600.993 461.608 601.681 462.04 602.513 462.04ZM620.295 462.28L623.175 461.56V440.44L620.295 439.72V439H624.615C626.503 439 627.991 439.608 629.079 440.824C629.495 441.304 629.847 441.896 630.135 442.6C630.583 441.768 631.111 441.048 631.719 440.44C633.159 439 634.951 438.28 637.095 438.28C638.887 438.28 640.487 438.664 641.895 439.432C643.335 440.168 644.455 441.144 645.255 442.36C646.055 443.576 646.455 444.856 646.455 446.2V461.56L649.335 462.28V463H643.095C640.215 463 638.775 461.56 638.775 458.68V446.2C638.775 444.184 638.407 442.648 637.671 441.592C636.967 440.504 636.135 439.96 635.175 439.96C633.959 439.96 632.871 440.6 631.911 441.88C631.495 442.424 631.143 443.064 630.855 443.8V461.56L633.735 462.28V463H620.295V462.28ZM661.577 463.72C658.729 463.72 656.537 463.112 655.001 461.896C653.465 460.68 652.697 459.128 652.697 457.24C652.697 455.992 652.969 454.76 653.513 453.544C653.737 452.968 654.025 452.44 654.377 451.96C655.689 451.64 657.113 451.352 658.649 451.096C662.105 450.52 665.161 450.168 667.817 450.04V448.6C667.817 445.048 667.385 442.6 666.521 441.256C665.657 439.912 664.329 439.24 662.537 439.24C661.865 439.24 661.289 439.32 660.809 439.48L660.137 439.72V446.92L659.513 447.064C659.001 447.128 658.569 447.16 658.217 447.16C657.129 447.16 656.249 446.84 655.577 446.2C654.937 445.528 654.617 444.648 654.617 443.56C654.617 442.088 655.353 440.84 656.825 439.816C658.329 438.792 660.553 438.28 663.497 438.28C665.993 438.28 668.137 438.728 669.929 439.624C671.753 440.488 673.129 441.704 674.057 443.272C675.017 444.808 675.497 446.584 675.497 448.6V461.56L678.377 462.28V463H674.057C672.137 463 670.649 462.408 669.593 461.224C669.145 460.744 668.793 460.136 668.537 459.4C668.089 460.2 667.561 460.92 666.953 461.56C665.513 463 663.721 463.72 661.577 463.72ZM663.497 462.04C664.681 462.04 665.753 461.4 666.713 460.12C667.065 459.64 667.433 459 667.817 458.2V451.24C666.345 451.24 664.937 451.32 663.593 451.48C662.601 451.608 661.929 451.688 661.577 451.72C661.417 452.072 661.257 452.552 661.097 453.16C660.777 454.376 660.617 455.576 660.617 456.76C660.617 458.552 660.889 459.88 661.433 460.744C661.977 461.608 662.665 462.04 663.497 462.04ZM681.279 462.28L684.159 461.56V430.84L681.279 430.12V429.4H687.519C690.399 429.4 691.839 430.84 691.839 433.72V450.52L700.719 441.16L697.119 439.72V439H706.239V439.72L702.399 441.16L696.879 446.92L706.239 461.56L708.639 462.28V463H702.399C700.863 463 699.615 462.664 698.655 461.992C697.695 461.32 696.783 460.296 695.919 458.92L691.839 452.44V461.56L694.719 462.28V463H681.279V462.28Z" fill="#FFBCCC"/>
<path d="M708.141 467.8V465.64H726.861V467.8H708.141ZM728.764 462.28L731.644 461.56V440.44L728.764 439.72V439H733.084C734.972 439 736.46 439.608 737.548 440.824C737.964 441.304 738.316 441.896 738.604 442.6C739.084 441.704 739.596 440.984 740.14 440.44C741.58 439 743.228 438.28 745.084 438.28C746.94 438.28 748.572 438.696 749.98 439.528C751.388 440.328 752.476 441.432 753.244 442.84C753.724 441.912 754.236 441.16 754.78 440.584C756.252 439.048 757.9 438.28 759.724 438.28C761.42 438.28 762.94 438.632 764.284 439.336C765.66 440.04 766.716 441 767.452 442.216C768.22 443.432 768.604 444.76 768.604 446.2V461.56L771.484 462.28V463H765.244C762.364 463 760.924 461.56 760.924 458.68V446.2C760.924 444.12 760.604 442.568 759.964 441.544C759.324 440.488 758.604 439.96 757.804 439.96C756.876 439.96 755.932 440.6 754.972 441.88C754.588 442.488 754.252 443.128 753.964 443.8V461.56L756.844 462.28V463H743.404V462.28L746.284 461.56V446.2C746.284 444.12 745.964 442.568 745.324 441.544C744.684 440.488 743.964 439.96 743.164 439.96C742.236 439.96 741.292 440.6 740.332 441.88C739.948 442.488 739.612 443.128 739.324 443.8V461.56L742.204 462.28V463H728.764V462.28ZM783.733 463.72C780.885 463.72 778.693 463.112 777.157 461.896C775.621 460.68 774.853 459.128 774.853 457.24C774.853 455.992 775.125 454.76 775.669 453.544C775.893 452.968 776.181 452.44 776.533 451.96C777.845 451.64 779.269 451.352 780.805 451.096C784.261 450.52 787.317 450.168 789.973 450.04V448.6C789.973 445.048 789.541 442.6 788.677 441.256C787.813 439.912 786.485 439.24 784.693 439.24C784.021 439.24 783.445 439.32 782.965 439.48L782.293 439.72V446.92L781.669 447.064C781.157 447.128 780.725 447.16 780.373 447.16C779.285 447.16 778.405 446.84 777.733 446.2C777.093 445.528 776.773 444.648 776.773 443.56C776.773 442.088 777.509 440.84 778.981 439.816C780.485 438.792 782.709 438.28 785.653 438.28C788.149 438.28 790.293 438.728 792.085 439.624C793.909 440.488 795.285 441.704 796.213 443.272C797.173 444.808 797.653 446.584 797.653 448.6V461.56L800.533 462.28V463H796.213C794.293 463 792.805 462.408 791.749 461.224C791.301 460.744 790.949 460.136 790.693 459.4C790.245 460.2 789.717 460.92 789.109 461.56C787.669 463 785.877 463.72 783.733 463.72ZM785.653 462.04C786.837 462.04 787.909 461.4 788.869 460.12C789.221 459.64 789.589 459 789.973 458.2V451.24C788.501 451.24 787.093 451.32 785.749 451.48C784.757 451.608 784.085 451.688 783.733 451.72C783.573 452.072 783.413 452.552 783.253 453.16C782.933 454.376 782.773 455.576 782.773 456.76C782.773 458.552 783.045 459.88 783.589 460.744C784.133 461.608 784.821 462.04 785.653 462.04ZM814.716 463.72C812.732 463.72 810.956 463.288 809.388 462.424C808.62 462.008 807.996 461.56 807.516 461.08C807.004 461.784 806.444 462.328 805.836 462.712C805.548 462.904 805.228 463.08 804.876 463.24H803.676V455.08H805.596C806.012 456.424 806.62 457.672 807.42 458.824C809.116 461.288 811.228 462.52 813.756 462.52C815.1 462.52 816.108 462.2 816.78 461.56C817.484 460.888 817.836 459.928 817.836 458.68C817.836 457.624 817.356 456.744 816.396 456.04C815.468 455.304 813.996 454.408 811.98 453.352C810.252 452.488 808.844 451.72 807.756 451.048C806.7 450.344 805.788 449.48 805.02 448.456C804.284 447.4 803.916 446.168 803.916 444.76C803.916 442.84 804.732 441.288 806.364 440.104C808.028 438.888 810.572 438.28 813.996 438.28C815.692 438.28 817.26 438.728 818.7 439.624C819.404 440.04 820.012 440.472 820.524 440.92C820.94 440.344 821.5 439.8 822.204 439.288C822.748 438.968 823.068 438.792 823.164 438.76H824.364V446.92H822.444C821.964 445.544 821.372 444.312 820.668 443.224C819.068 440.728 817.164 439.48 814.956 439.48C814.092 439.48 813.356 439.8 812.748 440.44C812.14 441.08 811.836 441.88 811.836 442.84C811.836 444.056 812.348 445.08 813.372 445.912C814.396 446.712 815.948 447.64 818.028 448.696C819.724 449.56 821.068 450.328 822.06 451C823.084 451.64 823.948 452.44 824.652 453.4C825.388 454.36 825.756 455.48 825.756 456.76C825.756 461.4 822.076 463.72 814.716 463.72ZM841.838 463.72C839.726 463.72 837.886 463.336 836.318 462.568C834.782 461.8 833.598 460.744 832.766 459.4C831.934 458.056 831.518 456.536 831.518 454.84V440.2H828.158V439H831.518V436.6C831.518 433.72 832.958 432.28 835.838 432.28H839.198V439H845.918V440.2H839.198V454.84C839.198 457.784 839.502 459.8 840.109 460.888C840.718 461.976 841.614 462.52 842.798 462.52C843.95 462.52 844.958 461.96 845.822 460.84C846.686 459.72 847.118 458.2 847.118 456.28H848.318C848.318 458.648 847.726 460.488 846.542 461.8C845.358 463.08 843.79 463.72 841.838 463.72ZM863.927 463.72C859.831 463.72 856.647 462.6 854.375 460.36C852.103 458.088 850.967 454.968 850.967 451C850.967 448.408 851.463 446.152 852.455 444.232C853.447 442.312 854.823 440.84 856.583 439.816C858.375 438.792 860.423 438.28 862.727 438.28C865.031 438.28 867.047 438.712 868.775 439.576C870.535 440.44 871.879 441.608 872.807 443.08C873.767 444.52 874.247 446.12 874.247 447.88C874.247 448.68 874.167 449.368 874.007 449.944L873.767 450.76C872.391 451.048 870.903 451.288 869.303 451.48C865.943 451.96 862.551 452.2 859.127 452.2C859.127 455.912 859.639 458.568 860.663 460.168C861.687 461.736 863.095 462.52 864.887 462.52C866.135 462.52 867.287 462.232 868.343 461.656C869.431 461.048 870.279 460.264 870.887 459.304C871.527 458.312 871.847 457.304 871.847 456.28H873.047C873.047 457.56 872.663 458.776 871.895 459.928C871.127 461.08 870.055 462.008 868.679 462.712C867.303 463.384 865.719 463.72 863.927 463.72ZM859.127 451C861.175 451 862.839 450.92 864.119 450.76C864.663 450.728 865.239 450.648 865.847 450.52C865.879 450.36 865.959 450.008 866.087 449.464C866.247 448.664 866.327 447.816 866.327 446.92C866.327 444.264 865.975 442.328 865.271 441.112C864.567 439.864 863.719 439.24 862.727 439.24C860.327 439.24 859.127 443.16 859.127 451ZM877.826 462.28L880.706 461.56V440.44L877.826 439.72V439H882.146C884.034 439 885.522 439.608 886.61 440.824C887.026 441.304 887.378 441.896 887.666 442.6C888.146 441.896 888.738 441.256 889.442 440.68C891.042 439.4 892.834 438.76 894.818 438.76C896.514 438.76 897.778 439.16 898.61 439.96C899.474 440.728 899.906 441.848 899.906 443.32C899.906 444.408 899.57 445.288 898.898 445.96C898.258 446.6 897.394 446.92 896.306 446.92C895.858 446.92 895.41 446.888 894.962 446.824L894.386 446.68V439.96C892.754 439.96 891.266 440.6 889.922 441.88C889.282 442.52 888.77 443.16 888.386 443.8V461.56L891.266 462.28V463H877.826V462.28Z" fill="white"/>
<path d="M642.808 593.76H638.632C637.8 593.76 637.384 594.192 637.384 595.056V606.168C637.384 607.032 637.8 607.464 638.632 607.464H642.808C643.64 607.464 644.056 607.032 644.056 606.168V595.056C644.056 594.192 643.64 593.76 642.808 593.76ZM642.856 609H638.584C637.64 609 636.92 608.752 636.424 608.256C635.944 607.76 635.704 607.048 635.704 606.12V595.08C635.704 594.168 635.944 593.464 636.424 592.968C636.92 592.456 637.64 592.2 638.584 592.2H642.856C643.784 592.2 644.496 592.456 644.992 592.968C645.488 593.464 645.736 594.168 645.736 595.08V606.12C645.736 607.032 645.488 607.744 644.992 608.256C644.496 608.752 643.784 609 642.856 609ZM649.014 598.968L648.774 597L650.406 596.784L650.694 598.968V601.872H652.11L654.126 598.656L655.038 596.808L656.838 597.048L655.806 598.944L653.382 602.64L657.702 609H655.806L652.038 603.408H650.694V609H649.014V598.968ZM662.18 597H664.82L667.196 597.672L666.788 599.136L664.82 598.56H662.228C661.396 598.56 660.98 598.992 660.98 599.856V606.168C660.98 607.032 661.396 607.464 662.228 607.464H664.94L666.908 606.888L667.316 608.352L664.94 609H662.18C661.236 609 660.516 608.752 660.02 608.256C659.54 607.76 659.3 607.048 659.3 606.12V599.88C659.3 598.968 659.54 598.264 660.02 597.768C660.516 597.256 661.236 597 662.18 597ZM669.357 597.672L671.757 597H674.493C675.437 597 676.149 597.256 676.629 597.768C677.125 598.264 677.373 598.968 677.373 599.88V607.104L677.637 609L675.981 609.192L675.717 607.056L673.029 609H671.853C670.925 609 670.213 608.752 669.717 608.256C669.221 607.744 668.973 607.032 668.973 606.12V604.656C668.973 603.744 669.221 603.04 669.717 602.544C670.213 602.032 670.925 601.776 671.853 601.776H675.693V599.856C675.693 598.992 675.277 598.56 674.445 598.56H671.757L669.789 599.136L669.357 597.672ZM671.901 607.464H672.597L675.693 605.208V603.264H671.901C671.069 603.264 670.653 603.696 670.653 604.56V606.168C670.653 607.032 671.069 607.464 671.901 607.464ZM682.454 602.016H687.494V597H689.174V607.008L689.414 608.976L687.782 609.192L687.494 607.008V603.552H682.454V609H680.774V598.968L680.534 597L682.166 596.784L682.454 598.968V602.016ZM692.443 597.672L694.843 597H697.579C698.523 597 699.235 597.256 699.715 597.768C700.211 598.264 700.459 598.968 700.459 599.88V607.104L700.723 609L699.067 609.192L698.803 607.056L696.115 609H694.939C694.011 609 693.299 608.752 692.803 608.256C692.307 607.744 692.059 607.032 692.059 606.12V604.656C692.059 603.744 692.307 603.04 692.803 602.544C693.299 602.032 694.011 601.776 694.939 601.776H698.779V599.856C698.779 598.992 698.363 598.56 697.531 598.56H694.843L692.875 599.136L692.443 597.672ZM694.987 607.464H695.683L698.779 605.208V603.264H694.987C694.155 603.264 693.739 603.696 693.739 604.56V606.168C693.739 607.032 694.155 607.464 694.987 607.464ZM716.257 593.856L717.049 592.008L718.897 592.248L717.985 594.144L713.953 600.144L719.761 609H717.817L712.513 600.936H711.121V609H709.441V592.2H711.121V599.352H712.609L716.257 593.856Z" fill="#FFBCCC"/>
<path d="M721.599 597.672L723.999 597H726.735C727.679 597 728.391 597.256 728.871 597.768C729.367 598.264 729.615 598.968 729.615 599.88V607.104L729.879 609L728.223 609.192L727.959 607.056L725.271 609H724.095C723.167 609 722.455 608.752 721.959 608.256C721.463 607.744 721.215 607.032 721.215 606.12V604.656C721.215 603.744 721.463 603.04 721.959 602.544C722.455 602.032 723.167 601.776 724.095 601.776H727.935V599.856C727.935 598.992 727.519 598.56 726.687 598.56H723.999L722.031 599.136L721.599 597.672ZM724.143 607.464H724.839L727.935 605.208V603.264H724.143C723.311 603.264 722.895 603.696 722.895 604.56V606.168C722.895 607.032 723.311 607.464 724.143 607.464ZM733.017 598.968L732.777 597.048L734.409 596.832L734.625 598.536L737.337 597H738.537C739.465 597 740.177 597.256 740.673 597.768C741.169 598.264 741.417 598.968 741.417 599.88V606.12C741.417 607.032 741.169 607.744 740.673 608.256C740.177 608.752 739.465 609 738.537 609H737.385L734.697 608.472V614.52H733.017V598.968ZM737.721 598.56L734.697 600.24V606.936L737.433 607.464H738.489C739.321 607.464 739.737 607.032 739.737 606.168V599.856C739.737 598.992 739.321 598.56 738.489 598.56H737.721ZM744.451 597.672L746.851 597H749.587C750.531 597 751.243 597.256 751.723 597.768C752.219 598.264 752.467 598.968 752.467 599.88V607.104L752.731 609L751.075 609.192L750.811 607.056L748.123 609H746.947C746.019 609 745.307 608.752 744.811 608.256C744.315 607.744 744.067 607.032 744.067 606.12V604.656C744.067 603.744 744.315 603.04 744.811 602.544C745.307 602.032 746.019 601.776 746.947 601.776H750.787V599.856C750.787 598.992 750.371 598.56 749.539 598.56H746.851L744.883 599.136L744.451 597.672ZM746.995 607.464H747.691L750.787 605.208V603.264H746.995C746.163 603.264 745.747 603.696 745.747 604.56V606.168C745.747 607.032 746.163 607.464 746.995 607.464ZM762.588 611.28V607.32L759.924 609H758.748C757.804 609 757.084 608.752 756.588 608.256C756.108 607.76 755.868 607.048 755.868 606.12V598.944L755.628 597.048L757.26 596.832L757.548 599.04V606.168C757.548 607.032 757.964 607.464 758.796 607.464H759.492L762.588 605.448V597H764.268V611.28C764.268 613.44 763.164 614.52 760.956 614.52H758.604L756.204 613.872L756.636 612.408L758.604 612.984H761.124C761.652 612.984 762.028 612.848 762.252 612.576C762.476 612.304 762.588 611.872 762.588 611.28ZM776.009 607.032L776.249 609L774.617 609.216L774.329 607.032V598.56H770.441L769.937 606.264C769.841 607.288 769.577 608.024 769.145 608.472C768.713 608.92 767.993 609.144 766.985 609.144H766.601V607.608H766.985C767.481 607.608 767.817 607.512 767.993 607.32C768.185 607.128 768.305 606.76 768.353 606.216L768.977 597H776.009V607.032ZM784.655 598.56H782.111C781.279 598.56 780.863 598.992 780.863 599.856V606.168C780.863 607.032 781.279 607.464 782.111 607.464H784.655C785.487 607.464 785.903 607.032 785.903 606.168V599.856C785.903 598.992 785.487 598.56 784.655 598.56ZM784.703 609H782.063C781.119 609 780.399 608.752 779.903 608.256C779.423 607.76 779.183 607.048 779.183 606.12V599.88C779.183 598.968 779.423 598.264 779.903 597.768C780.399 597.256 781.119 597 782.063 597H784.703C785.647 597 786.359 597.256 786.839 597.768C787.335 598.264 787.583 598.968 787.583 599.88V606.12C787.583 607.048 787.335 607.76 786.839 608.256C786.359 608.752 785.647 609 784.703 609ZM792.423 607.464H796.191C797.023 607.464 797.439 607.032 797.439 606.168V604.944C797.439 604.08 796.983 603.648 796.071 603.648H792.423V607.464ZM795.687 598.56H792.423V602.088H795.567C796.479 602.088 796.935 601.656 796.935 600.792V599.856C796.935 598.992 796.519 598.56 795.687 598.56ZM796.239 609H790.743V597H795.735C796.663 597 797.375 597.256 797.871 597.768C798.367 598.264 798.615 598.968 798.615 599.88V600.504C798.615 601.688 798.215 602.416 797.415 602.688H797.199V602.784H797.439C798.559 603.104 799.119 603.896 799.119 605.16V606.12C799.119 607.048 798.871 607.76 798.375 608.256C797.895 608.752 797.183 609 796.239 609ZM801.779 597.672L804.179 597H806.915C807.859 597 808.571 597.256 809.051 597.768C809.547 598.264 809.795 598.968 809.795 599.88V607.104L810.059 609L808.403 609.192L808.139 607.056L805.451 609H804.275C803.347 609 802.635 608.752 802.139 608.256C801.643 607.744 801.395 607.032 801.395 606.12V604.656C801.395 603.744 801.643 603.04 802.139 602.544C802.635 602.032 803.347 601.776 804.275 601.776H808.115V599.856C808.115 598.992 807.699 598.56 806.867 598.56H804.179L802.211 599.136L801.779 597.672ZM804.323 607.464H805.019L808.115 605.208V603.264H804.323C803.491 603.264 803.075 603.696 803.075 604.56V606.168C803.075 607.032 803.491 607.464 804.323 607.464Z" fill="white"/>
<path d="M720 300H372V450V600" stroke="#FFBCCC" stroke-width="2"/>
<path d="M371 600H631.002" stroke="#FFBCCC" stroke-width="2"/>
<path d="M812 601H1072" stroke="white" stroke-width="2"/>
<line x1="1071.04" y1="600.003" x2="1071.04" y2="298.996" stroke="white" stroke-width="2"/>
<line x1="720" y1="300" x2="1071" y2="300" stroke="white" stroke-width="2"/>
</svg>
