<svg width="30" height="30" viewBox="0 0 30 30" fill="none" xmlns="http://www.w3.org/2000/svg">
<path fill-rule="evenodd" clip-rule="evenodd" d="M15 28.125C18.481 28.125 21.8194 26.7422 24.2808 24.2808C26.7422 21.8194 28.125 18.481 28.125 15C28.125 11.519 26.7422 8.18064 24.2808 5.71922C21.8194 3.25781 18.481 1.875 15 1.875C11.519 1.875 8.18064 3.25781 5.71922 5.71922C3.25781 8.18064 1.875 11.519 1.875 15C1.875 18.481 3.25781 21.8194 5.71922 24.2808C8.18064 26.7422 11.519 28.125 15 28.125ZM15 30C18.9782 30 22.7936 28.4196 25.6066 25.6066C28.4196 22.7936 30 18.9782 30 15C30 11.0218 28.4196 7.20644 25.6066 4.3934C22.7936 1.58035 18.9782 0 15 0C11.0218 0 7.20644 1.58035 4.3934 4.3934C1.58035 7.20644 0 11.0218 0 15C0 18.9782 1.58035 22.7936 4.3934 25.6066C7.20644 28.4196 11.0218 30 15 30Z" fill="#FF7C9B"/>
<path fill-rule="evenodd" clip-rule="evenodd" d="M8.71122 15.6637C8.7983 15.751 8.90176 15.8203 9.01565 15.8676C9.12955 15.9148 9.25165 15.9391 9.37497 15.9391C9.49828 15.9391 9.62038 15.9148 9.73428 15.8676C9.84818 15.8203 9.95163 15.751 10.0387 15.6637L15 10.7006L19.9612 15.6637C20.1373 15.8398 20.376 15.9387 20.625 15.9387C20.8739 15.9387 21.1127 15.8398 21.2887 15.6637C21.4648 15.4877 21.5636 15.2489 21.5636 15C21.5636 14.751 21.4648 14.5123 21.2887 14.3362L15.6637 8.71122C15.5766 8.62391 15.4732 8.55464 15.3593 8.50738C15.2454 8.46012 15.1233 8.43579 15 8.43579C14.8767 8.43579 14.7546 8.46012 14.6407 8.50738C14.5268 8.55464 14.4233 8.62391 14.3362 8.71122L8.71122 14.3362C8.62391 14.4233 8.55464 14.5268 8.50738 14.6407C8.46012 14.7546 8.43579 14.8767 8.43579 15C8.43579 15.1233 8.46012 15.2454 8.50738 15.3593C8.55464 15.4732 8.62391 15.5766 8.71122 15.6637Z" fill="#FF7C9B"/>
</svg>
