<svg width="24" height="24" viewBox="0 0 24 24" fill="none" xmlns="http://www.w3.org/2000/svg">
<path d="M0.128906 23.774L1.80367 17.6893C0.77392 15.909 0.224991 13.8864 0.230725 11.8188C0.230725 5.33971 5.52676 0.0719299 12.0337 0.0719299C15.1909 0.0719299 18.1557 1.29443 20.3795 3.51423C22.6087 5.73402 23.8366 8.68623 23.8309 11.8244C23.8309 18.3034 18.5349 23.5712 12.0279 23.5712H12.0224C10.0515 23.5704 8.11214 23.0785 6.38115 22.1401L0.128906 23.7741V23.774ZM6.67533 20.0105L7.03179 20.2246C8.53693 21.1148 10.2626 21.5824 12.0224 21.588H12.028C17.4315 21.588 21.8336 17.2105 21.8336 11.8244C21.8336 9.21588 20.8151 6.76507 18.9649 4.91715C17.1147 3.06922 14.6477 2.0551 12.028 2.0551C6.61879 2.0551 2.21678 6.43268 2.21678 11.8188C2.21678 13.6611 2.7316 15.4583 3.71617 17.0132L3.94818 17.3851L2.95797 20.9852L6.67533 20.0105Z" fill="white"/>
<path d="M9.07933 6.90193C8.85859 6.41175 8.62658 6.40043 8.41731 6.39482C8.24758 6.38921 8.04958 6.38921 7.85148 6.38921C7.65347 6.38921 7.33655 6.46244 7.065 6.75537C6.79336 7.04839 6.03516 7.75827 6.03516 9.20627C6.03516 10.6485 7.09328 12.0457 7.24037 12.2428C7.38746 12.4401 9.28296 15.4993 12.2761 16.6768C14.7657 17.6572 15.275 17.4599 15.8125 17.4092C16.3557 17.3585 17.5553 16.6994 17.8042 16.012C18.0474 15.3247 18.0474 14.7387 17.9739 14.6148C17.9004 14.4908 17.7023 14.4177 17.4081 14.2711C17.1139 14.1246 15.6654 13.4147 15.3938 13.3134C15.1222 13.212 14.9242 13.1669 14.7318 13.4598C14.5337 13.7528 13.968 14.4119 13.7982 14.6092C13.6284 14.8064 13.4531 14.8289 13.1588 14.6824C12.8646 14.536 11.914 14.226 10.7881 13.2232C9.91107 12.4457 9.31697 11.4823 9.14714 11.1893C8.97741 10.8964 9.13023 10.7385 9.27733 10.5922C9.40742 10.4625 9.57151 10.2485 9.71871 10.0794C9.8658 9.91044 9.91671 9.78652 10.0129 9.58927C10.1091 9.39211 10.0638 9.22311 9.99025 9.07664C9.91671 8.93008 9.33961 7.48217 9.07933 6.90193Z" fill="white"/>
</svg>
